<?xml version="1.0" encoding="utf-8"?>
<!-- Generator: Adobe Illustrator 16.0.0, SVG Export Plug-In . SVG Version: 6.00 Build 0)  -->
<!DOCTYPE svg PUBLIC "-//W3C//DTD SVG 1.1//EN" "http://www.w3.org/Graphics/SVG/1.1/DTD/svg11.dtd">
<svg version="1.1" id="Layer_1" xmlns="http://www.w3.org/2000/svg" xmlns:xlink="http://www.w3.org/1999/xlink" x="0px" y="0px"
	 width="1000px" height="1000px" viewBox="0 0 1000 1000" enable-background="new 0 0 1000 1000" xml:space="preserve">
<path fill="#898989" d="M867.856,228.704V5H5v910.792c0,44.143,35.752,79.895,79.895,79.895h830.897
	c44.143,0,79.895-35.752,79.895-79.895V228.704H867.856z M36.958,915.792V36.958h798.94v191.746v79.894v607.194
	c0,17.977,6.191,34.555,16.378,47.937H84.895C58.529,963.729,36.958,942.157,36.958,915.792z M963.729,915.792
	c0,26.365-21.571,47.937-47.937,47.937s-47.936-21.571-47.936-47.937V308.598v-47.937h95.872V915.792z"/>
<g>
	<g>
		<rect x="466.696" y="590.264" fill="#5590CC" width="98.156" height="278.108"/>
		<rect x="303.103" y="655.7" fill="#5590CC" width="98.157" height="212.672"/>
		<rect x="139.51" y="590.264" fill="#5590CC" width="98.156" height="278.108"/>
	</g>
	<rect x="106.792" y="852.014" fill="#898989" width="490.78" height="32.719"/>
	<path fill="#B2B3B3" d="M188.588,547.545c14.722,0,27.605-6.542,36.604-16.769l78.117,31.287c0,0.614-0.206,1.227-0.206,2.046
		c0,26.992,22.085,49.076,49.08,49.076c26.991,0,49.077-22.084,49.077-49.076c0-0.613-0.206-1.228-0.206-1.839l78.117-31.288
		c8.996,10.223,22.085,16.769,36.604,16.769c26.992,0,49.078-22.087,49.078-49.079c0-26.992-22.086-49.078-49.078-49.078
		c-26.993,0-49.078,22.086-49.078,49.078c0,0.614,0.204,1.227,0.204,1.841L388.786,531.8c-8.998-10.225-22.086-16.768-36.604-16.768
		c-14.521,0-27.608,6.543-36.605,16.768l-78.116-31.287c0-0.614,0.205-1.227,0.205-2.044c0-26.995-22.086-49.082-49.078-49.082
		c-26.994,0-49.078,22.087-49.078,49.082C139.51,525.461,161.594,547.545,188.588,547.545z M515.774,482.108
		c8.997,0,16.359,7.362,16.359,16.361c0,8.995-7.362,16.357-16.359,16.357c-8.998,0-16.359-7.362-16.359-16.357
		C499.415,489.47,506.776,482.108,515.774,482.108z M352.183,547.545c8.994,0,16.357,7.361,16.357,16.36
		c0,8.998-7.363,16.358-16.357,16.358c-9.001,0-16.361-7.36-16.361-16.358C335.821,554.906,343.182,547.545,352.183,547.545z
		 M188.588,482.108c8.997,0,16.359,7.362,16.359,16.361c0,8.995-7.363,16.357-16.359,16.357c-8.998,0-16.36-7.362-16.36-16.357
		C172.228,489.47,179.59,482.108,188.588,482.108z"/>
</g>
<path fill="#898989" d="M124.587,397.151H377.25c9.967,0,18.202-8.236,18.202-18.202V188.258l48.974-48.977l-25.57-25.569
	l-22.971,22.97V126.28c0-9.966-8.235-18.201-18.201-18.201H125.014c-9.964,0-18.206,8.235-18.206,18.201v252.67
	C106.379,389.356,114.616,397.151,124.587,397.151L124.587,397.151z M142.784,144.485h216.699v28.604L251.571,281.002
	l-59.382-59.376l-25.566,25.572L239,319.573c7.36,7.371,18.636,7.371,25.568,0l95.351-95.346v136.952H143.216V144.485H142.784z"/>
<rect x="495.313" y="157.356" fill="#898989" width="275.543" height="38.104"/>
<rect x="495.313" y="233.563" fill="#898989" width="203.956" height="38.104"/>
<rect x="495.313" y="309.771" fill="#898989" width="203.956" height="38.104"/>
<rect x="731.039" y="233.563" fill="#898989" width="38.104" height="38.104"/>
<path fill="#898989" d="M770.856,541.869c0,1.255-1.017,2.271-2.271,2.271h-85.409c-1.254,0-2.271-1.017-2.271-2.271V456.46
	c0-1.254,1.018-2.271,2.271-2.271h85.409c1.255,0,2.271,1.018,2.271,2.271V541.869z"/>
<path fill="#898989" d="M770.856,707.866c0,1.255-1.017,2.271-2.271,2.271h-85.409c-1.254,0-2.271-1.017-2.271-2.271v-85.409
	c0-1.254,1.018-2.271,2.271-2.271h85.409c1.255,0,2.271,1.018,2.271,2.271V707.866z"/>
<path fill="#898989" d="M770.856,882.461c0,1.255-1.017,2.271-2.271,2.271h-85.409c-1.254,0-2.271-1.017-2.271-2.271v-85.408
	c0-1.255,1.018-2.271,2.271-2.271h85.409c1.255,0,2.271,1.017,2.271,2.271V882.461z"/>
<circle fill="#5590CC" cx="188.588" cy="500" r="23.249"/>
<circle fill="#5590CC" cx="352.539" cy="567.325" r="23.249"/>
<circle fill="#5590CC" cx="515.775" cy="500.343" r="23.249"/>
</svg>
