<?xml version="1.0" encoding="utf-8"?>
<!-- Generator: Adobe Illustrator 16.0.0, SVG Export Plug-In . SVG Version: 6.00 Build 0)  -->
<!DOCTYPE svg PUBLIC "-//W3C//DTD SVG 1.1//EN" "http://www.w3.org/Graphics/SVG/1.1/DTD/svg11.dtd">
<svg version="1.1" id="Layer_1" xmlns="http://www.w3.org/2000/svg" xmlns:xlink="http://www.w3.org/1999/xlink" x="0px" y="0px"
	 width="1000px" height="1000px" viewBox="0 0 1000 1000" enable-background="new 0 0 1000 1000" xml:space="preserve">
<g>
	<g>
		<linearGradient id="SVGID_1_" gradientUnits="userSpaceOnUse" x1="249.1055" y1="477.2021" x2="755.2057" y2="292.9967">
			<stop  offset="0" style="stop-color:#37C1CE"/>
			<stop  offset="1" style="stop-color:#6FC7B4"/>
		</linearGradient>
		<path fill="url(#SVGID_1_)" d="M741.929,310.053H262.421c-15.344,0-27.848,12.399-27.848,27.772v94.544
			c0,15.362,12.504,27.771,27.848,27.771h479.507c15.304,0,27.808-12.409,27.808-27.771v-94.544
			C769.736,322.453,757.213,310.053,741.929,310.053z M284.716,375.904c-9.475,0-17.156-7.661-17.156-17.145
			c0-9.455,7.681-17.136,17.156-17.136c9.493,0,17.147,7.681,17.147,17.136C301.864,368.252,294.209,375.904,284.716,375.904z
			 M696.6,425.339H575.462v-40.237h121.146v40.237H696.6z"/>
		<linearGradient id="SVGID_2_" gradientUnits="userSpaceOnUse" x1="249.1074" y1="642.5625" x2="755.203" y2="458.3588">
			<stop  offset="0" style="stop-color:#37C1CE"/>
			<stop  offset="1" style="stop-color:#6FC7B4"/>
		</linearGradient>
		<path fill="url(#SVGID_2_)" d="M741.929,475.407H262.421c-15.344,0-27.848,12.417-27.848,27.791v94.535
			c0,15.342,12.504,27.779,27.848,27.779h479.507c15.304,0,27.808-12.438,27.808-27.779v-94.535
			C769.736,487.824,757.213,475.407,741.929,475.407z M284.716,541.276c-9.475,0-17.156-7.633-17.156-17.146
			c0-9.446,7.681-17.165,17.156-17.165c9.493,0,17.147,7.71,17.147,17.165C301.864,533.635,294.209,541.276,284.716,541.276z
			 M696.6,590.702H575.462v-40.248h121.146v40.248H696.6z"/>
		<linearGradient id="SVGID_3_" gradientUnits="userSpaceOnUse" x1="249.1084" y1="807.9277" x2="755.2031" y2="623.7244">
			<stop  offset="0" style="stop-color:#37C1CE"/>
			<stop  offset="1" style="stop-color:#6FC7B4"/>
		</linearGradient>
		<path fill="url(#SVGID_3_)" d="M741.929,640.77H262.421c-15.344,0-27.848,12.429-27.848,27.781v94.533
			c0,15.364,12.504,27.79,27.848,27.79h479.507c15.304,0,27.808-12.426,27.808-27.79v-94.533
			C769.736,653.198,757.213,640.77,741.929,640.77z M284.716,706.621c-9.475,0-17.156-7.605-17.156-17.147
			c0-9.464,7.681-17.125,17.156-17.125c9.493,0,17.147,7.651,17.147,17.125C301.864,699.016,294.209,706.621,284.716,706.621z
			 M696.6,756.047H575.462v-40.239h121.146v40.239H696.6z"/>
		<linearGradient id="SVGID_4_" gradientUnits="userSpaceOnUse" x1="259.2222" y1="1015.9072" x2="741.7791" y2="840.2709">
			<stop  offset="0" style="stop-color:#37C1CE"/>
			<stop  offset="1" style="stop-color:#6FC7B4"/>
		</linearGradient>
		<polygon fill="url(#SVGID_4_)" points="584.975,881.295 533.873,881.295 533.873,806.947 470.477,806.947 470.477,881.295 
			419.315,881.295 419.315,900.887 240.442,900.887 240.442,964.311 419.315,964.311 419.315,983.932 584.975,983.932 
			584.975,964.311 763.841,964.311 763.841,900.887 584.975,900.887 		"/>
		<linearGradient id="SVGID_5_" gradientUnits="userSpaceOnUse" x1="62.2881" y1="486.373" x2="918.5151" y2="174.7319">
			<stop  offset="0" style="stop-color:#37C1CE"/>
			<stop  offset="1" style="stop-color:#6FC7B4"/>
		</linearGradient>
		<path fill="url(#SVGID_5_)" d="M785.188,157.55c-6.857-0.575-13.168-4.086-17.252-9.608
			c-38.444-51.918-100.077-83.938-165.68-83.938c-4.104,0-8.219,0.125-12.333,0.366c-5.696,0.345-11.297-1.353-15.842-4.786
			C534.15,29.462,485.752,13.141,435.11,13.141c-90.755,0-171.309,52.579-208.957,132.183c-3.453,7.297-10.348,12.362-18.344,13.483
			c-100.02,14.076-177.245,100.21-177.245,204.047c0,98.992,70.177,181.846,163.406,201.563v-61.22
			c0-7.634,1.419-14.902,3.769-21.748c-49.857-16.391-85.999-63.322-85.999-118.586c0-68.845,56.012-124.857,124.875-124.857
			c3.473,0,6.886,0.269,10.299,0.546c19.843,1.545,37.794-11.334,42.635-30.58c16.783-66.906,76.65-113.637,145.55-113.637
			c39.375,0,76.642,15.2,104.921,42.807c9.666,9.429,23.398,13.446,36.624,10.683c8.429-1.754,17.041-2.647,25.612-2.647
			c48.206,0,91.255,27.1,112.342,70.724c7.414,15.333,23.609,24.473,40.574,22.719c4.219-0.424,8.438-0.624,12.524-0.624
			c68.854,0,124.874,56.012,124.874,124.857c0,55.273-36.162,102.196-85.998,118.584c2.329,6.857,3.748,14.116,3.748,21.75v61.208
			c93.22-19.705,163.435-102.551,163.435-201.554C973.746,255.133,890.635,166.45,785.188,157.55z"/>
	</g>
</g>
</svg>
