<?xml version="1.0" encoding="utf-8"?>
<!-- Generator: Adobe Illustrator 16.0.0, SVG Export Plug-In . SVG Version: 6.00 Build 0)  -->
<!DOCTYPE svg PUBLIC "-//W3C//DTD SVG 1.1//EN" "http://www.w3.org/Graphics/SVG/1.1/DTD/svg11.dtd">
<svg version="1.1" id="Layer_1" xmlns="http://www.w3.org/2000/svg" xmlns:xlink="http://www.w3.org/1999/xlink" x="0px" y="0px"
	 width="1000px" height="1000px" viewBox="0 0 1000 1000" enable-background="new 0 0 1000 1000" xml:space="preserve">
<rect x="9.189" y="5.13" fill="#FFFFFF" width="983.811" height="983.811"/>
<path fill="#FEBD11" d="M501.094,216.761c-78.66-0.098-142.493,63.636-142.592,142.396c0,47.63,23.766,92.214,63.341,118.631v55.879
	h158.405V477.69c65.402-43.701,83.08-132.183,39.379-197.587C593.211,240.428,548.725,216.663,501.094,216.761L501.094,216.761z
	 M501.094,390.976c-17.479,0-31.719-14.142-31.719-31.721c0-17.579,14.142-31.72,31.719-31.72c17.48,0,31.721,14.141,31.721,31.72
	l0,0l0,0C532.814,376.736,518.674,390.877,501.094,390.976L501.094,390.976z"/>
<path fill="#898989" d="M231.818,295.913c-0.097-46.058-28.577-87.304-71.688-103.605c47.825-21.605,69.038-77.975,47.433-125.8
	c-21.606-47.825-77.975-69.038-125.8-47.334c-47.825,21.704-69.038,77.876-47.433,125.8c9.526,21.016,26.417,37.907,47.433,47.433
	c-43.013,16.302-71.591,57.449-71.689,103.507v47.531h221.745V295.913z M57.604,105.888c0-34.96,28.283-63.342,63.341-63.342
	c34.961,0,63.342,28.283,63.342,63.342c0,34.961-28.283,63.342-63.244,63.342l0,0C85.985,169.131,57.604,140.849,57.604,105.888
	L57.604,105.888z M200.196,311.724H41.792v-15.811c0-43.701,35.452-79.152,79.153-79.152c43.701,0,79.153,35.451,79.153,79.152
	v15.811H200.196z"/>
<path fill="#898989" d="M540.279,841.732c47.824-21.605,69.037-77.975,47.432-125.799c-21.605-47.826-77.975-69.037-125.8-47.434
	c-47.825,21.605-69.037,77.975-47.432,125.801c9.526,21.016,26.417,37.906,47.432,47.432
	c-43.111,16.303-71.59,57.549-71.689,103.605v47.531h221.745v-47.531C611.869,899.281,583.391,858.035,540.279,841.732z
	 M437.851,755.312c0-34.961,28.381-63.34,63.343-63.34c34.961,0,63.244,28.379,63.244,63.34s-28.383,63.342-63.344,63.342l0,0l0,0
	C466.232,818.459,437.851,790.176,437.851,755.312z M580.346,961.148H421.942v-15.811c0-43.701,35.452-79.152,79.152-79.152
	c43.701,0,79.154,35.451,79.154,79.152l0,0l0,0L580.346,961.148z"/>
<path fill="#898989" d="M920.428,192.308c47.826-21.605,69.037-77.975,47.432-125.8c-21.604-47.825-77.973-68.939-125.799-47.334
	s-69.037,77.974-47.434,125.8c9.527,21.016,26.318,37.907,47.434,47.433c-43.111,16.302-71.592,57.548-71.689,103.605v47.531
	h221.744v-47.531C992.018,249.855,963.539,208.609,920.428,192.308z M817.902,105.888c0-34.96,28.381-63.243,63.342-63.243
	s63.342,28.38,63.342,63.341s-28.283,63.244-63.244,63.244l0,0C846.283,169.131,817.902,140.849,817.902,105.888L817.902,105.888z
	 M960.494,311.724H802.09v-15.811c0-43.701,35.354-79.25,79.154-79.25c43.799,0,79.25,35.353,79.25,79.152V311.724z"/>
<rect x="551.658" y="549.326" transform="matrix(-0.5635 0.8261 -0.8261 -0.5635 1659.1582 253.7248)" fill="#898989" width="421.782" height="31.721"/>
<rect x="222.863" y="356.907" transform="matrix(-0.8289 0.5593 -0.5593 -0.8289 754.3351 905.3711)" fill="#898989" width="31.718" height="422.256"/>
<rect x="276.207" y="42.546" fill="#898989" width="449.874" height="31.72"/>
<path fill="#898989" d="M572.391,501.848h-55.484V403.84c24.748-8.74,37.711-35.942,28.969-60.69
	c-8.74-24.748-35.941-37.71-60.689-28.97c-24.748,8.74-37.71,35.942-28.971,60.69c4.812,13.552,15.418,24.158,28.971,28.97v98.008
	h-55.387c-21.801-0.098-39.577,17.578-39.675,39.381c-0.098,13.65,6.972,26.416,18.561,33.684
	c-7.856,20.23,2.062,43.111,22.391,50.967c4.615,1.77,9.624,2.75,14.534,2.652h110.874c21.703,0.098,39.479-17.383,39.576-39.086
	c0-5.008-0.885-9.918-2.652-14.533c18.463-11.588,24.061-36.041,12.473-54.504C598.611,508.82,585.943,501.848,572.391,501.848
	L572.391,501.848z M501.094,343.444c8.74,0,15.812,7.071,15.812,15.811c0,8.74-7.072,15.812-15.812,15.812
	c-8.74,0-15.81-7.072-15.81-15.812l0,0l0,0C485.284,350.515,492.354,343.444,501.094,343.444L501.094,343.444L501.094,343.444z
	 M429.798,533.568h142.592c4.322-0.197,8.053,3.143,8.348,7.561c0.197,4.322-3.143,8.055-7.562,8.348l0,0H429.798
	c-4.321,0.197-8.052-3.143-8.348-7.561c-0.196-4.322,3.143-8.055,7.562-8.348C429.308,533.469,429.602,533.469,429.798,533.568z
	 M556.482,596.811H445.708c-4.419-0.195-7.758-3.83-7.66-8.15c0.099-4.123,3.437-7.463,7.66-7.66H556.58
	c4.42,0.197,7.758,3.83,7.66,8.152C564.045,593.375,560.705,596.713,556.482,596.811L556.482,596.811z"/>
<rect x="485.284" y="121.699" fill="#FEBD11" width="31.72" height="63.342"/>
<rect x="382.252" y="149.326" transform="matrix(-0.8661 0.4998 -0.4998 -0.8661 833.3931 138.7773)" fill="#FEBD11" width="31.718" height="63.34"/>
<rect x="306.934" y="224.679" transform="matrix(-0.4998 0.8661 -0.8661 -0.4998 706.16 104.8891)" fill="#FEBD11" width="31.719" height="63.34"/>
<rect x="263.539" y="343.444" fill="#FEBD11" width="63.341" height="31.72"/>
<rect x="291.128" y="446.454" transform="matrix(-0.8661 0.4998 -0.4998 -0.8661 833.455 701.3981)" fill="#FEBD11" width="63.34" height="31.719"/>
<rect x="663.516" y="430.544" transform="matrix(-0.4998 0.8661 -0.8661 -0.4998 1419.2784 104.8134)" fill="#FEBD11" width="31.718" height="63.34"/>
<rect x="675.309" y="343.444" fill="#FEBD11" width="63.342" height="31.72"/>
<rect x="647.799" y="240.552" transform="matrix(-0.8661 0.4998 -0.4998 -0.8661 1396.1389 138.8907)" fill="#FEBD11" width="63.34" height="31.718"/>
<rect x="572.441" y="165.104" transform="matrix(-0.5 0.866 -0.866 -0.5 1062.8986 -251.7173)" fill="#FEBD11" width="63.34" height="31.719"/>
</svg>
