<?xml version="1.0" encoding="utf-8"?>
<!-- Generator: Adobe Illustrator 16.0.0, SVG Export Plug-In . SVG Version: 6.00 Build 0)  -->
<!DOCTYPE svg PUBLIC "-//W3C//DTD SVG 1.1//EN" "http://www.w3.org/Graphics/SVG/1.1/DTD/svg11.dtd">
<svg version="1.1" id="Layer_1" xmlns="http://www.w3.org/2000/svg" xmlns:xlink="http://www.w3.org/1999/xlink" x="0px" y="0px"
	 width="1100px" height="800px" viewBox="0 0 1100 800" enable-background="new 0 0 1100 800" xml:space="preserve">
<g>
	<defs>
		<rect id="SVGID_1_" width="1100" height="800"/>
	</defs>
	<clipPath id="SVGID_2_">
		<use xlink:href="#SVGID_1_"  overflow="visible"/>
	</clipPath>
	<polygon clip-path="url(#SVGID_2_)" fill="#D1D3D4" points="601.084,646.188 472.01,644.755 484.769,546.109 590.52,547.278 	"/>
	<g clip-path="url(#SVGID_2_)">
		<defs>
			<rect id="SVGID_3_" width="1100" height="800"/>
		</defs>
		<clipPath id="SVGID_4_">
			<use xlink:href="#SVGID_3_"  overflow="visible"/>
		</clipPath>
		<g opacity="0.14" clip-path="url(#SVGID_4_)">
			<g>
				<defs>
					<rect id="SVGID_5_" x="481.096" y="568.646" width="114.801" height="29.06"/>
				</defs>
				<clipPath id="SVGID_6_">
					<use xlink:href="#SVGID_5_"  overflow="visible"/>
				</clipPath>
				<polygon clip-path="url(#SVGID_6_)" points="481.096,573.404 592.797,568.646 595.896,597.705 				"/>
			</g>
		</g>
		<path clip-path="url(#SVGID_4_)" fill="#E8E9EA" d="M199.732,136.698V563.02H879.61V136.698c0.007-4.472-3.613-8.101-8.085-8.108
			h-0.023H207.84c-4.472-0.008-8.102,3.612-8.108,8.084V136.698z"/>
		<rect x="435.095" y="632.605" clip-path="url(#SVGID_4_)" fill="#D1D3D4" width="204.002" height="35.58"/>
		<path clip-path="url(#SVGID_4_)" fill="#F492AC" d="M492.209,120.506c3.1-2.194,6.797-2.79,10.374-3.327
			c18.139-2.67,36.339-4.657,54.599-5.962c27.937-2.003,56.805-2.241,82.846,9.909c4.292,2.003,9.265,6.069,8.227,11.411
			c-0.87,4.459-5.341,6.188-9.121,7.035c-36.963,8.263-74.809,6.975-112.357,5.652C519.967,144.961,469.888,136.317,492.209,120.506
			"/>
		<polygon clip-path="url(#SVGID_4_)" fill="#4D4D4D" points="207.674,629.196 215.078,635.682 208.58,660.565 200.746,660.565 
			196.144,642.347 202.236,628.004 		"/>
		<polygon clip-path="url(#SVGID_4_)" fill="#F492AC" points="115.193,405.208 169.137,415.307 138.194,523.778 203.596,629.04 
			196.144,642.347 102.232,542.559 93.743,517.803 99.645,417.728 		"/>
		<polygon clip-path="url(#SVGID_4_)" fill="#F492AC" points="210.022,405.196 195.773,505.534 178.233,657.217 160.074,655.75 
			151.096,502.576 156.675,405.768 		"/>
		<path clip-path="url(#SVGID_4_)" fill="#EFE1B4" d="M78.42,432.787c-1.128,4.443-2.353,8.875-3.673,13.296
			c-0.385,0.909-0.445,1.925-0.167,2.874c0.402,0.732,1.023,1.32,1.777,1.681c9.051,5.313,19.956,6.465,29.917,3.159
			c4.77-1.634,9.277-4.292,14.177-5.699c8.228-2.385,16.836-1.098,25.207-0.632c8.371,0.465,15.501-1.646,23.537-2.302
			c19.555-1.609,24.79-2.588,43.402,3.268c0-35.234,7.154-62.325,1.836-95.461c-5.277-32.719-10.567-65.437-15.87-98.156
			c-0.882-5.521-1.812-11.149-4.09-16.014c-10.313-21.963-34.579-26.161-56.101-19.877c-10.946,3.195-19.674,15.501-25.04,25.159
			c-6.88,12.281-10.731,26.101-13.39,39.825c-8.525,42.925-8.799,87.198-17.266,130.158
			C81.422,420.354,80.003,426.595,78.42,432.787"/>
		<path clip-path="url(#SVGID_4_)" fill="#EFBFA5" d="M151.37,223.562c0.192,0.464,0.463,0.892,0.799,1.264
			c1.474,1.583,3.41,2.659,5.533,3.077c2.764,0.453,5.583,0.453,8.347,0c3.756-0.441,3.78-2.611,4.555-5.962
			c0.774-3.635,1.347-7.308,1.717-11.005c5.378-0.441,11.757-1.622,14.082-7.154c0.647-1.786,1.021-3.66,1.109-5.557l2.385-23.478
			c0.43-2.687,0.381-5.428-0.144-8.097c-1.192-4.555-4.996-7.559-8.823-9.539c-9.742-5.151-21.57-6.069-31.479-0.93
			c-2.767,1.321-5.136,3.348-6.868,5.878c-2.611,4.09-2.814,9.432-2.934,14.428c-0.095,4.615-0.202,9.217-0.31,13.832
			c-0.119,5.306,0.107,11.447,3.852,14.594c2.002,1.669,4.77,2.194,6.379,4.281c2.075,2.599,1.669,6.26,1.538,9.372
			C150.822,220.231,150.912,221.938,151.37,223.562"/>
		<path clip-path="url(#SVGID_4_)" fill="#929799" d="M181.477,165.542c0.215,0.448,0.391,0.916,0.524,1.395
			c0.668,2.492-0.107,5.198,0.549,7.703c1.025,3.971,5.378,6.618,5.759,10.731c0.322,3.327-2.158,6.308-2.587,9.623
			c-0.465,3.637,1.621,7.249,0.99,10.826c-0.859,3.575-2.527,6.904-4.877,9.73c0.632-0.739,5.843-0.083,7.262-0.823
			c2.17-1.121,2.468-1.896,3.243-4.018s0.441-4.269,1.562-6.403c1.371-2.623,3.923-4.435,4.984-7.249
			c1.431-3.852-0.358-8.156,0.096-12.246c0.691-6.189,6.474-11.638,4.96-17.683c-0.895-3.577-4.09-5.962-5.759-9.241
			c-1.264-2.469-1.585-5.294-2.385-7.941c-0.799-2.647-2.385-5.366-4.924-6.332c-1.494-0.369-3.007-0.659-4.531-0.871
			c-2.576-0.679-4.615-2.635-7.071-3.66c-3.517-1.479-10.123,1.693-12.448,4.602c-2.325,2.91-1.431,5.521,0.501,8.347
			C170.543,156.79,178.914,160.259,181.477,165.542"/>
		<path clip-path="url(#SVGID_4_)" fill="#929799" d="M131.433,143.96c-2.266,1.431-5.02,2.385-7.154,4.09
			c-4.102,3.326-5.246,9.038-5.759,14.308c-0.465,4.674-2.814,8.692-2.659,13.617c-0.038,3.355,1.338,6.571,3.792,8.859
			c3.148,2.647,8.346,3.422,9.539,7.357c1.312,4.281-3.387,9.205-1.025,13.021c1.299,2.098,4.102,2.587,6.081,4.078
			c2.194,1.658,3.184,4.424,4.423,6.88c1.24,2.457,3.172,4.972,5.962,5.235c0.417-4.173,0.775-7.476-0.727-11.423
			c-0.882-2.302-3.649-6.63-1.121-8.872c1.621-1.896,5.174-2.29,5.449-4.77c-0.057-1.178-0.475-2.308-1.192-3.243
			c-2.145-4.1-2.19-8.98-0.119-13.116c2.105-4.081,5.642-7.245,9.932-8.883c4.949-1.967,4.257-3.184,5.962-7.655
			c1.586-4.126,4.042-4.936,7.941-6.2c3.505-1.133,4.663-1.908,6.153-5.008c1.085-2.253,2.385-4.972,1.276-7.667
			c-1.078-2.072-2.601-3.88-4.459-5.294c-3.648-3.219-7.763-6.63-12.627-6.63c-2.694,0-5.318,1.085-8.012,1.038
			c-1.801,0-3.577-0.548-5.354-0.739c-3.125-0.33-6.272,0.378-8.955,2.016c-2.635,1.657-2.707,3.577-4.281,6.093
			C133.714,142.243,132.665,143.239,131.433,143.96"/>
		<path clip-path="url(#SVGID_4_)" fill="#929799" d="M143.512,127.577c0.68-2.885,0.644-6.701-2.063-7.881
			c-1.478-0.644-3.231-0.179-4.769-0.62c-3.315-0.931-4.173-5.091-5.735-8.168c-0.188-0.489-0.526-0.906-0.966-1.192
			c-0.704-0.228-1.458-0.265-2.182-0.107c-3.386,0.167-5.699-3.327-8.775-4.77c-4.04-1.676-8.674,0.227-10.374,4.256
			c-0.596,1.622-0.644,3.398-1.192,5.02c-2.325,6.594-12.377,8.74-13.116,15.68c-0.513,4.698,3.767,9.539,1.669,13.76
			c-1.347,2.707-5.067,4.352-4.877,7.357c0.317,1.959,1.975,3.422,3.959,3.494c1.959-0.017,3.85-0.721,5.342-1.991
			c2.468-1.848,4.4-4.316,6.761-6.308s5.425-3.505,8.454-2.897c3.029,0.608,5.437,3.076,8.406,2.791
			c2.385-0.227,4.269-2.194,6.618-2.624c2.349-0.429,4.388,0.62,6.606,0.918c2.217,0.298,5.032-0.667,5.246-2.897
			c-0.027-0.541,0.025-1.083,0.155-1.609c0.573-1.396,3.017-1.192,3.577-2.54c-1.025-1.883-2.718-1.359-3.374-3.756
			C142.379,131.678,143.083,129.365,143.512,127.577"/>
		<path clip-path="url(#SVGID_4_)" fill="#EFBFA5" d="M1037.301,623.006l-6.975,8.193c-9.097-7.031-17.535-14.87-25.219-23.419
			c4.674-2.267,7.917-8.801,13.986-3.757C1021.097,605.658,1036.849,623.579,1037.301,623.006"/>
		<path clip-path="url(#SVGID_4_)" fill="#4D4D4D" d="M1024.877,627.883c-1.163,1.579-1.688,3.537-1.468,5.486
			c0.222,1.179,0.337,2.376,0.346,3.577c-0.155,1.078-0.543,2.11-1.131,3.027c-2.684,4.889-12.067,17.684,1.001,17.886
			c11.924,0.215,19.459-19.448,23.49-29.201c0.333-0.639,0.481-1.355,0.428-2.075c-0.177-0.817-0.559-1.574-1.108-2.205
			c-2.767-3.708-6.903-9.432-10.826-5.533c-1.682,1.657-2.206,4.497-4.103,6.152C1029.944,626.393,1025.89,626.583,1024.877,627.883
			"/>
		<path clip-path="url(#SVGID_4_)" fill="#8CABEF" d="M999.359,407.283c2.277,15.441-0.57,30.561-2.099,45.68
			c-1.704,17.003,0,31.453,3.352,48.352c3.696,18.468,7.737,36.963,12.912,55.04c5.391,18.898,13.355,33.91,22.418,51.066
			c0.896,1.4,1.418,3.005,1.514,4.663c-0.213,5.866-25.731,22.035-27.425,18.661c-14.033-28.617-36.569-57.413-48.673-87.043
			c-21.112-51.617-39.199-104.422-54.169-158.144c-2.135-7.679-4.101-16.479-0.286-22.989c2.909-4.996,8.455-7.154,13.712-8.848
			c14.035-4.412,39.349-14.046,53.442-4.686C989.45,359.29,996.82,389.982,999.359,407.283"/>
		<path clip-path="url(#SVGID_4_)" fill="#EFBFA5" d="M922.833,655.116l-10.325-0.203c-1.24-11.882-1.488-23.847-0.74-35.771
			c4.699,2.266,11.376,0.572,11.924,8.801C923.954,630.542,922.178,655.104,922.833,655.116"/>
		<path clip-path="url(#SVGID_4_)" fill="#4D4D4D" d="M911.172,648.297c-1.857,0.077-3.593,0.946-4.77,2.385
			c-0.659,0.943-1.4,1.824-2.217,2.635c-0.848,0.591-1.826,0.969-2.851,1.097c-5.175,1.064-20.271,1.958-11.697,12.664
			c7.811,9.718,26.472,2.849,35.891-0.347c0.667-0.166,1.268-0.524,1.729-1.037c0.45-0.719,0.712-1.539,0.763-2.385
			c0.705-4.686,1.873-11.805-3.445-12.4c-2.266-0.249-4.578,1.192-6.999,0.764C915.596,651.396,912.734,648.26,911.172,648.297"/>
		<path clip-path="url(#SVGID_4_)" fill="#8CABEF" d="M975.131,427.362c-4.173,22.536-17.742,39.933-24.062,61.849
			c-12.186,42.376-14.772,90.931-20.712,134.892c-0.452,3.375-0.404,15.501-0.404,15.501s-16.169,3.244-25.935,1.265
			c-10.719-87.891-13.472-176.57-8.227-264.957c0.477-8.024,1.478-17.051,7.154-21.975c4.352-3.78,10.254-4.019,15.703-3.828
			c14.594,0.489,41.458-0.203,51.605,13.403C981.344,378.368,978.338,410.05,975.131,427.362"/>
		<path clip-path="url(#SVGID_4_)" fill="#2F3541" d="M147.542,370.629c0.918,0.339,1.868,0.579,2.837,0.716
			c3.307,0.536,6.645,0.858,9.992,0.965c2.385,0.107,4.77,0.155,7.25,0.155c11.173,0,20.271-1.085,20.962-2.456v-0.382v0.107
			c0.006-0.095,0.006-0.191,0-0.287V321.98c0.057-0.428,0.021-0.863-0.107-1.276c-0.093-0.175-0.234-0.32-0.406-0.417
			c-0.222-0.118-0.453-0.218-0.691-0.298c-2.453-0.731-4.989-1.153-7.547-1.251c-4.078-0.37-8.18-0.501-12.27-0.501
			c-4.09,0-8.204,0.131-12.282,0.501c-2.559,0.099-5.095,0.52-7.547,1.251c-0.692,0.251-1.479,0.585-1.431,1.407v0.573v46.669
			c0,0.655-0.083,1.133,0.453,1.598C146.992,370.415,147.257,370.548,147.542,370.629"/>
		<polygon clip-path="url(#SVGID_4_)" fill="#4D4D4D" points="160.813,663.786 158.118,676.104 170.936,677.427 177.53,665.789 
			178.222,657.217 160.36,653.603 		"/>
		<path clip-path="url(#SVGID_4_)" fill="#2F3541" d="M167.515,318.595c11.472,0,20.771,1.132,20.771,2.528
			s-9.299,2.528-20.771,2.528c-11.472,0-20.771-1.132-20.771-2.528S156.042,318.595,167.515,318.595"/>
		<path clip-path="url(#SVGID_4_)" fill="#FFFFFF" d="M166.871,319.537c-9.706,0-17.671,1.049-18.279,2.624
			c2.326,0.775,9.754,1.502,18.84,1.502c7.834,0,14.63-0.322,17.719-1.192c0-0.083,0.846-0.107,0.846-0.179
			C185.949,320.633,176.922,319.537,166.871,319.537"/>
		<path clip-path="url(#SVGID_4_)" fill="#2F3541" d="M152.919,333.344c-4.471-4.186-10.278-6.939-16.049-4.662
			c-4.692,2.046-7.934,6.444-8.501,11.53c-1.336,10.589,11.232,19.305,19.757,15.287c2.48-1.192,0.727-5.091-1.765-3.887
			c-6.308,3.028-14.762-4.77-12.687-11.602c2.385-7.977,10.302-8.251,15.978-3.088C151.918,338.983,155.209,335.478,152.919,333.344
			"/>
		<path clip-path="url(#SVGID_4_)" fill="#FFFFFF" d="M165.309,286.305c1.872,0.107,1.86-2.814,0-2.921
			c-4.507-0.262-8.621,2.385-9.146,7.154c-0.197,2.192,0.433,4.378,1.765,6.129c2.385,3.398,8.43,7.285,2.575,11.423
			c-1.514,1.073,0,3.577,1.479,2.516c2.83-1.789,4.253-5.142,3.577-8.418c-0.452-1.626-1.333-3.101-2.552-4.269
			c-1.097-1.192-2.849-2.385-3.386-3.935C158.273,289.775,160.79,286.042,165.309,286.305"/>
		<path clip-path="url(#SVGID_4_)" fill="#FFFFFF" d="M179.152,289.238c1.872,0.119,1.872-2.802,0-2.909
			c-4.507-0.263-8.621,2.385-9.134,7.154c-0.206,2.191,0.424,4.38,1.765,6.129c2.385,3.397,8.43,7.297,2.576,11.435
			c-1.526,1.073-0.072,3.577,1.467,2.516c2.826-1.791,4.25-5.142,3.577-8.418c-0.452-1.629-1.333-3.107-2.552-4.281
			c-1.084-1.192-2.849-2.325-3.374-3.923C172.117,292.72,174.633,288.976,179.152,289.238"/>
		<path clip-path="url(#SVGID_4_)" fill="#EFBFA5" d="M143.333,340.558c-0.057-0.293-0.142-0.581-0.25-0.859
			c-1.014-2.599-3.804-2.707-5.306-4.626c-0.68-0.858-0.501-4.256-2.277-3.577c-0.656,0.25-2.921,0.882-5.163,1.657
			c-1.918,0.001-3.837-0.095-5.747-0.286c-4.77-0.62-13.76-7.774-17.886-2.099c-0.86,1.055-1.544,2.243-2.027,3.518
			c-0.279,1.053-0.389,2.144-0.322,3.231c0,0.834-0.144,2.182,0.441,2.706c0.584,0.525,2.742,0.561,3.577,0.74l7.154,1.479
			c2.385,0.489,5.044,1.288,5.723,3.577c0.103,0.521,0.239,1.034,0.405,1.538c0.283,0.526,0.693,0.973,1.192,1.3
			c1.645,1.381,3.456,2.55,5.39,3.481c3.494,1.598,8.943-1.812,12.115-3.505c0.82-0.377,1.551-0.922,2.146-1.598
			c0.77-1.239,1.114-2.697,0.978-4.149C143.513,342.241,143.465,341.394,143.333,340.558"/>
		<path clip-path="url(#SVGID_4_)" fill="#EFE1B4" d="M58.21,296.047c-1.611,4.09-2.33,8.475-2.11,12.866
			c0.274,4.769,2.933,9.229,6.438,12.543c3.629,3.17,7.697,5.801,12.079,7.81c12.827,6.483,26.182,11.865,39.92,16.085l6.869-13.999
			c1.332-1.521,1.179-3.833-0.342-5.166c-0.435-0.381-0.956-0.654-1.518-0.796l-14.94-8.12c-4.675-2.551-9.635-5.377-11.924-10.17
			c-4.448-9.158,5.735-13.116,10.826-18.315c6.916-7.071,14.082-13.975,20.783-21.248c6.355-6.498,12.89-13.271,15.668-21.725
			c5.521-16.825-0.179-28.617-16.038-21.618c-10.04,4.423-17.563,12.197-28.152,21.868C81.378,259.203,65.162,277.672,58.21,296.047
			"/>
		<path clip-path="url(#SVGID_4_)" fill="#EFE1B4" d="M507.447,691.414c-12.222-6.761-24.229,1.548-32.945,9.395
			c-17.277,15.5-36.045,29.309-54.479,43.486c-6.082-3.447-12.759-7.154-15.799-8.775c-18.649-9.768-37.691-18.936-55.267-30.37
			c-8.573-5.604-20.271-10.804-31.8-0.871c-9.432,8.155-12.854,22.785-9.837,31.682c3.017,8.896,10.66,13.354,18.267,17.063
			c19.173,9.324,41.65,21.092,63.124,23.442c9.372,1.024,19.913,0.379,29.356,0.142c14.857-0.382,31.323-1.085,44.189-8.882
			c13.116-7.953,25.648-16.693,37.977-25.769c7.774-5.711,15.561-12.185,18.398-21.796
			C521.469,710.55,517.428,696.933,507.447,691.414"/>
		<path clip-path="url(#SVGID_4_)" fill="#EFE1B4" d="M491.195,740.802c-1.431-12.294-7.596-22.071-18.995-27.425
			c-9.241-4.341-19.626-5.354-29.75-6.653c-22.548-2.897-44.118-5.797-66.844-4.902c-18.208,0.717-29.428,16.253-37.953,31.574
			c-5.366,9.658-3.875,14.189,2.885,22.273c6.251,7.476,13.785,13.775,22.25,18.603c16.693,9.539,42.437,7.154,60.87,5.103
			c17.44-1.954,34.367-7.119,49.925-15.237C483.6,758.937,492.603,752.783,491.195,740.802"/>
		<path clip-path="url(#SVGID_4_)" fill="#8CABEF" d="M422.312,547.887c8.573-1.192,17.278-2.694,24.468,0.442
			c6.081,2.646,5.961,10.338,7.345,16.144c4.495,19.208,7.881,38.656,10.528,58.212c1.264,9.359,3.458,19.364,3.398,28.808
			c0,7.571-1.943,14.939-1.359,22.655c0.453,5.962,2.969,12.329,8.406,14.761c2.73,1.191,5.878,1.275,8.609,2.479
			c2.73,1.207,5.091,4.437,3.708,7.154c-0.784,1.197-1.898,2.143-3.208,2.721l-20.33,11.339c-5.096,3.027-10.432,5.631-15.954,7.785
			c-7.905,2.778-16.348,3.696-24.694,4.115c-21.703,1.102-43.441-1.281-64.388-7.059c-11.256-3.103-22.13-8.61-19.4-21.344
			c2.814-13.116,8.251-26.232,14.106-38.156c7.154-14.522,9.193-32.026,14.225-47.361c5.091-15.501,10.469-31.002,15.906-46.396
			l0.059-0.166c1.979-5.64,2.791-11.22,7.154-15.787c5.962-6.26,8.859-1.288,15.644,0
			C411.438,549.079,416.851,548.555,422.312,547.887"/>
		<path clip-path="url(#SVGID_4_)" fill="#EFBFA5" d="M570.273,126.611c0.818-0.356,1.533-0.91,2.087-1.61
			c0.147-0.162,0.249-0.359,0.298-0.572c0.037-0.257,0.01-0.52-0.084-0.764c-0.262-0.942-2.957-8.251-2.385-8.621
			c4.625-2.663,8.388-6.598,10.839-11.339c4.257-8.346,4.483-17.885,3.649-26.792c-1.192-12.854-5.652-26.959-17.576-31.669
			c-9.145-3.577-20.615,0.31-27.996,7.154c-9.468,8.8-8.025,23.299-6.021,34.483c1.318,8.148,4.963,15.742,10.492,21.868
			c2.804,3.024,6.24,5.393,10.064,6.939c1.871,0.739,3.576,0.584,4.161,2.385c0.679,2.301,0.346,5.711,0.571,8.144
			c-0.02,0.412,0.132,0.813,0.418,1.109c0.252,0.15,0.542,0.221,0.834,0.203c2.004,0.083,4.007,0.06,5.962,0
			C567.191,127.506,568.779,127.195,570.273,126.611"/>
		<path clip-path="url(#SVGID_4_)" fill="#96620F" d="M572.741,62.867c4.649,2.73,9.206,7.38,8.347,12.711
			c2.445-1.192,5.474,1.192,5.831,3.863c0.356,2.671-1.192,5.294-2.898,7.393c2.72,0.453,5.402-1.515,6.643-3.982
			c1.067-2.561,1.547-5.327,1.406-8.096c0.144-8.192-0.214-16.61-3.361-24.169c-3.148-7.56-9.623-14.201-17.72-15.501
			c-2.508-0.34-5.051-0.34-7.561,0c-2.051,0.122-4.057,0.666-5.889,1.598C543.087,45.029,566.72,59.337,572.741,62.867"/>
		<path clip-path="url(#SVGID_4_)" fill="#96620F" d="M539.295,79.011c-2.385,6.379,3.352,13.391,1.861,20.044
			c-0.919,4.137-4.556,7.512-4.543,11.745c0,5.473,6.08,9.539,6.152,14.952c-3.482-4.352-10.124-5.414-13.116-10.1
			c-1.252-1.932-1.706-4.256-2.576-6.379c-3.577-8.751-13.188-12.997-21.308-17.885c-0.988-0.492-1.841-1.222-2.48-2.123
			c-1.192-2.099,0-4.71,1.097-6.892c3.189-6.708,4.302-14.214,3.196-21.558c-1.061-6.928-4.102-13.832-2.73-20.724
			c1.356-6.246,6.102-11.204,12.282-12.83c5.46-1.359,11.315,0.107,16.789-1.192c3.576-0.871,6.844-2.922,10.23-4.495
			c7.822-3.649,18.137-4.388,24.217,1.729c5.379,5.425,5.414,14.547,1.885,21.32c-2.17,4.185-5.283,7.786-7.488,11.924
			c-1.693,3.208-2.898,6.725-5.676,9.205C551.72,70.617,542.098,71.559,539.295,79.011"/>
		<path clip-path="url(#SVGID_4_)" fill="#B97262" d="M915.75,235.88l16.265-2.099c-0.074-4.363-0.497-8.713-1.265-13.009
			c4.484-1.729,9.659-4.269,10.304-9.038c0.119-1.516-0.017-3.038-0.405-4.507c-1.24-6.129-2.489-12.262-3.745-18.399
			c-0.29-2.153-1.003-4.228-2.1-6.105c-2.133-3.147-6.127-4.435-9.884-4.972c-9.539-1.371-19.948,1.001-27.162,7.477
			c-2.001,1.653-3.53,3.803-4.436,6.236c-1.192,3.78-0.107,7.881,1.013,11.697l3.113,10.577c1.192,4.054,2.885,8.645,6.855,10.063
			c2.123,0.751,4.579,0.441,6.511,1.586C914.212,227.414,913.902,232.386,915.75,235.88"/>
		<path clip-path="url(#SVGID_4_)" fill="#EFBFA5" d="M950.187,229.333c10.935,5.794,19.399,16.312,25.04,27.424
			c22.451,44.309,33.387,93.398,43.927,141.893c3.423,15.751,7.476,32.635,19.627,43.223c-10.731,2.003-22.06,3.493-32.492,0.191
			c-6.809-2.171-12.83-6.26-19.281-9.348c-16.145-7.739-34.781-9.063-52.548-6.833c-17.767,2.229-34.925,7.822-51.952,13.379
			c-1.683-12.604-2.152-25.343-1.406-38.037c2.075-37.405,17.051-72.973,17.145-110.604c0-13.259-1.799-26.733,1.135-39.67
			c3.285-15.906,17.676-27.043,33.898-26.232C939.193,224.944,944.978,226.523,950.187,229.333"/>
		<g opacity="0.1" clip-path="url(#SVGID_4_)" enable-background="new    ">
			<g>
				<defs>
					<rect id="SVGID_7_" x="184.756" y="128.173" width="717.807" height="434.022"/>
				</defs>
				<clipPath id="SVGID_8_">
					<use xlink:href="#SVGID_7_"  overflow="visible"/>
				</clipPath>
				<g clip-path="url(#SVGID_8_)">
					<defs>
						<rect id="SVGID_9_" x="184.756" y="128.173" width="717.807" height="434.022"/>
					</defs>
					<clipPath id="SVGID_10_">
						<use xlink:href="#SVGID_9_"  overflow="visible"/>
					</clipPath>
					<g clip-path="url(#SVGID_10_)">
						
							<image overflow="visible" width="602" height="364" xlink:href="DD673C3AE46F0B27.png"  transform="matrix(1.1924 0 0 1.1924 184.7563 128.1729)">
						</image>
					</g>
				</g>
			</g>
		</g>
		<path clip-path="url(#SVGID_4_)" fill="#2F3541" d="M859.817,517.362c0,4.926-3.661,8.917-8.169,8.917H223.269
			c-4.518,0-8.167-3.991-8.167-8.917v-344.01c0-4.926,3.649-8.919,8.167-8.919h628.379c4.508,0,8.169,3.993,8.169,8.919V517.362z"/>
		<rect x="242.395" y="298.097" clip-path="url(#SVGID_4_)" fill="#EF4550" width="135.907" height="198.971"/>
		<path clip-path="url(#SVGID_4_)" fill="#EF6A77" d="M257.908,315.423H362.67c4.576,0,8.287,3.71,8.287,8.287v27.031
			c0,4.576-3.711,8.288-8.287,8.288H257.908c-4.576,0-8.287-3.711-8.287-8.288V323.71
			C249.621,319.133,253.332,315.423,257.908,315.423"/>
		<path clip-path="url(#SVGID_4_)" fill="#EF4550" d="M307.57,328.646h-0.179h-51.356c-0.058,0.017-0.12,0.017-0.179,0v-1.908h0.179
			h51.344h0.179L307.57,328.646z"/>
		<polygon clip-path="url(#SVGID_4_)" fill="#ED8594" points="328.056,341.714 327.805,341.714 255.989,341.714 255.738,341.714 
			255.738,339.568 255.989,339.568 327.841,339.568 328.091,339.568 		"/>
		<path clip-path="url(#SVGID_4_)" fill="#ED8594" d="M361.525,347.986h-0.357h-105.06c-0.122,0.025-0.248,0.025-0.37,0v-2.146
			c0.122-0.025,0.248-0.025,0.37,0h105.12h0.357L361.525,347.986z"/>
		<path clip-path="url(#SVGID_4_)" fill="#EF6A77" d="M258.242,375.983h104.762c4.577,0,8.287,3.71,8.287,8.287v27.031
			c0,4.576-3.71,8.287-8.287,8.287H258.242c-4.576,0-8.287-3.711-8.287-8.287v-27.031
			C249.955,379.693,253.666,375.983,258.242,375.983"/>
		<path clip-path="url(#SVGID_4_)" fill="#EF4550" d="M307.892,389.207h-0.179H256.37c-0.059,0.017-0.121,0.017-0.179,0v-1.907
			h0.179h51.343h0.179V389.207z"/>
		<polygon clip-path="url(#SVGID_4_)" fill="#ED8594" points="328.389,402.274 328.139,402.274 256.298,402.274 256.048,402.274 
			256.048,400.129 256.298,400.129 328.115,400.129 328.365,400.129 		"/>
		<path clip-path="url(#SVGID_4_)" fill="#ED8594" d="M361.859,408.547h-0.358h-105.06c-0.122,0.023-0.248,0.023-0.37,0V406.4
			c0.122-0.025,0.248-0.025,0.37,0h105.06h0.358V408.547z"/>
		<path clip-path="url(#SVGID_4_)" fill="#EF6A77" d="M258.826,436.734h104.762c4.576,0,8.287,3.71,8.287,8.287v27.031
			c0,4.576-3.711,8.285-8.287,8.285H258.826c-4.576,0-8.287-3.709-8.287-8.285v-27.031
			C250.539,440.444,254.25,436.734,258.826,436.734"/>
		<path clip-path="url(#SVGID_4_)" fill="#EF4550" d="M308.476,449.958c-0.058,0.017-0.12,0.017-0.179,0h-51.343
			c-0.059,0.017-0.121,0.017-0.179,0v-1.908h0.179h51.343h0.179V449.958z"/>
		<polygon clip-path="url(#SVGID_4_)" fill="#ED8594" points="329.033,463.026 328.783,463.026 256.906,463.026 256.656,463.026 
			256.656,460.844 256.906,460.844 328.723,460.844 328.974,460.844 		"/>
		<path clip-path="url(#SVGID_4_)" fill="#ED8594" d="M362.419,469.297h-0.357H257.025c-0.122,0.026-0.248,0.026-0.37,0v-2.145
			c0.122-0.026,0.248-0.026,0.37,0h105.06h0.358L362.419,469.297z"/>
		<g clip-path="url(#SVGID_4_)" enable-background="new    ">
			<g>
				<defs>
					<rect id="SVGID_11_" x="458.31" y="198.374" width="146.838" height="16"/>
				</defs>
				<clipPath id="SVGID_12_">
					<use xlink:href="#SVGID_11_"  overflow="visible"/>
				</clipPath>
				<g clip-path="url(#SVGID_12_)">
					
						<text transform="matrix(1.07 0 0 1 458.3096 210.4106)" fill="#FFFFFF" font-family="'OpenSans-Semibold'" font-size="14.0461">&lt;YOUR LOGO HERE&gt;</text>
				</g>
			</g>
		</g>
		<path clip-path="url(#SVGID_4_)" fill="#465060" d="M599.951,251.953c0,0.096-0.202,0.167-0.453,0.167H467.837
			c-0.25,0-0.454-0.072-0.454-0.167v-9.312c0-0.095,0.204-0.167,0.454-0.167h131.661c0.251,0,0.453,0.071,0.453,0.167V251.953z"/>
		<path clip-path="url(#SVGID_4_)" fill="#35C0CE" d="M491.958,283.789c-0.032,0.797-0.703,1.416-1.5,1.383h-0.002h-21.307
			c-0.793,0.027-1.458-0.59-1.491-1.383v-19.686c0.032-0.792,0.698-1.41,1.491-1.383h21.307c0.796-0.033,1.469,0.584,1.502,1.381
			v0.002V283.789z"/>
		<rect x="467.383" y="223.682" clip-path="url(#SVGID_4_)" fill="#617087" width="132.568" height="10.397"/>
		<path clip-path="url(#SVGID_4_)" fill="#35C0CE" d="M527.086,283.789c-0.032,0.793-0.698,1.411-1.491,1.383h-21.284
			c-0.793,0.027-1.458-0.59-1.491-1.383v-19.686c0.032-0.792,0.698-1.41,1.491-1.383h21.319c0.779-0.007,1.423,0.605,1.455,1.383
			V283.789z"/>
		<path clip-path="url(#SVGID_4_)" fill="#35C0CE" d="M563.775,283.789c-0.033,0.793-0.697,1.411-1.49,1.383h-21.309
			c-0.797,0.033-1.469-0.584-1.502-1.381v-0.002v-19.686c0.032-0.796,0.703-1.416,1.5-1.383h0.002h21.309
			c0.793-0.026,1.457,0.591,1.49,1.383V283.789z"/>
		<path clip-path="url(#SVGID_4_)" fill="#35C0CE" d="M599.951,283.789c-0.038,0.795-0.708,1.411-1.502,1.383h-21.308
			c-0.793,0.027-1.458-0.59-1.491-1.383v-19.686c0.033-0.792,0.698-1.41,1.491-1.383h21.367c0.794-0.026,1.464,0.589,1.502,1.383
			L599.951,283.789z"/>
		<rect x="404.343" y="298.097" clip-path="url(#SVGID_4_)" fill="#465060" width="432.915" height="198.971"/>
		<rect x="404.343" y="298.097" clip-path="url(#SVGID_4_)" fill="#617087" width="432.915" height="10.398"/>
		<polygon clip-path="url(#SVGID_4_)" fill="#617087" points="740.794,323.781 819.324,323.781 819.324,391.996 422.264,391.996 
			422.264,323.781 		"/>
		<polygon clip-path="url(#SVGID_4_)" fill="#77879E" points="572.443,351.742 572.158,351.742 485.984,351.742 485.686,351.742 
			485.686,349.596 485.984,349.596 572.158,349.596 572.443,349.596 		"/>
		<path clip-path="url(#SVGID_4_)" fill="#77879E" d="M612.603,356.703c-0.142,0.029-0.287,0.029-0.43,0H486.128
			c-0.146,0.027-0.296,0.027-0.441,0v-2.146c0.147-0.018,0.294-0.018,0.441,0h126.044c0.143-0.019,0.287-0.019,0.43,0V356.703z"/>
		<polygon clip-path="url(#SVGID_4_)" fill="#77879E" points="572.443,363.07 572.158,363.07 485.984,363.07 485.686,363.07 
			485.686,360.924 485.984,360.924 572.158,360.924 572.443,360.924 		"/>
		<path clip-path="url(#SVGID_4_)" fill="#77879E" d="M612.007,367.935c-0.144,0.019-0.288,0.019-0.43,0H486.128
			c-0.147,0.019-0.294,0.019-0.441,0v-2.146c0.146-0.028,0.296-0.028,0.441,0h125.497c0.142-0.03,0.287-0.03,0.43,0L612.007,367.935
			z"/>
		<path clip-path="url(#SVGID_4_)" fill="#465060" d="M485.758,378.845h21.593c0.04,0,0.072,0.032,0.072,0.072v3.85
			c0,0.04-0.032,0.072-0.072,0.072h-21.593c-0.04,0-0.072-0.033-0.072-0.072v-3.85C485.687,378.877,485.719,378.845,485.758,378.845
			"/>
		<path clip-path="url(#SVGID_4_)" fill="#465060" d="M550.623,382.755c0,0,0,0.084-0.119,0.084h-33.685
			c-0.053,0.007-0.101-0.03-0.106-0.082c-0.001-0.001-0.001-0.001-0.001-0.002v-3.839c0,0,0-0.071,0.107-0.071h33.685
			c0.071,0,0.119,0,0.119,0.071V382.755z"/>
		<path clip-path="url(#SVGID_4_)" fill="#465060" d="M450.917,339.962c11.154,0,20.199,8.445,20.199,18.863
			c0,10.417-9.044,18.863-20.199,18.863c-11.156,0-20.199-8.446-20.199-18.863C430.719,348.407,439.762,339.962,450.917,339.962"/>
		<path clip-path="url(#SVGID_4_)" fill="#77879E" d="M445.468,370.224l-5.485,2.79c-0.311,0.165-0.607,0.362-0.882,0.584
			c6.951,5.368,16.644,5.391,23.621,0.059c-0.299-0.236-0.623-0.44-0.966-0.608l-5.878-2.742c-0.724-0.343-1.188-1.071-1.192-1.872
			v-2.158c0.203-0.209,0.39-0.432,0.561-0.668c0.788-1.04,1.403-2.2,1.824-3.434c0.754-0.195,1.289-0.866,1.312-1.645v-2.23
			c-0.006-0.496-0.234-0.965-0.62-1.276v-3.315c0,0,0.727-5.175-6.761-5.175c-7.488,0-6.773,5.175-6.773,5.175v3.315
			c-0.386,0.311-0.613,0.78-0.62,1.276v2.301c0.012,0.602,0.337,1.154,0.858,1.456c0.416,1.576,1.173,3.042,2.218,4.292v2.099
			C446.641,369.22,446.172,369.905,445.468,370.224"/>
		<path clip-path="url(#SVGID_4_)" fill="#465060" d="M540.297,338.328c0,0-0.082,0.072-0.19,0.072h-54.229
			c-0.107,0-0.19,0-0.19-0.072v-3.875c0,0,0.083-0.072,0.19-0.072h54.205c0.108,0,0.191,0,0.191,0.072L540.297,338.328z"/>
		<rect x="422.264" y="408.582" clip-path="url(#SVGID_4_)" fill="#617087" width="397.072" height="68.229"/>
		<polygon clip-path="url(#SVGID_4_)" fill="#77879E" points="572.443,436.544 572.158,436.544 485.984,436.544 485.686,436.544 
			485.686,434.409 485.984,434.409 572.158,434.409 572.443,434.409 		"/>
		<path clip-path="url(#SVGID_4_)" fill="#77879E" d="M612.603,441.516c-0.142,0.024-0.287,0.024-0.43,0H486.128
			c-0.147,0.024-0.296,0.024-0.441,0v-2.134c0.146-0.026,0.294-0.026,0.441,0h126.044c0.143-0.026,0.288-0.026,0.43,0V441.516z"/>
		<polygon clip-path="url(#SVGID_4_)" fill="#77879E" points="572.443,447.871 572.158,447.871 485.984,447.871 485.686,447.871 
			485.686,445.726 485.984,445.726 572.158,445.726 572.443,445.726 		"/>
		<path clip-path="url(#SVGID_4_)" fill="#77879E" d="M612.007,452.736c-0.143,0.029-0.288,0.029-0.43,0H486.128
			c-0.146,0.026-0.296,0.026-0.441,0v-2.146c0.147-0.019,0.294-0.019,0.441,0h125.497c0.142-0.02,0.286-0.02,0.43,0L612.007,452.736
			z"/>
		<path clip-path="url(#SVGID_4_)" fill="#465060" d="M485.758,463.658h21.593c0.04,0,0.072,0.032,0.072,0.072v3.851
			c0,0.039-0.032,0.072-0.072,0.072h-21.593c-0.04,0-0.072-0.033-0.072-0.072v-3.851
			C485.687,463.69,485.719,463.658,485.758,463.658"/>
		<path clip-path="url(#SVGID_4_)" fill="#465060" d="M550.623,467.569c0,0,0,0.072-0.119,0.072h-33.685c0,0-0.107,0-0.107-0.072
			v-3.84c0,0,0-0.071,0.107-0.071h33.685c0.071,0,0.119,0,0.119,0.071V467.569z"/>
		<path clip-path="url(#SVGID_4_)" fill="#465060" d="M450.917,424.775c11.154,0,20.199,8.445,20.199,18.863
			s-9.044,18.862-20.199,18.862c-11.156,0-20.199-8.444-20.199-18.862S439.762,424.775,450.917,424.775"/>
		<path clip-path="url(#SVGID_4_)" fill="#77879E" d="M445.468,455.073l-5.485,2.802c-0.311,0.168-0.607,0.362-0.882,0.584
			c6.951,5.368,16.644,5.393,23.621,0.06c-0.296-0.239-0.62-0.444-0.966-0.607l-5.878-2.742c-0.724-0.344-1.188-1.071-1.192-1.873
			v-2.157c0.167-0.18,0.357-0.406,0.561-0.668c0.788-1.045,1.403-2.208,1.824-3.446c0.752-0.19,1.288-0.857,1.312-1.634v-2.301
			c-0.006-0.497-0.234-0.964-0.62-1.275v-3.327c0,0,0.727-5.175-6.761-5.175c-7.488,0-6.773,5.175-6.773,5.175v3.279
			c-0.386,0.312-0.613,0.778-0.62,1.275v2.302c0.01,0.598,0.337,1.147,0.858,1.442c0.414,1.58,1.171,3.051,2.218,4.305v2.099
			C446.685,454.002,446.209,454.739,445.468,455.073"/>
		<path clip-path="url(#SVGID_4_)" fill="#465060" d="M540.297,423.142c0,0-0.082,0.073-0.19,0.073h-54.229
			c-0.107,0-0.19,0-0.19-0.073v-3.85c0,0,0.083-0.073,0.19-0.073h54.205c0.108,0,0.191,0,0.191,0.073L540.297,423.142z"/>
		<rect x="709.292" y="175.26" clip-path="url(#SVGID_4_)" fill="#465060" width="48.17" height="10.397"/>
		<path clip-path="url(#SVGID_4_)" fill="#465060" d="M841.657,174.115c3.865,0,6.999,2.926,6.999,6.534
			c0,3.609-3.134,6.534-6.999,6.534c-3.866,0-7-2.925-7-6.534C834.657,177.041,837.791,174.115,841.657,174.115"/>
		<rect x="771.748" y="175.26" clip-path="url(#SVGID_4_)" fill="#465060" width="48.173" height="10.397"/>
		<path clip-path="url(#SVGID_4_)" fill="#465060" d="M499.423,271.436c0.007,0.139-0.099,0.255-0.238,0.263h-0.001h-3.47
			c-0.141-0.006-0.25-0.122-0.25-0.263v-3.649c0-0.141,0.109-0.255,0.25-0.262h3.47c0.138,0.007,0.244,0.124,0.239,0.261v0.001
			V271.436z"/>
		<path clip-path="url(#SVGID_4_)" fill="#465060" d="M499.423,280.093c0.007,0.139-0.099,0.255-0.238,0.263h-0.001h-3.47
			c-0.141-0.008-0.25-0.122-0.25-0.263v-3.648c0-0.141,0.109-0.256,0.25-0.262h3.47c0.138,0.006,0.244,0.124,0.239,0.261v0.001
			V280.093z"/>
		<path clip-path="url(#SVGID_4_)" fill="#465060" d="M535.635,271.436c0.008,0.139-0.099,0.255-0.238,0.263h-3.47
			c-0.138-0.006-0.244-0.124-0.238-0.263v-3.649c-0.007-0.138,0.1-0.255,0.238-0.262h3.47c0.139,0.007,0.244,0.124,0.238,0.261
			v0.001V271.436z"/>
		<path clip-path="url(#SVGID_4_)" fill="#465060" d="M535.635,280.093c0.008,0.139-0.099,0.255-0.238,0.263h-3.47
			c-0.138-0.008-0.244-0.124-0.238-0.263v-3.648c-0.007-0.138,0.1-0.255,0.238-0.262h3.47c0.139,0.006,0.244,0.124,0.238,0.261
			v0.001V280.093z"/>
		<path clip-path="url(#SVGID_4_)" fill="#465060" d="M571.717,271.436c0,0.141-0.111,0.256-0.25,0.263h-3.459
			c-0.14,0-0.25-0.113-0.25-0.25v-0.012v-3.649c-0.008-0.138,0.1-0.255,0.238-0.262h0.012h3.459c0.139,0.007,0.25,0.121,0.25,0.262
			V271.436z"/>
		<path clip-path="url(#SVGID_4_)" fill="#465060" d="M571.717,280.093c0,0.141-0.111,0.255-0.25,0.263h-3.459
			c-0.14,0-0.25-0.112-0.25-0.25v-0.012v-3.648c-0.008-0.138,0.1-0.255,0.238-0.262c0.004,0,0.008,0,0.012,0h3.459
			c0.139,0.006,0.25,0.122,0.25,0.262V280.093z"/>
		<path clip-path="url(#SVGID_4_)" fill="#F6E439" d="M235.015,174.771c-3.8-0.222-7.059,2.681-7.28,6.481
			c-0.222,3.8,2.681,7.059,6.479,7.28c0.112,0.006,0.224,0.009,0.335,0.011c-0.162-0.123-0.262-0.31-0.274-0.512
			c-0.388,0.013-0.714-0.292-0.727-0.679v-0.001v-1.3c-0.005-0.379-0.221-0.725-0.561-0.894c-1.363-0.666-2.214-2.062-2.182-3.577
			c0.15-2.085,1.846-3.724,3.935-3.804c1.151-0.074,2.286,0.308,3.16,1.062c1.591,1.372,1.768,3.774,0.397,5.364
			c-0.347,0.403-0.775,0.729-1.255,0.955c-0.339,0.169-0.556,0.515-0.561,0.894v1.3c-0.013,0.388-0.337,0.693-0.726,0.681
			c-0.003-0.001-0.009-0.001-0.013-0.001c-0.001,0.205-0.104,0.398-0.274,0.512c3.806-0.029,6.87-3.137,6.841-6.943
			c-0.029-3.806-3.138-6.87-6.944-6.84C235.248,174.76,235.131,174.764,235.015,174.771"/>
		<path clip-path="url(#SVGID_4_)" fill="#F6E439" d="M235.957,182.902c-0.265-0.003-0.515-0.125-0.68-0.333
			c-0.119-0.131-0.155-0.167-0.262-0.167c-0.107,0-0.155,0-0.274,0.167c-0.29,0.375-0.829,0.445-1.205,0.155
			c-0.058-0.044-0.111-0.097-0.155-0.155c-0.12-0.131-0.167-0.167-0.274-0.167c-0.142,0.031-0.281-0.06-0.312-0.2
			c-0.03-0.142,0.06-0.281,0.202-0.313c0.035-0.007,0.074-0.007,0.11,0c0.269-0.001,0.522,0.128,0.68,0.346
			c0.119,0.119,0.167,0.167,0.274,0.167s0.155,0,0.274-0.167c0.157-0.218,0.41-0.347,0.68-0.346
			c0.267,0.009,0.516,0.135,0.679,0.346c0.12,0.119,0.167,0.167,0.263,0.167c0.095,0,0.155,0,0.274-0.167
			c0.161-0.213,0.413-0.341,0.68-0.346c0.142-0.029,0.282,0.06,0.312,0.2c0.03,0.143-0.059,0.282-0.2,0.313
			c-0.037,0.008-0.075,0.008-0.112,0c-0.107,0-0.155,0-0.274,0.167C236.474,182.778,236.223,182.902,235.957,182.902"/>
		<path clip-path="url(#SVGID_4_)" fill="#FFFFFF" d="M236.338,185.907L236.338,185.907c-0.094-0.018-0.157-0.107-0.143-0.203
			l0.918-3.947c0.034-0.088,0.122-0.143,0.215-0.131c0.092,0.01,0.157,0.094,0.146,0.185c-0.001,0.006-0.002,0.012-0.003,0.018
			l-0.918,3.947C236.53,185.872,236.433,185.93,236.338,185.907"/>
		<path clip-path="url(#SVGID_4_)" fill="#FFFFFF" d="M233.644,185.907c-0.081-0.001-0.153-0.054-0.179-0.131l-0.918-3.947
			c-0.021-0.099,0.044-0.195,0.143-0.215c0.099-0.021,0.194,0.044,0.214,0.143l0.918,3.947c0.021,0.09-0.033,0.18-0.124,0.202
			c-0.002,0-0.005,0.001-0.007,0.001H233.644z"/>
		<path clip-path="url(#SVGID_4_)" fill="#EFBFA5" d="M349.136,463.11c-0.768-0.334-1.346-0.995-1.574-1.802
			c-0.763-2.205-0.334-5.27-0.942-7.642c-1.515-1.192-3.875-0.525-5.139,0.917c-1.152,1.554-1.806,3.421-1.872,5.354
			c-0.393,3.576-0.267,7.19,0.369,10.73c0.057,0.476,0.207,0.932,0.441,1.349c0.727,1.12,2.385,1.192,3.22,2.324
			c0.644,0.871,0.512,2.156,1.192,3.029c0.679,0.869,2.253,1.098,3.577,1.037c3.052-0.156,8.012,0.167,7.595-4.234
			c-0.215-2.277-3.339-7.57-4.698-9.432C350.76,463.996,350.005,463.428,349.136,463.11"/>
		<path clip-path="url(#SVGID_4_)" fill="#8CABEF" d="M358.842,474.854c-6.049-1.741-12.452-1.844-18.553-0.298
			c-0.501,32.839,5.258,65.401,11.005,97.774c0.107,1.167,0.519,2.285,1.192,3.244c0.747,0.75,1.662,1.312,2.671,1.633
			c10.353,4.154,21.217,6.902,32.301,8.169c5.39,0.62,9.837-27.95,9.265-31.516c-1.944-12.21-13.617-2.385-20.879-5.615
			c-6.069-2.694-8.43-28.261-9.896-35.331C363.317,500.275,360.949,487.588,358.842,474.854"/>
		<path clip-path="url(#SVGID_4_)" fill="#EFBFA5" d="M501.927,472.519c0.821-0.168,1.52-0.706,1.896-1.456
			c1.192-2.015,1.383-5.092,2.385-7.297c1.729-0.858,3.912,0.25,4.865,1.919c0.815,1.757,1.082,3.718,0.763,5.63
			c-0.326,3.569-1.165,7.077-2.493,10.407c-0.155,0.44-0.393,0.846-0.703,1.192c-0.942,0.967-2.635,0.74-3.577,1.635
			c-0.811,0.738-0.918,2.015-1.729,2.755c-0.811,0.738-2.385,0.62-3.673,0.298c-2.969-0.752-7.894-1.432-6.605-5.651
			c0.655-2.194,4.77-6.761,6.475-8.347C500.212,473.023,501.042,472.646,501.927,472.519"/>
		<path clip-path="url(#SVGID_4_)" fill="#8CABEF" d="M490.062,482.08c6.275-0.493,12.57,0.685,18.243,3.41
			c-6.058,32.277-18.195,63.041-30.263,93.589c-0.33,1.12-0.951,2.134-1.8,2.935c-0.88,0.592-1.89,0.959-2.945,1.071
			c-10.967,2.019-22.156,2.562-33.267,1.611c-5.414-0.466-4.078-29.346-2.814-32.731c4.34-11.577,13.831,0.37,21.582-1.347
			c6.486-1.432,13.892-26.006,16.693-32.647C480.627,506.119,485.484,494.155,490.062,482.08"/>
		<path clip-path="url(#SVGID_4_)" fill="#B97262" d="M777.961,351.063l7.834-8.704c0.811-0.907,2.587-3.852,3.994-2.731
			c0.691,0.549,3.147,2.183,5.521,3.971c2.385,0.691,4.77,1.479,7.154,1.944c6.141,1.192,20.485-3.577,22.857,4.626
			c0.55,1.569,0.816,3.226,0.787,4.889c-0.176,1.353-0.579,2.667-1.192,3.887c-0.43,0.965-0.87,2.612-1.825,2.981
			c-0.953,0.369-3.576-0.417-4.77-0.548l-9.455-1.109c-3.1-0.358-6.771-0.489-8.715,1.943c-0.357,0.574-0.756,1.119-1.192,1.634
			c-0.591,0.5-1.282,0.865-2.027,1.073c-2.678,0.951-5.453,1.589-8.276,1.908c-2.575,0.237-3.707-1.443-5.521-2.994
			c-2.134-1.824-4.853-1.932-6.988-3.684c-1.276-0.94-1.965-2.486-1.811-4.066c0.329-1.223,0.994-2.33,1.92-3.195L777.961,351.063z"
			/>
		<path clip-path="url(#SVGID_4_)" fill="#EFBFA5" d="M892.034,361.807c-6.157,3.812-13.076,6.226-20.27,7.07
			c-19.584,2.75-39.476,2.436-58.963-0.931c-1.262-9.231-0.682-18.62,1.705-27.627c16.194-0.943,32.286-3.18,48.124-6.688
			c7.762-1.717,14.308-4.543,17.885-12.15c7.827-16.94,14.376-34.442,19.591-52.357c1.192-3.958,2.277-8.037,4.65-11.4
			c4.364-6.175,12.557-9.001,20.045-7.964c7.487,1.037,14.213,5.521,19.077,11.292c3.494,4.137,6.236,9.168,6.475,14.582
			c0.238,5.605-2.171,10.947-4.698,15.954c-11.294,22.361-25.75,42.979-42.926,61.218
			C899.558,356.243,895.965,359.268,892.034,361.807"/>
		<path clip-path="url(#SVGID_4_)" fill="#EFBFA5" d="M586.74,157.314c0.503,0.058,0.984,0.233,1.406,0.513
			c1.192,0.871,0.823,2.671,1.192,4.113c0.244,0.903,0.648,1.755,1.192,2.516l2.553,4.103c0.128,0.238,0.308,0.446,0.523,0.608
			c0.224,0.106,0.469,0.158,0.717,0.155c2.568,0.274,5.141-0.48,7.153-2.099c1.755-1.822,2.768-4.233,2.838-6.76
			c0.128-1.593,0.048-3.197-0.238-4.77c-0.064-0.498-0.239-0.975-0.513-1.395c-0.261-0.317-0.58-0.581-0.941-0.775
			c-2.21-1.338-4.684-2.184-7.25-2.48c-1.459-0.039-2.905-0.287-4.293-0.739c-0.923-0.444-1.784-1.005-2.563-1.669
			c-1.64-1.235-3.378-2.332-5.199-3.279c-0.357-0.191-1.932,7.989-1.968,8.728C581.16,157.493,583.95,156.79,586.74,157.314"/>
		<path clip-path="url(#SVGID_4_)" fill="#F492AC" d="M501.605,108.964c-2.051-0.215-4.078-0.381-6.082-0.465
			c-2.201-0.228-4.426-0.062-6.569,0.489c-1.973,0.702-3.781,1.798-5.318,3.22c-6.916,5.902-14.368,17.456-6.344,25.111
			c2.385,2.289,5.688,3.387,8.871,4.305c8.824,2.527,17.886,4.197,26.876,5.854l72.353,13.355l4.65-15.096
			c1.264-4.113-32.814-20.091-36.737-21.785C537.697,117.191,519.001,110.859,501.605,108.964"/>
		<path clip-path="url(#SVGID_4_)" fill="#EFBFA5" d="M411.545,553.623l20.031,1.956c1.027-5.913,1.633-11.889,1.812-17.886
			c5.831-1.016,12.675-2.923,14.678-9.146c0.533-2.02,0.763-4.104,0.68-6.19c0.071-8.623,0.146-17.252,0.227-25.885
			c0.199-2.977-0.129-5.962-0.966-8.824c-1.741-4.865-6.2-7.773-10.576-9.6c-11.161-4.674-24.181-4.506-34.496,2.087
			c-2.898,1.709-5.29,4.157-6.928,7.096c-2.444,4.77-2.146,10.587-1.776,16.049c0.333,5.058,0.675,10.106,1.025,15.155
			c0.382,5.807,1.192,12.497,5.64,15.56c2.385,1.635,5.378,1.944,7.393,4.055C411.867,541.76,410.233,548.364,411.545,553.623"/>
		<path clip-path="url(#SVGID_4_)" fill="#96620F" d="M425.114,532.505c1.868,0.023,3.726-0.287,5.485-0.918
			c3.745-1.372,6.57-4.269,9.253-7.059c5.191-5.284,9.656-11.239,13.271-17.706c3.863-7.227,1.883-15.608,4.638-23.145
			c2.385-6.653,8.347-12.173,9.169-19.161c-2.879,1.161-5.927,1.851-9.026,2.039c2.211-2.153,3.444-5.117,3.41-8.203
			c-3.625,2.785-7.643,5.015-11.924,6.617c1.338-1.378,1.846-3.359,1.336-5.211c-2.742,4.007-8.264,5.641-13.391,5.736
			c-5.127,0.094-10.159-1.074-15.298-1.074c-10.64-0.083-20.812,4.366-27.973,12.233c-5.544,6.213-7.07,11.327-7.226,19.544
			c-0.095,5.14-0.167,10.433,1.825,15.237c3.792,9.183,14.058,14.453,23.848,18.184
			C416.541,531.098,420.846,532.505,425.114,532.505"/>
		<path clip-path="url(#SVGID_4_)" fill="#93790D" d="M855.631,178.098c-0.974-1.515-2.048-2.961-3.218-4.328
			c-2.541-2.946-5.629-5.45-7.703-8.74c-2.075-3.291-2.898-7.81-0.621-10.97c1.467-2.039,3.912-3.1,6.297-3.887
			c7.911-2.574,16.367-2.984,24.491-1.192c7.69,1.717,14.606,4.77,22.202,1.634c7.154-2.91,12.387-1.968,20.007,0.5
			c8.251,2.67,19.232,3.041,26.746,6.928c3.105,1.721,5.742,4.177,7.678,7.154c6.966,10.417,7.401,23.889,1.121,34.733
			c-1.446,2.337-3.094,4.543-4.924,6.594c-3.721,4.292-8.181,9.539-13.427,11.292c-0.263-4.77,3.576-19.817-0.143-23.585
			c-5.962-5.962-18.96-3.458-26.077-1.729c-7.764,1.884-14.571,7.631-22.286,9.038c-5.545,1.025-12.746-1.502-17.576-4.245
			C862.25,193.908,859.221,183.618,855.631,178.098"/>
	</g>
</g>
</svg>
