<?xml version="1.0" encoding="utf-8"?>
<!-- Generator: Adobe Illustrator 16.0.0, SVG Export Plug-In . SVG Version: 6.00 Build 0)  -->
<!DOCTYPE svg PUBLIC "-//W3C//DTD SVG 1.1//EN" "http://www.w3.org/Graphics/SVG/1.1/DTD/svg11.dtd">
<svg version="1.1" id="Capa_1" xmlns="http://www.w3.org/2000/svg" xmlns:xlink="http://www.w3.org/1999/xlink" x="0px" y="0px"
	 width="1000px" height="1000px" viewBox="0 0 1000 1000" enable-background="new 0 0 1000 1000" xml:space="preserve">
<g>
	<g>
		<linearGradient id="SVGID_1_" gradientUnits="userSpaceOnUse" x1="75.5557" y1="831.8848" x2="984.1939" y2="501.1675">
			<stop  offset="0" style="stop-color:#35C0CE"/>
			<stop  offset="0.2858" style="stop-color:#38C0CC"/>
			<stop  offset="0.5335" style="stop-color:#43C2C8"/>
			<stop  offset="0.7667" style="stop-color:#55C4C0"/>
			<stop  offset="0.9903" style="stop-color:#6EC7B5"/>
			<stop  offset="1" style="stop-color:#6FC7B4"/>
		</linearGradient>
		<path fill="url(#SVGID_1_)" d="M968.719,493.336c-33.436-27.557-86.283-29.92-120.969,7.305l-86.107,92.436
			c-11.133-35.779-44.549-61.832-83.939-61.832H524.041c-11.66,0-15.564-4.453-35.818-20.057
			c-77.223-67.32-193.211-67.105-270.199,0.645l-56.48,49.723c-25.389-13.438-55.035-13.77-80.562-1.016L16.199,592.92
			c-14.473,7.246-20.33,24.842-13.105,39.314l175.771,351.541c7.246,14.473,24.842,20.33,39.314,13.105l64.781-32.4
			c31.932-15.955,49.703-48.533,48.551-81.693h346.189c64.195,0,125.539-30.662,164.053-82.025l140.637-187.527
			C1009.674,576.887,1005.357,523.588,968.719,493.336z M256.75,912.08l-38.572,19.295L68.598,632.234l38.592-19.295
			c14.473-7.227,32.049-1.387,39.295,13.105l123.371,246.742C277.082,887.258,271.223,904.834,256.75,912.08z M935.518,578.078
			L794.883,765.605c-27.518,36.697-71.324,58.59-117.18,58.59H311.064L201.285,604.619l55.445-48.805
			c55.172-48.533,138.371-48.533,193.543,0c32.498,28.611,52.711,34.021,73.766,34.021h153.662
			c16.152,0,29.295,13.145,29.295,29.295s-13.145,29.295-29.295,29.295H528.082c-16.172,0-29.295,13.125-29.295,29.295
			s13.125,29.295,29.295,29.295H697.33c24.314,0,47.752-10.195,64.312-27.986L890.619,540.58
			c11.797-12.656,29.881-11.602,40.975-1.895C943.193,548.84,944.445,566.203,935.518,578.078z"/>
	</g>
</g>
<g>
	<g>
		<linearGradient id="SVGID_2_" gradientUnits="userSpaceOnUse" x1="323.1938" y1="316.6738" x2="677.3841" y2="187.7591">
			<stop  offset="0" style="stop-color:#35C0CE"/>
			<stop  offset="0.2858" style="stop-color:#38C0CC"/>
			<stop  offset="0.5335" style="stop-color:#43C2C8"/>
			<stop  offset="0.7667" style="stop-color:#55C4C0"/>
			<stop  offset="0.9903" style="stop-color:#6EC7B5"/>
			<stop  offset="1" style="stop-color:#6FC7B4"/>
		</linearGradient>
		<path fill="url(#SVGID_2_)" d="M615.986,209.936c20.057-21.033,32.42-49.469,32.42-80.777c0-64.488-52.105-119.133-117.18-119.133
			c-64.586,0-119.133,54.547-119.133,119.133c0,30.35,11.895,59,33.494,81.012c-53.57,30.037-92.084,87.689-92.084,155.303v29.295
			c0,16.17,13.125,29.295,29.295,29.295h294.904c16.17,0,29.295-13.125,29.295-29.295v-29.295
			C706.996,299.188,670.537,240.637,615.986,209.936z M531.227,68.617c31.756,0,58.59,27.732,58.59,60.543
			c0,32.303-26.287,58.59-58.59,58.59c-32.811,0-60.543-26.834-60.543-58.59C470.684,96.916,498.982,68.617,531.227,68.617z
			 M412.094,365.473c0-64.586,54.547-119.133,119.133-119.133c64.605,0,117.18,53.434,117.18,119.133H412.094z"/>
	</g>
</g>
</svg>
