<?xml version="1.0" encoding="utf-8"?>
<!-- Generator: Adobe Illustrator 16.0.0, SVG Export Plug-In . SVG Version: 6.00 Build 0)  -->
<!DOCTYPE svg PUBLIC "-//W3C//DTD SVG 1.1//EN" "http://www.w3.org/Graphics/SVG/1.1/DTD/svg11.dtd">
<svg version="1.1" id="Capa_1" xmlns="http://www.w3.org/2000/svg" xmlns:xlink="http://www.w3.org/1999/xlink" x="0px" y="0px"
	 width="1000px" height="1000px" viewBox="0 0 1000 1000" enable-background="new 0 0 1000 1000" xml:space="preserve">
<path fill="#7D8693" d="M500,119.141c-210.354,0-380.859,170.506-380.859,380.859c0,210.35,170.506,380.859,380.859,380.859
	S880.859,710.35,880.859,500C880.859,289.646,710.354,119.141,500,119.141z M500,822.266
	c-178.123,0-322.266-144.143-322.266-322.266c0-178.127,144.143-322.266,322.266-322.266S822.266,321.873,822.266,500
	C822.266,678.123,678.123,822.266,500,822.266z"/>
<path fill="#505D6D" d="M880.859,500c0,210.35-170.506,380.859-380.859,380.859v-58.594c178.123,0,322.266-144.143,322.266-322.266
	c0-178.127-144.143-322.266-322.266-322.266v-58.594C710.354,119.141,880.859,289.646,880.859,500z"/>
<path fill="#40596B" d="M970.703,1000H619.141c-16.193,0-29.297-13.104-29.297-29.297v-58.594
	c0-113.068,92.01-205.078,205.078-205.078S1000,799.041,1000,912.109v58.594C1000,986.896,986.896,1000,970.703,1000z"/>
<path fill="#334A5E" d="M970.703,1000c16.193,0,29.297-13.104,29.297-29.297v-58.594c0-113.068-92.01-205.078-205.078-205.078V1000
	H970.703z"/>
<path fill="#FFD15C" d="M794.922,765.625c-80.768,0-146.484-65.717-146.484-146.484s65.717-146.484,146.484-146.484
	s146.484,65.717,146.484,146.484S875.689,765.625,794.922,765.625z"/>
<path fill="#EFB32E" d="M941.406,619.141c0-80.768-65.717-146.484-146.484-146.484v292.969
	C875.689,765.625,941.406,699.908,941.406,619.141z"/>
<path fill="#40596B" d="M380.859,527.344H29.297C13.104,527.344,0,514.24,0,498.047v-58.594
	c0-113.068,92.01-205.078,205.078-205.078s205.078,92.01,205.078,205.078v58.594C410.156,514.24,397.053,527.344,380.859,527.344z"
	/>
<path fill="#334A5E" d="M380.859,527.344c16.193,0,29.297-13.104,29.297-29.297v-58.594c0-113.068-92.01-205.078-205.078-205.078
	v292.969H380.859z"/>
<path fill="#FFD15C" d="M205.078,292.969c-80.768,0-146.484-65.717-146.484-146.484S124.311,0,205.078,0
	s146.484,65.717,146.484,146.484S285.846,292.969,205.078,292.969z"/>
<path fill="#EFB32E" d="M351.562,146.484C351.562,65.717,285.846,0,205.078,0v292.969
	C285.846,292.969,351.562,227.252,351.562,146.484z"/>
</svg>
