<?xml version="1.0" encoding="utf-8"?>
<!-- Generator: Adobe Illustrator 16.0.0, SVG Export Plug-In . SVG Version: 6.00 Build 0)  -->
<!DOCTYPE svg PUBLIC "-//W3C//DTD SVG 1.1//EN" "http://www.w3.org/Graphics/SVG/1.1/DTD/svg11.dtd">
<svg version="1.1" id="Layer_1" xmlns="http://www.w3.org/2000/svg" xmlns:xlink="http://www.w3.org/1999/xlink" x="0px" y="0px"
	 width="1000px" height="800px" viewBox="0 0 1000 800" enable-background="new 0 0 1000 800" xml:space="preserve">
<g>
	<polyline fill="none" stroke="#90A4AE" stroke-width="1.0396" stroke-miterlimit="10" points="260.02,524.451 142.201,711.991 
		378.428,669.325 	"/>
	<polyline fill="none" stroke="#90A4AE" stroke-width="1.0396" stroke-miterlimit="10" points="506.047,771 623.766,669.325 
		623.766,669.325 	"/>
	<polyline fill="none" stroke="#90A4AE" stroke-width="1.0396" stroke-miterlimit="10" points="668.969,173.959 748.168,37.456 
		784.69,151.821 956.419,115.298 956.419,215.168 784.69,151.821 	"/>
	<polygon fill="none" stroke="#90A4AE" stroke-width="1.0396" stroke-miterlimit="10" points="119.486,20.227 166.423,168.016 
		423.635,101.318 	"/>
	<polyline fill="none" stroke="#90A4AE" stroke-width="1.0396" stroke-miterlimit="10" points="617.629,669.325 813.721,782.556 
		748.168,621.622 	"/>
	
		<line fill="none" stroke="#90A4AE" stroke-width="1.0396" stroke-miterlimit="10" x1="506.047" y1="771" x2="373.502" y2="669.325"/>
	<g>
		<path fill="none" stroke="#90A4AE" stroke-width="1.7932" stroke-miterlimit="10" d="M372.008,6.147"/>
		<polyline fill="none" stroke="#90A4AE" stroke-width="1.0396" stroke-miterlimit="10" points="742.674,240.112 580.76,341.285 
			558.22,422.082 559.296,535.972 733.305,473.699 483.692,400.11 391.453,236.402 461.042,161.696 570.164,113.6 668.969,173.959 
			804.945,141.872 		"/>
		<polyline fill="none" stroke="#90A4AE" stroke-width="1.0396" stroke-miterlimit="10" points="893.232,423.514 731.799,456.448 
			711.656,461.959 748.168,614.402 623.766,669.325 537.629,559.514 466.075,407.479 549.304,209.105 570.164,113.6 
			426.481,101.318 391.453,236.402 173.111,174.701 49.662,368.69 186.558,391.265 279.536,344.938 246.249,517.47 343.628,405.171 
			398.757,236.402 562.494,229.956 689.897,265.179 893.232,423.514 		"/>
		<polyline fill="none" stroke="#90A4AE" stroke-width="1.0396" stroke-miterlimit="10" points="720.116,269.088 784.69,147.736 
			893.232,423.514 		"/>
		<path fill="none" stroke="#90A4AE" stroke-width="1.0396" stroke-miterlimit="10" d="M720.116,269.088"/>
		<path fill="none" stroke="#90A4AE" stroke-width="1.0396" stroke-miterlimit="10" d="M468.567,392.877"/>
		<polyline fill="none" stroke="#90A4AE" stroke-width="1.0396" stroke-miterlimit="10" points="379.716,669.325 260.02,524.451 
			468.567,392.877 		"/>
		<polyline fill="none" stroke="#90A4AE" stroke-width="1.0396" stroke-miterlimit="10" points="956.419,215.168 876.711,429.92 
			762.159,617.496 		"/>
		<polyline fill="none" stroke="#90A4AE" stroke-width="1.0396" stroke-miterlimit="10" points="170.251,180.174 279.536,344.938 
			401.464,217.213 		"/>
		<polyline fill="none" stroke="#90A4AE" stroke-width="1.0396" stroke-miterlimit="10" points="49.662,369.465 144.426,314.881 
			391.453,239.461 		"/>
		
			<line fill="none" stroke="#90A4AE" stroke-width="1.0396" stroke-miterlimit="10" x1="956.419" y1="215.168" x2="700.776" y2="279.215"/>
		
			<line fill="none" stroke="#90A4AE" stroke-width="1.0396" stroke-miterlimit="10" x1="469.323" y1="397.773" x2="379.716" y2="669.325"/>
		<polyline fill="none" stroke="#90A4AE" stroke-width="1.0396" stroke-miterlimit="10" points="166.423,168.016 144.426,314.881 
			260.02,524.451 537.629,559.514 		"/>
		
			<line fill="none" stroke="#90A4AE" stroke-width="1.0396" stroke-miterlimit="10" x1="711.656" y1="461.959" x2="956.419" y2="215.168"/>
		
			<line fill="none" stroke="#90A4AE" stroke-width="1.0396" stroke-miterlimit="10" x1="271.466" y1="347.761" x2="537.629" y2="559.514"/>
		
			<line fill="none" stroke="#90A4AE" stroke-width="1.0396" stroke-miterlimit="10" x1="49.662" y1="368.69" x2="260.02" y2="524.451"/>
		<polyline fill="none" stroke="#90A4AE" stroke-width="1.0396" stroke-miterlimit="10" points="391.453,236.402 580.76,341.285 
			711.656,461.959 		"/>
		
			<line fill="none" stroke="#90A4AE" stroke-width="1.0396" stroke-miterlimit="10" x1="379.716" y1="664.286" x2="537.629" y2="559.514"/>
		<path fill="#90A4AE" d="M400.819,442.274c0,5.83-4.723,10.554-10.55,10.554c-5.828,0-10.553-4.724-10.553-10.554
			c0-5.825,4.725-10.551,10.553-10.551C396.096,431.724,400.819,436.449,400.819,442.274z"/>
		<circle fill="#90A4AE" cx="144.427" cy="316" r="12.095"/>
		<circle fill="#90A4AE" cx="238.992" cy="286.438" r="7.224"/>
		<circle fill="#90A4AE" cx="469.323" cy="395.021" r="15.66"/>
		<circle fill="#90A4AE" cx="580.76" cy="341.285" r="11.029"/>
		<circle fill="#90A4AE" cx="561.815" cy="423.53" r="28.509"/>
		
			<line fill="none" stroke="#90A4AE" stroke-width="1.0396" stroke-miterlimit="10" x1="711.656" y1="461.959" x2="623.766" y2="669.325"/>
		
			<line fill="none" stroke="#90A4AE" stroke-width="1.0396" stroke-miterlimit="10" x1="537.629" y1="559.514" x2="748.168" y2="621.622"/>
		<circle fill="#90A4AE" cx="655.641" cy="594.117" r="13.328"/>
		
			<line fill="none" stroke="#90A4AE" stroke-width="1.0396" stroke-miterlimit="10" x1="668.969" y1="173.959" x2="702.557" y2="265.179"/>
		<circle fill="#FFFFFF" stroke="#8FA3AD" stroke-width="4" stroke-miterlimit="10" cx="667.71" cy="172.03" r="10.605"/>
		<circle fill="#90A4AE" cx="570.165" cy="113.6" r="12.282"/>
		<polyline fill="none" stroke="#90A4AE" stroke-width="1.0396" stroke-miterlimit="10" points="166.423,173.959 335.142,162.472 
			431.516,95.934 461.042,161.696 544.914,219.569 		"/>
		
			<line fill="none" stroke="#90A4AE" stroke-width="1.0396" stroke-miterlimit="10" x1="335.142" y1="162.472" x2="391.453" y2="239.461"/>
		<circle fill="#90A4AE" cx="335.143" cy="162.472" r="6.752"/>
		<circle fill="#90A4AE" cx="461.042" cy="161.696" r="8.413"/>
		
			<line fill="none" stroke="#90A4AE" stroke-width="1.0396" stroke-miterlimit="10" x1="335.142" y1="162.472" x2="238.992" y2="286.438"/>
		<circle fill="#FFFFFF" stroke="#8FA3AD" stroke-width="4" stroke-miterlimit="10" cx="297.729" cy="209.741" r="10.605"/>
		<circle fill="#90A4AE" cx="119.486" cy="20.227" r="17.228"/>
		<circle fill="#90A4AE" cx="821.755" cy="248.009" r="14.547"/>
		<circle fill="#90A4AE" cx="851.732" cy="320.721" r="6.728"/>
		<circle fill="#90A4AE" cx="420.821" cy="544.761" r="14.753"/>
		<circle fill="#90A4AE" cx="506.047" cy="771" r="14.753"/>
		<circle fill="#90A4AE" cx="142.201" cy="711.991" r="14.753"/>
		<path fill="#90A4AE" d="M828.473,781.136c0,8.148-6.606,14.754-14.752,14.754c-8.15,0-14.757-6.605-14.757-14.754
			c0-8.146,6.606-14.752,14.757-14.752C821.866,766.384,828.473,772.989,828.473,781.136z"/>
		<circle fill="#90A4AE" cx="954.597" cy="117.12" r="12.932"/>
		<circle fill="#90A4AE" cx="746.143" cy="39.516" r="12.728"/>
		<circle fill="#FFFFFF" stroke="#8FA3AD" stroke-width="4" stroke-miterlimit="10" cx="439.897" cy="482.919" r="10.606"/>
		<circle fill="#FFFFFF" stroke="#8FA3AD" stroke-width="4" stroke-miterlimit="10" cx="510.946" cy="302.542" r="10.606"/>
		<circle fill="#FFFFFF" stroke="#8FA3AD" stroke-width="4" stroke-miterlimit="10" cx="811.149" cy="361.041" r="10.606"/>
		<circle fill="#FFFFFF" stroke="#8FA3AD" stroke-width="4" stroke-miterlimit="10" cx="185.19" cy="390.676" r="10.606"/>
		<circle fill="#FFFFFF" stroke="#8FA3AD" stroke-width="4" stroke-miterlimit="10" cx="343.118" cy="404.438" r="10.606"/>
	</g>
	<g>
		<path fill="#90A4AE" d="M654.402,669.325c0,16.922-13.719,30.638-30.637,30.638c-16.922,0-30.639-13.716-30.639-30.638
			c0-16.921,13.717-30.64,30.639-30.64C640.684,638.686,654.402,652.404,654.402,669.325z"/>
	</g>
	<g>
		<circle fill="#90A4AE" cx="710.72" cy="472.902" r="27.806"/>
	</g>
	<g>
		<circle fill="#90A4AE" cx="880.041" cy="425.329" r="28.308"/>
	</g>
	<g>
		<circle fill="#303948" cx="700.776" cy="279.215" r="77.011"/>
	</g>
	<g>
		<circle fill="#90A4AE" cx="956.419" cy="215.168" r="29.276"/>
	</g>
	<g>
		<circle fill="#303948" cx="260.02" cy="524.451" r="74.83"/>
		<path fill="none" stroke="#90A4AE" stroke-width="1.8642" stroke-miterlimit="10" d="M260.02,524.451"/>
	</g>
	<g>
		<circle fill="#90A4AE" cx="537.629" cy="559.514" r="42.75"/>
	</g>
	<g>
		<circle fill="#90A4AE" cx="548.857" cy="217.785" r="48.756"/>
	</g>
	<g>
		<path fill="#90A4AE" d="M820.271,143.545c0.615,2.658,0.942,5.429,0.942,8.276c0,20.169-16.351,36.521-36.522,36.521
			c-20.171,0-36.522-16.352-36.522-36.521c0-20.171,16.352-36.523,36.522-36.523C802.014,115.298,816.521,127.36,820.271,143.545"/>
	</g>
	<g>
		<circle fill="#90A4AE" cx="271.467" cy="350.483" r="37.915"/>
	</g>
	<g>
		<circle fill="#303948" cx="165.062" cy="190.356" r="68.08"/>
	</g>
	<g>
		<circle fill="#90A4AE" cx="427.492" cy="100.865" r="17.016"/>
	</g>
	<g>
		<circle fill="#90A4AE" cx="392.24" cy="235.07" r="20.574"/>
		<path fill="#90A4AE" d="M392.24,233.845"/>
	</g>
	<g>
		<circle fill="#90A4AE" cx="49.662" cy="368.69" r="35.404"/>
	</g>
	<circle fill="#FFFFFF" stroke="#8FA3AD" stroke-width="4" stroke-miterlimit="10" cx="750.985" cy="618.221" r="10.606"/>
	<path fill="#FFFFFF" stroke="#8FA3AD" stroke-width="4" stroke-miterlimit="10" d="M390.395,666.601
		c0,5.859-4.749,10.607-10.606,10.607c-5.858,0-10.605-4.748-10.605-10.607c0-5.855,4.747-10.606,10.605-10.606
		C385.646,655.994,390.395,660.745,390.395,666.601z"/>
</g>
<g>
	<polygon fill="#ECE7EA" points="576.057,533.837 576.057,591.21 499.923,591.21 499.923,533.837 537.988,530.732 	"/>
	<path fill="#D7CED1" d="M565.905,561.61h-55.831c-0.7,0-1.268-0.571-1.268-1.269c0-0.702,0.567-1.268,1.268-1.268h55.831
		c0.703,0,1.27,0.565,1.27,1.268C567.175,561.039,566.608,561.61,565.905,561.61z"/>
	<g>
		<path fill="#8B7E7F" d="M534.606,568.378h-24.532c-0.7,0-1.268-0.568-1.268-1.27c0-0.7,0.567-1.271,1.268-1.271h24.532
			c0.698,0,1.271,0.57,1.271,1.271C535.878,567.81,535.305,568.378,534.606,568.378z"/>
		<path fill="#8B7E7F" d="M534.606,575.145h-24.532c-0.7,0-1.268-0.568-1.268-1.267c0-0.703,0.567-1.274,1.268-1.274h24.532
			c0.698,0,1.271,0.571,1.271,1.274C535.878,574.576,535.305,575.145,534.606,575.145z"/>
		<path fill="#8B7E7F" d="M534.606,581.912h-24.532c-0.7,0-1.268-0.567-1.268-1.271c0-0.7,0.567-1.264,1.268-1.264h24.532
			c0.698,0,1.271,0.563,1.271,1.264C535.878,581.345,535.305,581.912,534.606,581.912z"/>
	</g>
	<g>
		<rect x="541.374" y="567.108" fill="#375176" width="24.531" height="14.804"/>
	</g>
	<g>
		<path fill="#8B7E7F" d="M558.666,554.845c-2.285,0-4.064-1.003-4.654-2.612c-0.232-0.658,0.109-1.39,0.764-1.623
			c0.661-0.239,1.387,0.102,1.627,0.759c0.201,0.56,1.109,0.938,2.261,0.938c0.861,0,2.315-0.271,2.315-1.271
			c0-0.688-0.313-0.927-2.52-1.285c-0.981-0.161-1.995-0.325-2.852-0.778c-1.177-0.616-1.799-1.655-1.799-3.007
			c0-2.245,1.993-3.809,4.854-3.809c2.287,0,4.063,0.994,4.649,2.609c0.237,0.657-0.102,1.383-0.761,1.621
			c-0.661,0.239-1.385-0.102-1.625-0.76c-0.2-0.558-1.112-0.937-2.261-0.937c-0.861,0-2.316,0.268-2.316,1.274
			c0,0.681,0.312,0.917,2.517,1.278c0.983,0.163,2.002,0.328,2.853,0.779c1.176,0.616,1.802,1.662,1.802,3.013
			C563.521,553.275,561.522,554.845,558.666,554.845z"/>
		<path fill="#8B7E7F" d="M547.433,554.845c-0.475,0-0.915-0.265-1.132-0.698l-1.442-2.839l-1.438,2.839
			c-0.239,0.471-0.749,0.748-1.273,0.689c-0.521-0.062-0.959-0.442-1.089-0.953l-2.573-10.148c-0.172-0.682,0.238-1.372,0.918-1.54
			c0.681-0.173,1.369,0.233,1.545,0.916l1.739,6.87l1.04-2.058c0.22-0.426,0.655-0.693,1.132-0.693c0.479,0,0.916,0.268,1.135,0.693
			l1.041,2.058l1.74-6.87c0.175-0.683,0.858-1.089,1.54-0.916c0.679,0.168,1.092,0.858,0.917,1.54l-2.572,10.148
			c-0.13,0.511-0.562,0.892-1.088,0.953C547.526,554.844,547.48,554.845,547.433,554.845z"/>
		<path fill="#8B7E7F" d="M534.643,554.845h-7.175c-0.699,0-1.266-0.57-1.266-1.271v-10.152c0-0.702,0.566-1.266,1.266-1.266h7.175
			c0.696,0,1.268,0.563,1.268,1.266c0,0.7-0.571,1.269-1.268,1.269h-5.9v7.612h5.9c0.696,0,1.268,0.568,1.268,1.271
			C535.91,554.274,535.339,554.845,534.643,554.845z"/>
		<path fill="#8B7E7F" d="M532.253,549.768h-4.785c-0.699,0-1.266-0.567-1.266-1.27c0-0.703,0.566-1.269,1.266-1.269h4.785
			c0.697,0,1.264,0.565,1.264,1.269C533.517,549.2,532.95,549.768,532.253,549.768z"/>
		<path fill="#8B7E7F" d="M522.395,554.845c-0.363,0-0.72-0.159-0.963-0.451l-6.436-7.531v6.712c0,0.7-0.565,1.271-1.27,1.271
			c-0.7,0-1.266-0.57-1.266-1.271v-10.152c0-0.531,0.334-1.007,0.829-1.188c0.496-0.189,1.064-0.039,1.404,0.364l6.428,7.534v-6.71
			c0-0.702,0.575-1.266,1.272-1.266s1.27,0.563,1.27,1.266v10.152c0,0.535-0.331,1.009-0.83,1.189
			C522.69,554.816,522.54,554.845,522.395,554.845z"/>
	</g>
</g>
<g>
	<path fill="#DDCCB6" d="M402.509,250.691l-19.692,0.023c-0.505,0.002-0.915-0.408-0.915-0.913l-0.033-25.908
		c0-0.505,0.411-0.916,0.916-0.916l19.689-0.024c0.506-0.001,0.917,0.408,0.917,0.914l0.03,25.906
		C403.422,250.281,403.015,250.691,402.509,250.691z"/>
	
		<rect x="384.289" y="244.016" transform="matrix(-1 0.0012 -0.0012 -1 773.1882 491.8531)" fill="#F2ECBF" width="4.304" height="4.303"/>
	
		<rect x="390.506" y="244.008" transform="matrix(-1 0.0014 -0.0014 -1 785.6502 491.7855)" fill="#F2ECBF" width="4.304" height="4.305"/>
	
		<rect x="396.718" y="237.783" transform="matrix(-1 0.0012 -0.0012 -1 798.0436 485.5891)" fill="#EF4650" width="4.306" height="10.521"/>
	
		<rect x="384.28" y="237.799" transform="matrix(-1 0.0012 -0.0012 -1 773.1638 479.4185)" fill="#F2ECBF" width="4.304" height="4.304"/>
	
		<rect x="390.497" y="237.79" transform="matrix(-1 0.0012 -0.0012 -1 785.5984 479.3942)" fill="#F2ECBF" width="4.305" height="4.304"/>
	<rect x="384.272" y="231.582" fill="#F2ECBF" width="4.305" height="4.301"/>
	<rect x="390.49" y="231.574" fill="#F2ECBF" width="4.304" height="4.304"/>
	<rect x="396.707" y="231.566" fill="#434B60" width="4.304" height="4.303"/>
	
		<rect x="384.265" y="225.356" transform="matrix(-1 0.0012 -0.0012 -1 785.5344 454.0808)" fill="#87C3C6" width="16.739" height="3.826"/>
</g>
<g>
	<path fill="#13264B" d="M555.732,256.534c-0.027,0-0.055,0-0.085,0c-2.415-0.037-4.602-1.46-6.514-4.237
		c-1.908,2.777-4.094,4.201-6.509,4.237c-4.543,0.077-8.2-4.975-9.256-6.596c-2.085-0.457-3.602-1.458-4.517-2.982
		c-1.158-1.924-1.003-4.171-0.765-5.47c-5.733-3.027-6.311-9.177-5.704-12.752c-2.937-2.138-4.732-4.771-5.343-7.833
		c-0.947-4.726,1.255-8.968,2.002-10.229c-0.375-6.121,0.84-10.733,3.617-13.714c2.18-2.342,4.731-3.001,6.021-3.188
		c1.968-4.138,5.311-4.937,7.341-4.743c5.909-5.486,11.13-2.806,13.111-1.391c1.982-1.415,7.202-4.095,13.11,1.391
		c2.033-0.194,5.376,0.605,7.344,4.743c1.288,0.186,3.844,0.846,6.021,3.188c2.775,2.981,3.993,7.593,3.616,13.714
		c0.748,1.262,2.95,5.504,2.004,10.229c-0.611,3.063-2.41,5.695-5.346,7.833c0.606,3.575,0.028,9.725-5.702,12.752
		c0.237,1.299,0.393,3.545-0.766,5.47c-0.916,1.524-2.435,2.526-4.517,2.982C563.854,251.548,560.238,256.534,555.732,256.534z
		 M549.112,248.746c0.448,0,0.912,0.245,1.126,0.641c1.689,3.08,3.519,4.656,5.442,4.684c0.016,0,0.033,0,0.052,0
		c3.207,0,6.387-4.226,7.348-5.861c0.184-0.315,0.5-0.533,0.861-0.594c1.619-0.27,2.749-0.914,3.359-1.919
		c1.128-1.861,0.291-4.48,0.282-4.507c-0.2-0.607,0.101-1.27,0.685-1.519c6.986-2.979,5.134-10.854,5.052-11.186
		c-0.123-0.506,0.082-1.038,0.515-1.324c3.851-2.557,5.565-5.896,5.086-9.923c-0.369-3.127-1.955-5.546-1.972-5.571
		c-0.151-0.227-0.223-0.5-0.205-0.771c0.402-5.581-0.577-9.693-2.902-12.226c-2.252-2.449-4.98-2.511-5.097-2.512
		c-0.497-0.005-0.949-0.311-1.136-0.772c-1.886-4.686-5.438-3.861-5.476-3.852c-0.417,0.104-0.86-0.017-1.164-0.322
		c-2.512-2.498-5.094-3.458-7.674-2.855c-1.976,0.462-3.26,1.7-3.271,1.712c-0.234,0.226-0.545,0.354-0.866,0.354h-0.046
		c-0.327,0-0.638-0.127-0.867-0.357c-0.011-0.009-1.295-1.247-3.271-1.709c-2.58-0.603-5.163,0.357-7.672,2.855
		c-0.308,0.305-0.748,0.425-1.168,0.322c-0.356-0.081-3.648-0.688-5.474,3.852c-0.188,0.466-0.64,0.772-1.144,0.772
		c-0.106,0.001-2.84,0.063-5.089,2.512c-2.326,2.532-3.303,6.645-2.901,12.226c0.019,0.273-0.053,0.545-0.206,0.773
		c-0.014,0.022-1.602,2.441-1.973,5.568c-0.475,4.027,1.236,7.367,5.088,9.923c0.436,0.289,0.639,0.82,0.513,1.327
		c-0.08,0.329-1.932,8.204,5.053,11.183c0.589,0.251,0.889,0.916,0.684,1.523c-0.007,0.022-0.844,2.642,0.284,4.503
		c0.606,1.003,1.74,1.649,3.358,1.918c0.36,0.061,0.676,0.277,0.863,0.591c0.968,1.648,4.19,5.888,7.4,5.863
		c1.921-0.03,3.752-1.605,5.44-4.684C548.247,248.991,548.661,248.746,549.112,248.746z M549.158,189.195h0.005H549.158z"/>
	<path fill="#13264B" d="M562.669,204.477c-0.002,0-0.005,0-0.008,0c-0.677-0.005-1.224-0.551-1.224-1.227
		c0-0.271,0.088-6.653,7.759-9.198c0.645-0.213,1.344,0.137,1.558,0.782c0.215,0.645-0.135,1.343-0.779,1.557
		c-5.938,1.969-6.072,6.669-6.075,6.869C563.892,203.933,563.341,204.477,562.669,204.477z"/>
	<path fill="#13264B" d="M569.443,231.444c-0.619,0-1.229-0.087-1.829-0.26c-3.986-1.163-5.752-5.812-5.825-6.009
		c-0.237-0.639,0.086-1.347,0.726-1.583c0.638-0.235,1.345,0.087,1.582,0.724c0.028,0.072,1.435,3.702,4.215,4.505
		c1.577,0.456,3.399-0.089,5.409-1.615c0.544-0.412,1.317-0.305,1.727,0.236c0.41,0.543,0.306,1.315-0.235,1.726
		C573.216,230.683,571.283,231.444,569.443,231.444z"/>
	<path fill="#FFFFFF" d="M557.179,238.51c0,0,1.152-4.588-3.458-9.176"/>
	<g>
		<path fill="#13264B" d="M557.182,239.741c-0.103,0-0.199-0.014-0.303-0.037c-0.656-0.165-1.058-0.829-0.896-1.488
			c0.043-0.184,0.871-4.028-3.13-8.009c-0.482-0.48-0.482-1.261-0.004-1.742c0.479-0.483,1.26-0.485,1.741-0.005
			c5.048,5.024,3.836,10.134,3.783,10.349C558.232,239.368,557.73,239.741,557.182,239.741z"/>
		<path fill="#13264B" d="M568.543,219.266c-2.469,0-5.465-0.715-7.615-3.56c-1.835-2.431-2.634-4.538-3.217-6.077
			c-0.675-1.782-0.873-2.079-1.389-2.123c-0.677-0.054-1.182-0.648-1.126-1.328c0.055-0.679,0.661-1.186,1.328-1.126
			c2.152,0.177,2.803,1.889,3.488,3.704c0.56,1.477,1.259,3.317,2.878,5.465c3.127,4.138,9.012,2.091,9.265,2.001
			c0.639-0.227,1.341,0.104,1.573,0.742c0.232,0.639-0.1,1.343-0.738,1.575C572.836,218.597,570.937,219.266,568.543,219.266z"/>
		<path fill="#13264B" d="M549.112,251.21c-0.681,0-1.231-0.552-1.231-1.231v-60.784c0-0.68,0.551-1.233,1.231-1.233
			c0.678,0,1.229,0.553,1.229,1.233v60.784C550.342,250.658,549.79,251.21,549.112,251.21z"/>
	</g>
	<path fill="#FFFFFF" d="M556.896,198.558c0,0,0.119,8.109-4.043,13.359"/>
	<path fill="#13264B" d="M552.853,213.148c-0.268,0-0.537-0.086-0.765-0.266c-0.531-0.422-0.621-1.197-0.2-1.73
		c3.831-4.834,3.776-12.5,3.775-12.579c-0.008-0.68,0.536-1.237,1.216-1.247c0.672,0.014,1.238,0.535,1.246,1.213
		c0.007,0.349,0.076,8.611-4.307,14.142C553.575,212.989,553.216,213.148,552.853,213.148z"/>
	<path fill="#13264B" d="M553.055,245.629c-0.13,0-0.263-0.02-0.39-0.064c-0.647-0.217-0.995-0.912-0.777-1.558
		c0.104-0.316,2.649-7.723,8.084-7.723c0.676,0,1.229,0.553,1.229,1.233c0,0.678-0.553,1.229-1.229,1.229
		c-3.627,0-5.729,5.982-5.752,6.042C554.05,245.303,553.571,245.629,553.055,245.629z"/>
	<g>
		<path fill="#13264B" d="M558.331,195.013c-0.258,0-0.516-0.08-0.738-0.246c-0.544-0.408-0.655-1.179-0.246-1.722l2.958-3.958
			c0.41-0.544,1.179-0.655,1.723-0.247c0.547,0.407,0.658,1.179,0.251,1.722l-2.959,3.957
			C559.076,194.842,558.704,195.013,558.331,195.013z"/>
		<path fill="#13264B" d="M536.774,218.867c-0.681,0-1.229-0.551-1.229-1.23v-12.273c0-0.679,0.549-1.231,1.229-1.231
			s1.231,0.552,1.231,1.231v12.273C538.006,218.318,537.455,218.867,536.774,218.867z"/>
		<path fill="#13264B" d="M540.476,218.867h-8.634c-0.68,0-1.229-0.551-1.229-1.23s0.55-1.232,1.229-1.232h8.634
			c0.68,0,1.231,0.553,1.231,1.232S541.155,218.867,540.476,218.867z"/>
		<path fill="#13264B" d="M540.476,226.232c-0.68,0-1.23-0.552-1.23-1.232v-7.363c0-0.679,0.551-1.232,1.23-1.232
			s1.231,0.553,1.231,1.232V225C541.707,225.68,541.155,226.232,540.476,226.232z"/>
		<path fill="#13264B" d="M540.476,239.732c-0.68,0-1.23-0.552-1.23-1.233v-6.135c0-0.679,0.551-1.23,1.23-1.23
			s1.231,0.552,1.231,1.23v6.135C541.707,239.182,541.155,239.732,540.476,239.732z"/>
	</g>
	<g>
		<ellipse fill="#69CCE2" cx="536.776" cy="201.682" rx="3.702" ry="3.683"/>
		<path fill="#69CCE2" d="M536.774,206.594c-2.718,0-4.929-2.204-4.929-4.913c0-2.708,2.211-4.913,4.929-4.913
			s4.933,2.205,4.933,4.913C541.707,204.39,539.492,206.594,536.774,206.594z M536.774,199.231c-1.359,0-2.469,1.1-2.469,2.45
			s1.109,2.451,2.469,2.451c1.362,0,2.471-1.101,2.471-2.451S538.137,199.231,536.774,199.231z"/>
		<ellipse fill="#69CCE2" cx="528.145" cy="217.636" rx="3.703" ry="3.682"/>
		<path fill="#69CCE2" d="M528.141,222.55c-2.717,0-4.929-2.205-4.929-4.913c0-2.709,2.212-4.912,4.929-4.912
			c2.721,0,4.933,2.204,4.933,4.912S530.859,222.55,528.141,222.55z M528.141,215.187c-1.358,0-2.465,1.099-2.465,2.45
			c0,1.351,1.106,2.45,2.465,2.45c1.361,0,2.47-1.1,2.47-2.45C530.61,216.286,529.502,215.187,528.141,215.187z"/>
		<path fill="#69CCE2" d="M540.479,225c2.04,0,3.697,1.649,3.697,3.684c0,2.032-1.657,3.681-3.697,3.681
			c-2.045,0-3.702-1.649-3.702-3.681C536.776,226.649,538.434,225,540.479,225z"/>
		<path fill="#69CCE2" d="M540.476,233.594c-2.721,0-4.931-2.203-4.931-4.91c0-2.712,2.21-4.915,4.931-4.915
			c2.719,0,4.932,2.203,4.932,4.915C545.407,231.391,543.194,233.594,540.476,233.594z M540.476,226.232
			c-1.358,0-2.47,1.1-2.47,2.452c0,1.35,1.111,2.45,2.47,2.45c1.361,0,2.468-1.1,2.468-2.45
			C542.943,227.332,541.837,226.232,540.476,226.232z"/>
	</g>
	<g>
		<path fill="#EF4650" d="M570.074,201.685c1.365,0,2.475,1.1,2.475,2.455c0,1.356-1.109,2.454-2.475,2.454
			c-1.361,0-2.467-1.098-2.467-2.454C567.607,202.785,568.713,201.685,570.074,201.685z"/>
		<ellipse fill="#EF4650" cx="556.512" cy="220.094" rx="2.468" ry="2.454"/>
	</g>
	<g>
		<ellipse fill="#FEE500" cx="571.308" cy="223.776" rx="2.469" ry="2.454"/>
		<ellipse fill="#FEE500" cx="556.512" cy="249.545" rx="2.468" ry="2.454"/>
	</g>
	<path fill="#EF4650" d="M562.676,240.958c1.36,0,2.469,1.099,2.469,2.455c0,1.355-1.108,2.453-2.469,2.453
		c-1.364,0-2.47-1.098-2.47-2.453C560.206,242.056,561.312,240.958,562.676,240.958z"/>
	<g>
		<path fill="#69CCE2" d="M540.479,238.497c2.04,0,3.697,1.648,3.697,3.684c0,2.034-1.657,3.681-3.697,3.681
			c-2.045,0-3.702-1.646-3.702-3.681C536.776,240.146,538.434,238.497,540.479,238.497z"/>
		<path fill="#69CCE2" d="M540.476,247.097c-2.721,0-4.931-2.204-4.931-4.915c0-2.708,2.21-4.912,4.931-4.912
			c2.719,0,4.932,2.204,4.932,4.912C545.407,244.893,543.194,247.097,540.476,247.097z M540.476,239.732
			c-1.358,0-2.47,1.099-2.47,2.449c0,1.353,1.111,2.452,2.47,2.452c1.361,0,2.468-1.099,2.468-2.452
			C542.943,240.832,541.837,239.732,540.476,239.732z"/>
	</g>
</g>
<g>
	<path fill="#879FD2" d="M901.541,412.012c-0.288,0-0.589,0.214-0.684,0.486l-0.266,0.642c-0.126,0.253-0.065,0.618,0.141,0.821
		l0.995,0.991c0.064,0.061,0.1,0.146,0.1,0.235s-0.035,0.172-0.1,0.233l-1.808,1.798c-0.065,0.062-0.148,0.097-0.238,0.097
		c-0.092,0-0.178-0.035-0.241-0.097l-0.997-0.991c-0.127-0.128-0.325-0.201-0.528-0.201c-0.106,0-0.212,0.021-0.3,0.062l-0.65,0.267
		c-0.269,0.093-0.481,0.393-0.481,0.682v1.396c0,0.184-0.149,0.335-0.335,0.335h-2.562c-0.188,0-0.339-0.151-0.339-0.335v-1.396
		c0-0.289-0.213-0.589-0.486-0.682l-0.651-0.269c-0.081-0.039-0.185-0.061-0.294-0.061c-0.202,0-0.4,0.073-0.526,0.201l-0.999,0.991
		c-0.063,0.062-0.149,0.097-0.24,0.097c-0.09,0-0.175-0.035-0.236-0.097l-1.81-1.798c-0.065-0.062-0.101-0.144-0.101-0.233
		s0.035-0.175,0.101-0.235l0.997-0.991c0.203-0.203,0.266-0.568,0.136-0.828l-0.267-0.64c-0.091-0.268-0.392-0.481-0.682-0.481
		h-1.411c-0.091,0-0.177-0.033-0.239-0.098s-0.099-0.149-0.099-0.237v-1.281h-28.363c-0.576,0-1.044,0.468-1.044,1.042v28.114
		h45.564v-27.54H901.541z"/>
	<path fill="#FFFFFF" d="M899.92,417.219c-0.065,0.062-0.148,0.097-0.238,0.097c-0.091,0-0.178-0.035-0.241-0.097l-0.996-0.991
		c-0.128-0.128-0.326-0.201-0.529-0.201c-0.106,0-0.212,0.021-0.298,0.062l-0.651,0.267c-0.27,0.093-0.482,0.393-0.482,0.682v1.396
		c0,0.184-0.149,0.335-0.335,0.335h-2.562c-0.188,0-0.339-0.151-0.339-0.335v-1.396c0-0.289-0.213-0.589-0.486-0.682l-0.651-0.269
		c-0.081-0.039-0.185-0.061-0.294-0.061c-0.201,0-0.4,0.073-0.526,0.201l-0.999,0.991c-0.063,0.062-0.149,0.097-0.24,0.097
		c-0.09,0-0.173-0.035-0.236-0.097l-1.81-1.795c-0.065-0.064-0.101-0.146-0.101-0.236s0.035-0.175,0.101-0.235l0.997-0.991
		c0.203-0.203,0.266-0.568,0.136-0.826l-0.053-0.128h-28.916c-0.289,0-0.526,0.234-0.526,0.522v23.203
		c0,0.286,0.237,0.521,0.526,0.521h39.295c0.288,0,0.521-0.235,0.521-0.521v-19.58L899.92,417.219z"/>
	<path fill="#5EC1D8" d="M879.486,421.001c0-0.2,0.163-0.362,0.363-0.362h1.361v-4.943c0-0.287-0.235-0.522-0.521-0.522h-6.964
		c-0.29,0-0.524,0.235-0.524,0.522v6.168c0,0.287,0.234,0.521,0.524,0.521h5.761V421.001L879.486,421.001z"/>
	<path fill="#75C9F1" d="M897.615,416.089l-0.65,0.267c-0.269,0.093-0.481,0.393-0.481,0.682v1.396c0,0.184-0.149,0.335-0.335,0.335
		h-2.562c-0.188,0-0.339-0.151-0.339-0.335v-1.396c0-0.289-0.213-0.589-0.486-0.682l-0.651-0.269
		c-0.081-0.039-0.185-0.061-0.294-0.061c-0.202,0-0.4,0.073-0.526,0.201l-0.999,0.991c-0.063,0.062-0.149,0.097-0.24,0.097
		c-0.09,0-0.175-0.035-0.236-0.097l-1.81-1.795c-0.065-0.064-0.101-0.146-0.101-0.236c0-0.005,0.003-0.01,0.003-0.015h-4.987
		c-0.285,0-0.521,0.235-0.521,0.522v4.943h5.048c0.201,0,0.366,0.162,0.366,0.362v1.383h9.285c0.286,0,0.521-0.233,0.521-0.521
		v-5.774C897.618,416.089,897.617,416.089,897.615,416.089z"/>
	<path fill="#27A6A5" d="M875.274,421.863v-6.168c0-0.287,0.234-0.522,0.523-0.522h-2.072c-0.29,0-0.524,0.235-0.524,0.522v6.168
		c0,0.287,0.234,0.521,0.524,0.521h2.072C875.509,422.384,875.274,422.15,875.274,421.863z"/>
	<path fill="#5BB2E4" d="M884.472,420.639v-4.943c0-0.287,0.235-0.522,0.521-0.522h-2.073c-0.285,0-0.521,0.235-0.521,0.522v4.943
		H884.472z"/>
	<path fill="#DAEAF8" d="M860.169,413.007c-0.289,0-0.526,0.234-0.526,0.522v23.203c0,0.286,0.237,0.521,0.526,0.521h10.554v-24.247
		H860.169z"/>
	<path fill="#C4DEF4" d="M861.719,436.732v-23.203c0-0.288,0.233-0.522,0.523-0.522h-2.073c-0.289,0-0.526,0.234-0.526,0.522v23.203
		c0,0.286,0.237,0.521,0.526,0.521h2.073C861.952,437.254,861.719,437.019,861.719,436.732z"/>
	<path fill="#455FA1" d="M906.569,443.733c0,0.285-0.237,0.522-0.521,0.522h-52.464c-0.287,0-0.522-0.237-0.522-0.522v-3.764
		c0-0.287,0.235-0.522,0.522-0.522h52.464c0.284,0,0.521,0.235,0.521,0.522V443.733z"/>
	<path fill="#2A3E7C" d="M855.134,443.733v-3.764c0-0.287,0.236-0.522,0.523-0.522h-2.073c-0.287,0-0.522,0.235-0.522,0.522v3.764
		c0,0.285,0.235,0.522,0.522,0.522h2.073C855.37,444.256,855.134,444.019,855.134,443.733z"/>
	<g>
		<path fill="#455FA1" d="M867.766,419.093h-5.959c-0.431,0-0.781-0.352-0.781-0.783c0-0.434,0.351-0.783,0.781-0.783h5.959
			c0.433,0,0.784,0.35,0.784,0.783C868.55,418.741,868.198,419.093,867.766,419.093z"/>
		<path fill="#455FA1" d="M867.766,422.542h-5.959c-0.431,0-0.781-0.352-0.781-0.783c0-0.434,0.351-0.784,0.781-0.784h5.959
			c0.433,0,0.784,0.351,0.784,0.784C868.55,422.19,868.198,422.542,867.766,422.542z"/>
		<path fill="#455FA1" d="M867.766,425.992h-5.959c-0.431,0-0.781-0.352-0.781-0.785c0-0.433,0.351-0.784,0.781-0.784h5.959
			c0.433,0,0.784,0.352,0.784,0.784C868.55,425.641,868.198,425.992,867.766,425.992z"/>
		<path fill="#455FA1" d="M867.766,429.44h-5.959c-0.431,0-0.781-0.352-0.781-0.787c0-0.43,0.351-0.781,0.781-0.781h5.959
			c0.433,0,0.784,0.352,0.784,0.781C868.55,429.089,868.198,429.44,867.766,429.44z"/>
		<path fill="#455FA1" d="M865.989,432.891h-4.183c-0.431,0-0.781-0.353-0.781-0.785s0.351-0.783,0.781-0.783h4.183
			c0.435,0,0.782,0.351,0.782,0.783S866.424,432.891,865.989,432.891z"/>
	</g>
	<g>
		<path fill="#98D8E2" d="M875.553,434.811c0,0.172-0.141,0.313-0.314,0.313h-1.723c-0.174,0-0.314-0.142-0.314-0.313v-9.094
			c0-0.171,0.141-0.312,0.314-0.312h1.723c0.174,0,0.314,0.141,0.314,0.312V434.811z"/>
		<path fill="#98D8E2" d="M878.688,434.811c0,0.172-0.142,0.313-0.312,0.313h-1.725c-0.173,0-0.313-0.142-0.313-0.313v-5.8
			c0-0.173,0.141-0.313,0.313-0.313h1.725c0.171,0,0.312,0.141,0.312,0.313V434.811z"/>
		<path fill="#98D8E2" d="M881.822,434.811c0,0.172-0.141,0.313-0.313,0.313h-1.725c-0.173,0-0.313-0.142-0.313-0.313v-4.075
			c0-0.173,0.141-0.314,0.313-0.314h1.725c0.173,0,0.313,0.142,0.313,0.314V434.811z"/>
	</g>
	<g>
		<path fill="#59BAEA" d="M884.958,434.811c0,0.172-0.141,0.313-0.313,0.313h-1.726c-0.171,0-0.313-0.142-0.313-0.313v-7.368
			c0-0.172,0.143-0.313,0.313-0.313h1.726c0.173,0,0.313,0.142,0.313,0.313V434.811z"/>
		<path fill="#59BAEA" d="M888.094,434.811c0,0.172-0.144,0.313-0.315,0.313h-1.724c-0.172,0-0.312-0.142-0.312-0.313v-5.017
			c0-0.173,0.141-0.313,0.312-0.313h1.724c0.172,0,0.315,0.141,0.315,0.313V434.811z"/>
		<path fill="#59BAEA" d="M891.229,434.811c0,0.172-0.143,0.313-0.314,0.313h-1.724c-0.174,0-0.314-0.142-0.314-0.313v-3.136
			c0-0.173,0.141-0.312,0.314-0.312h1.724c0.172,0,0.314,0.14,0.314,0.312V434.811z"/>
	</g>
	<g>
		<path fill="#F27EAA" d="M894.362,434.811c0,0.172-0.14,0.313-0.312,0.313h-1.724c-0.174,0-0.314-0.142-0.314-0.313v-7.055
			c0-0.173,0.141-0.313,0.314-0.313h1.724c0.173,0,0.312,0.141,0.312,0.313V434.811z"/>
		<path fill="#F27EAA" d="M897.499,434.811c0,0.172-0.142,0.313-0.313,0.313h-1.726c-0.173,0-0.312-0.142-0.312-0.313v-9.094
			c0-0.171,0.14-0.312,0.312-0.312h1.726c0.172,0,0.313,0.141,0.313,0.312V434.811z"/>
	</g>
	<g>
		<path fill="#5EC1D8" d="M874.334,434.811v-9.094c0-0.171,0.139-0.312,0.316-0.312h-1.135c-0.174,0-0.314,0.141-0.314,0.312v9.094
			c0,0.172,0.141,0.313,0.314,0.313h1.135C874.473,435.124,874.334,434.982,874.334,434.811z"/>
		<path fill="#5EC1D8" d="M877.468,434.811v-5.8c0-0.173,0.143-0.313,0.314-0.313h-1.132c-0.173,0-0.313,0.141-0.313,0.313v5.8
			c0,0.172,0.141,0.313,0.313,0.313h1.132C877.61,435.124,877.468,434.982,877.468,434.811z"/>
		<path fill="#5EC1D8" d="M880.604,434.811v-4.075c0-0.173,0.142-0.314,0.313-0.314h-1.134c-0.173,0-0.313,0.142-0.313,0.314v4.075
			c0,0.172,0.141,0.313,0.313,0.313h1.134C880.746,435.124,880.604,434.982,880.604,434.811z"/>
	</g>
	<g>
		<path fill="#5BB2E4" d="M883.738,434.811v-7.368c0-0.172,0.143-0.313,0.314-0.313h-1.134c-0.171,0-0.313,0.142-0.313,0.313v7.368
			c0,0.172,0.143,0.313,0.313,0.313h1.134C883.881,435.124,883.738,434.982,883.738,434.811z"/>
		<path fill="#5BB2E4" d="M886.877,434.811v-5.017c0-0.173,0.141-0.313,0.312-0.313h-1.135c-0.172,0-0.312,0.141-0.312,0.313v5.017
			c0,0.172,0.141,0.313,0.312,0.313h1.135C887.018,435.124,886.877,434.982,886.877,434.811z"/>
		<path fill="#5BB2E4" d="M890.01,434.811v-3.136c0-0.173,0.14-0.312,0.312-0.312h-1.13c-0.174,0-0.314,0.14-0.314,0.312v3.136
			c0,0.172,0.141,0.313,0.314,0.313h1.13C890.149,435.124,890.01,434.982,890.01,434.811z"/>
	</g>
	<g>
		<path fill="#E26794" d="M893.145,434.811v-7.055c0-0.173,0.144-0.313,0.314-0.313h-1.133c-0.174,0-0.314,0.141-0.314,0.313v7.055
			c0,0.172,0.141,0.313,0.314,0.313h1.133C893.288,435.124,893.145,434.982,893.145,434.811z"/>
		<path fill="#E26794" d="M896.281,434.811v-9.094c0-0.171,0.141-0.312,0.312-0.312h-1.134c-0.173,0-0.312,0.141-0.312,0.312v9.094
			c0,0.172,0.14,0.313,0.312,0.313h1.134C896.422,435.124,896.281,434.982,896.281,434.811z"/>
	</g>
	<path fill="#2A3E7C" d="M873.232,439.447v1.15c0,0.574,0.472,1.044,1.046,1.044h11.076c0.573,0,1.045-0.47,1.045-1.044v-1.15
		H873.232z"/>
	<path fill="#242D62" d="M875.306,440.598v-1.15h-2.073v1.15c0,0.574,0.472,1.044,1.046,1.044h2.072
		C875.776,441.642,875.306,441.172,875.306,440.598z"/>
	<path fill="#FFD111" d="M887.915,421.001c0-0.256-0.21-0.467-0.469-0.467h-7.597c-0.258,0-0.47,0.211-0.47,0.467v3.435
		c0,0.26,0.212,0.47,0.47,0.47h2.438c0.257,0,0.573,0.183,0.704,0.405l0.421,0.731c0.129,0.224,0.34,0.224,0.469,0l0.422-0.731
		c0.127-0.223,0.445-0.405,0.704-0.405h2.438c0.259,0,0.469-0.21,0.469-0.47V421.001L887.915,421.001z"/>
	<path fill="#FCAF19" d="M881.453,424.436v-3.435c0-0.256,0.213-0.467,0.469-0.467h-2.072c-0.258,0-0.47,0.211-0.47,0.467v3.435
		c0,0.26,0.212,0.47,0.47,0.47h2.072C881.666,424.905,881.453,424.695,881.453,424.436z"/>
	<path fill="#EE8322" d="M893.145,418.434c0,0.242,0.199,0.44,0.442,0.44h2.562c0.242,0,0.438-0.198,0.438-0.44v-1.396
		c0-0.242,0.188-0.506,0.419-0.584l0.655-0.27c0.219-0.105,0.538-0.053,0.71,0.119l0.998,0.99c0.172,0.171,0.452,0.171,0.623,0
		l1.811-1.797c0.171-0.171,0.171-0.449,0-0.621l-0.996-0.989c-0.172-0.171-0.227-0.487-0.119-0.705l0.271-0.647
		c0.079-0.229,0.343-0.417,0.583-0.417h1.412c0.245,0,0.444-0.196,0.444-0.439v-2.537c0-0.241-0.199-0.438-0.444-0.438h-1.412
		c-0.24,0-0.504-0.188-0.583-0.417l-0.271-0.647c-0.107-0.217-0.053-0.535,0.119-0.706l0.996-0.99c0.171-0.17,0.171-0.451,0-0.618
		l-1.811-1.799c-0.171-0.17-0.451-0.17-0.623,0l-0.998,0.991c-0.172,0.17-0.491,0.224-0.71,0.118l-0.655-0.271
		c-0.23-0.077-0.419-0.339-0.419-0.583v-1.395c0-0.243-0.196-0.441-0.438-0.441h-2.562c-0.243,0-0.442,0.197-0.442,0.441v1.395
		c0,0.244-0.188,0.506-0.416,0.583l-0.657,0.271c-0.216,0.105-0.536,0.052-0.708-0.118l-0.999-0.991c-0.171-0.17-0.452-0.17-0.625,0
		l-1.811,1.796c-0.171,0.17-0.171,0.451,0,0.621l0.997,0.99c0.176,0.171,0.227,0.489,0.118,0.706l-0.267,0.647
		c-0.079,0.229-0.346,0.417-0.588,0.417h-1.414c-0.239,0-0.439,0.196-0.439,0.438v2.537c0,0.243,0.2,0.439,0.439,0.439h1.414
		c0.242,0,0.508,0.188,0.588,0.417l0.267,0.647c0.108,0.216,0.058,0.534-0.118,0.705l-0.997,0.989c-0.171,0.172-0.171,0.45,0,0.621
		l1.81,1.797c0.174,0.171,0.455,0.171,0.626,0l0.999-0.99c0.172-0.172,0.492-0.225,0.708-0.119l0.657,0.27
		c0.229,0.078,0.416,0.342,0.416,0.584V418.434L893.145,418.434z"/>
	<ellipse fill="#F89422" cx="894.866" cy="410.409" rx="4.106" ry="4.074"/>
	<path fill="#EE8322" d="M892.011,410.407c0-2.039,1.509-3.728,3.48-4.025c-0.205-0.032-0.414-0.047-0.625-0.047
		c-2.269,0-4.104,1.823-4.104,4.072c0,2.251,1.836,4.076,4.104,4.076c0.211,0,0.42-0.017,0.625-0.048
		C893.52,414.137,892.011,412.448,892.011,410.407z"/>
	<path fill="#DB722A" d="M894.866,415.144c-2.627,0-4.766-2.123-4.766-4.736c0-2.61,2.139-4.733,4.766-4.733
		c2.628,0,4.767,2.123,4.767,4.733C899.633,413.021,897.494,415.144,894.866,415.144z M894.866,406.994
		c-1.899,0-3.445,1.532-3.445,3.413c0,1.883,1.546,3.416,3.445,3.416c1.9,0,3.444-1.533,3.444-3.416
		C898.311,408.526,896.767,406.994,894.866,406.994z"/>
	<ellipse fill="#F89422" cx="894.866" cy="410.409" rx="1.736" ry="1.722"/>
	<path fill="#EE8322" d="M894.38,410.407c0-0.73,0.46-1.354,1.111-1.604c-0.193-0.075-0.405-0.116-0.625-0.116
		c-0.959,0-1.735,0.771-1.735,1.721c0,0.951,0.776,1.724,1.735,1.724c0.22,0,0.432-0.042,0.625-0.117
		C894.84,411.765,894.38,411.14,894.38,410.407z"/>
	<path fill="#DB722A" d="M894.866,412.791c-1.32,0-2.397-1.069-2.397-2.384c0-1.312,1.077-2.383,2.397-2.383
		c1.319,0,2.397,1.07,2.397,2.383C897.264,411.722,896.186,412.791,894.866,412.791z M894.866,409.347
		c-0.593,0-1.074,0.477-1.074,1.061c0,0.586,0.481,1.062,1.074,1.062s1.073-0.476,1.073-1.062
		C895.939,409.823,895.459,409.347,894.866,409.347z"/>
</g>
<circle fill="#05AF8E" cx="792.938" cy="125.914" r="2.981"/>
<g>
	<path fill="#129491" d="M796.958,125.912c0-2.215-1.805-4.017-4.02-4.017c-2.214,0-4.018,1.802-4.018,4.017
		c0,1.857,1.269,3.425,2.981,3.882v3.985h2.072v-3.985C795.692,129.337,796.958,127.77,796.958,125.912z M792.938,127.858
		c-1.069,0-1.942-0.873-1.942-1.946s0.873-1.945,1.942-1.945c1.074,0,1.948,0.872,1.948,1.945S794.013,127.858,792.938,127.858z"/>
	<path fill="#129491" d="M799.944,163.372h5.334c0-0.008,0.001-0.014,0.001-0.021v-15.782c0-0.984-0.797-1.781-1.781-1.781h-4.068
		v17.935C799.51,163.518,799.709,163.372,799.944,163.372z"/>
</g>
<path fill="#05AF8E" d="M798.73,174.841l-2.596-1.553c-0.111-0.066-0.178-0.153-0.178-0.236c0-0.083,0.066-0.168,0.178-0.237
	l2.596-1.551c0.372-0.222,0.662-0.733,0.662-1.165v-6.175c0-0.176,0.082-0.331,0.209-0.432V137.74c0-2.279-1.847-4.126-4.126-4.126
	h-13.059v44.799h13.059c1.778,0,3.294-1.125,3.873-2.7C799.256,175.364,799.021,175.013,798.73,174.841z"/>
<g>
	<path fill="#72C27E" d="M799.393,164.232h-3.92l-1.951-3.378c-0.653,0.263-1.367,0.41-2.112,0.41c-0.015,0-0.029-0.001-0.047-0.001
		l2.409,4.166c0.298,0.517,0.921,0.877,1.519,0.877h4.103V164.232L799.393,164.232L799.393,164.232z"/>
	<path fill="#72C27E" d="M795.29,145.87c-0.598,0-1.221,0.36-1.519,0.876l-1.854,3.21c0.733,0.065,1.424,0.272,2.051,0.59
		l1.504-2.604h4.129v-2.072H795.29L795.29,145.87z"/>
	<path fill="#72C27E" d="M782.588,133.613v2.871h5.092c1.414,0,2.568-1.157,2.568-2.571v-0.299H782.588L782.588,133.613z"/>
</g>
<path fill="#129491" d="M789.477,166.238h-7.06v4.421h7.06c0.759,0,1.38-0.621,1.38-1.38v-1.659
	C790.856,166.86,790.235,166.238,789.477,166.238z"/>
<path fill="#FFE2B9" d="M767.069,151.38h-1.513c-1.227,0-2.221,0.996-2.221,2.222v7.404c0,1.228,0.994,2.221,2.221,2.221h1.513
	V151.38z"/>
<path fill="#DB722A" d="M777.778,133.613c-2.938,0-5.601,1.169-7.552,3.065l1.932,1.115c0.112,0.065,0.177,0.147,0.177,0.226
	c0,0.078-0.064,0.161-0.177,0.226l-2.63,1.519c-0.375,0.217-0.669,0.722-0.669,1.156v2.53c0,0.306-0.247,0.553-0.553,0.553h-1.365
	c-0.007,0.152-0.011,0.304-0.011,0.458v9.997c0-7.558,6.127-12.756,13.685-12.756h1.973v-8.089
	C782.039,133.529,777.778,133.613,777.778,133.613z"/>
<path fill="#FFE2B9" d="M782.588,141.3h-1.973c-7.558,0-13.685,5.199-13.685,12.757v9.974c0,7.558,6.707,14.381,14.265,14.381h1.393
	V141.3L782.588,141.3z"/>
<g>
	<path fill="#EBAB48" d="M774.76,158.681c-0.572,0-1.036-0.463-1.036-1.036v-2.915c0-0.573,0.464-1.036,1.036-1.036
		c0.571,0,1.036,0.463,1.036,1.036v2.915C775.796,158.218,775.331,158.681,774.76,158.681z"/>
	<path fill="#EBAB48" d="M782.588,162.348h-0.008v-4.442c0-0.573-0.463-1.037-1.037-1.037c-0.571,0-1.035,0.464-1.035,1.037v4.788
		c0,0.952,0.774,1.728,1.726,1.728h0.354V162.348z"/>
	<path fill="#EBAB48" d="M782.588,167.451h-4.293c-0.57,0-1.036,0.465-1.036,1.036c0,0.573,0.466,1.038,1.036,1.038h4.293V167.451z"
		/>
</g>
<path fill="#129491" d="M791.409,161.264c-3.124,0-5.668-2.542-5.668-5.665c0-3.124,2.544-5.666,5.668-5.666
	c3.125,0,5.664,2.542,5.664,5.666C797.073,158.722,794.534,161.264,791.409,161.264z"/>
<circle fill="#72C27E" cx="791.409" cy="155.597" r="2.763"/>
<path fill="#05AF8E" d="M790.112,155.599c0-1.272,0.859-2.342,2.03-2.663c-0.237-0.063-0.481-0.102-0.733-0.102
	c-1.527,0-2.765,1.237-2.765,2.765c0,1.525,1.237,2.762,2.765,2.762c0.252,0,0.496-0.038,0.733-0.101
	C790.972,157.938,790.112,156.87,790.112,155.599z"/>
<path fill="#72C27E" d="M805.279,151.007h-1.527c-0.454,0-0.821,0.367-0.821,0.82v7.267c0,0.452,0.367,0.82,0.821,0.82h1.527
	V151.007z"/>
<path fill="#F37986" d="M749.626,144.144c-0.381,0-0.692-0.312-0.692-0.693v-18.683c0-0.379,0.312-0.691,0.692-0.691h18.683
	c0.378,0,0.688,0.312,0.688,0.691v10.35c0,0.379,0.269,0.845,0.599,1.036l2.63,1.519c0.331,0.191,0.331,0.502,0,0.691l-2.63,1.519
	c-0.33,0.19-0.599,0.657-0.599,1.038v2.53c0,0.381-0.311,0.693-0.688,0.693H749.626z"/>
<path fill="#FFFFFF" d="M758.431,140.51c-0.19,0-0.37-0.074-0.505-0.21l-5.514-5.562c-0.666-0.67-1.033-1.563-1.033-2.514
	c0-0.951,0.367-1.844,1.033-2.515c0.664-0.672,1.55-1.041,2.492-1.041c0.94,0,1.826,0.368,2.494,1.041l1.05,1.061l1.054-1.061
	c0.666-0.672,1.551-1.041,2.492-1.041c0.945,0,1.83,0.368,2.494,1.041c0.666,0.671,1.032,1.564,1.032,2.515
	c0,0.95-0.366,1.842-1.032,2.514l-5.56,5.565C758.797,140.438,758.617,140.51,758.431,140.51z"/>
<path fill="#242D62" d="M796.065,172.698c-0.328,0.196-0.328,0.514,0,0.71l2.594,1.552c0.329,0.194,0.595,0.665,0.595,1.046v6.176
	c0,0.38,0.311,0.689,0.69,0.689h19.047c0.381,0,0.693-0.309,0.693-0.689v-18.258c0-0.38-0.312-0.691-0.693-0.691h-19.047
	c-0.38,0-0.69,0.311-0.69,0.691v6.176c0,0.379-0.266,0.85-0.595,1.045L796.065,172.698z"/>
<g>
	<path fill="#C4DEF4" d="M809.297,175.282L809.297,175.282c-0.392,0-0.752-0.224-0.928-0.573l-1.849-3.689l-1.243,2.479
		c-0.174,0.351-0.533,0.572-0.927,0.572h-2.08c-0.572,0-1.037-0.465-1.037-1.038c0-0.571,0.465-1.035,1.037-1.035h1.442l1.88-3.754
		c0.176-0.351,0.536-0.573,0.928-0.573l0,0c0.393,0,0.75,0.222,0.926,0.573l1.851,3.688l2.457-4.9
		c0.179-0.36,0.553-0.583,0.953-0.572c0.401,0.01,0.76,0.251,0.919,0.62l2.159,4.918h1.578c0.572,0,1.036,0.462,1.036,1.035
		s-0.464,1.038-1.036,1.038h-2.255c-0.411,0-0.784-0.244-0.95-0.621l-1.542-3.515l-2.394,4.775
		C810.046,175.059,809.689,175.282,809.297,175.282z"/>
	<path fill="#C4DEF4" d="M805.312,179.725h-2.9c-0.572,0-1.036-0.465-1.036-1.037c0-0.573,0.464-1.036,1.036-1.036h2.9
		c0.573,0,1.038,0.463,1.038,1.036C806.35,179.26,805.885,179.725,805.312,179.725z"/>
	<path fill="#C4DEF4" d="M809.594,179.725h-1.61c-0.572,0-1.036-0.465-1.036-1.037c0-0.573,0.464-1.036,1.036-1.036h1.61
		c0.575,0,1.035,0.463,1.035,1.036C810.629,179.26,810.169,179.725,809.594,179.725z"/>
	<path fill="#C4DEF4" d="M813.314,179.725h-1.128c-0.572,0-1.036-0.465-1.036-1.037c0-0.573,0.464-1.036,1.036-1.036h1.128
		c0.572,0,1.034,0.463,1.034,1.036C814.349,179.26,813.887,179.725,813.314,179.725z"/>
	<path fill="#C4DEF4" d="M816.942,179.725h-1.129c-0.572,0-1.035-0.465-1.035-1.037c0-0.573,0.463-1.036,1.035-1.036h1.129
		c0.572,0,1.036,0.463,1.036,1.036C817.979,179.26,817.515,179.725,816.942,179.725z"/>
</g>
<g>
	<path fill="#72C27E" d="M795.361,138.045c0.697,0,1.264,0.564,1.264,1.26c0,0.698-0.566,1.261-1.264,1.261
		c-0.694,0-1.259-0.563-1.259-1.261C794.103,138.609,794.667,138.045,795.361,138.045z"/>
	<circle fill="#72C27E" cx="791.601" cy="139.305" r="1.26"/>
	<circle fill="#72C27E" cx="787.832" cy="139.306" r="1.261"/>
</g>
<g>
	<path fill="#FFD15D" d="M715.929,484.681c0.465-1.554,1.397-2.95,2.641-4.038c2.329-1.941,3.806-4.891,3.806-8.153
		c0-6.057-5.049-11.027-11.262-10.719c-5.513,0.235-10.018,4.894-10.174,10.41c-0.076,3.414,1.4,6.441,3.806,8.462
		c1.321,1.088,2.253,2.484,2.718,4.038H715.929L715.929,484.681z"/>
	<path fill="#FFFFFF" d="M710.647,484.835h0.697l-3.105-11.571c0.078,0,0.156,0,0.232,0c0.39,0,0.778-0.154,1.086-0.465
		c0.158-0.153,0.313-0.233,0.547-0.233s0.387,0.08,0.543,0.233c0.543,0.622,1.476,0.622,2.019,0c0.155-0.153,0.31-0.233,0.546-0.233
		c0.152,0,0.386,0.08,0.543,0.233c0.31,0.311,0.621,0.465,1.087,0.465c0.076,0,0.152,0,0.231,0l-3.028,11.571h0.699l3.185-12.114
		c0-0.155,0-0.308-0.157-0.387c-0.154-0.078-0.311,0-0.387,0.079c-0.156,0.152-0.312,0.232-0.467,0.232
		c-0.232,0-0.388-0.08-0.619-0.232c-0.312-0.312-0.622-0.467-1.011-0.467c-0.39,0-0.699,0.155-1.009,0.467
		c-0.312,0.308-0.777,0.308-1.089,0c-0.231-0.312-0.62-0.467-1.01-0.467l0,0c-0.387,0-0.775,0.155-1.009,0.467
		c-0.155,0.152-0.39,0.232-0.622,0.232c-0.154,0-0.39-0.08-0.466-0.232c-0.078-0.079-0.231-0.157-0.389-0.079
		c-0.154,0.079-0.232,0.231-0.154,0.387L710.647,484.835z"/>
	<g>
		<path fill="#354B5E" d="M709.25,491.825c0.387,0.933,1.32,1.63,2.406,1.63c1.088,0,2.021-0.697,2.408-1.63H709.25z"/>
		<path fill="#354B5E" d="M714.53,491.903h-5.669c-0.777,0-1.398-0.621-1.398-1.398v-5.902h8.466v5.902
			C715.929,491.282,715.306,491.903,714.53,491.903z"/>
	</g>
	<g>
		<path fill="#435B6C" d="M715.85,487.554h-8.387c-0.465,0-0.853-0.388-0.853-0.854l0,0c0-0.465,0.388-0.855,0.853-0.855h8.387
			c0.466,0,0.854,0.391,0.854,0.855l0,0C716.703,487.166,716.315,487.554,715.85,487.554z"/>
		<path fill="#435B6C" d="M715.85,490.273h-8.387c-0.465,0-0.853-0.389-0.853-0.854l0,0c0-0.465,0.388-0.855,0.853-0.855h8.387
			c0.466,0,0.854,0.391,0.854,0.855l0,0C716.703,489.885,716.315,490.273,715.85,490.273z"/>
	</g>
	<g>
		<path fill="#FFD15D" d="M711.656,456.182c-0.39,0-0.775,0.31-0.775,0.776v2.64c0,0.389,0.31,0.778,0.775,0.778
			c0.467,0,0.775-0.312,0.775-0.778v-2.64C712.432,456.491,712.045,456.182,711.656,456.182z"/>
		<path fill="#FFD15D" d="M701.251,460.916c-0.312-0.308-0.777-0.308-1.088,0c-0.312,0.311-0.312,0.778,0,1.09l1.864,1.863
			c0.312,0.312,0.778,0.312,1.088,0c0.31-0.31,0.31-0.776,0-1.087L701.251,460.916z"/>
		<path fill="#FFD15D" d="M698.845,471.635h-2.643c-0.387,0-0.776,0.312-0.776,0.778l0,0c0,0.386,0.312,0.774,0.776,0.774h2.643
			c0.386,0,0.774-0.311,0.774-0.774l0,0C699.619,472.022,699.23,471.635,698.845,471.635z"/>
		<path fill="#FFD15D" d="M702.027,480.953l-1.864,1.863c-0.312,0.311-0.312,0.778,0,1.09c0.311,0.308,0.776,0.308,1.088,0
			l1.864-1.865c0.31-0.311,0.31-0.775,0-1.088C702.806,480.643,702.34,480.643,702.027,480.953z"/>
		<path fill="#FFD15D" d="M721.287,480.953c-0.311-0.311-0.777-0.311-1.089,0c-0.31,0.312-0.31,0.777,0,1.088l1.865,1.865
			c0.311,0.308,0.775,0.308,1.087,0c0.31-0.312,0.31-0.779,0-1.09L721.287,480.953z"/>
		<path fill="#FFD15D" d="M727.11,471.635h-2.642c-0.387,0-0.774,0.312-0.774,0.778l0,0c0,0.386,0.31,0.774,0.774,0.774h2.642
			c0.389,0,0.776-0.311,0.776-0.774l0,0C727.887,472.022,727.575,471.635,727.11,471.635z"/>
		<path fill="#FFD15D" d="M722.063,460.916l-1.865,1.866c-0.31,0.311-0.31,0.777,0,1.087c0.312,0.312,0.778,0.312,1.089,0
			l1.863-1.863c0.31-0.312,0.31-0.779,0-1.09C722.839,460.608,722.374,460.608,722.063,460.916z"/>
	</g>
</g>
<g>
	<path fill="#434B60" d="M634.41,693.888h-19.673c-1.468,0-2.658-1.188-2.658-2.658v-39.978c0-1.47,1.19-2.658,2.658-2.658h19.672
		c1.472,0,2.66,1.188,2.66,2.658v39.974C637.069,692.699,635.881,693.888,634.41,693.888z"/>
	<rect x="612.079" y="653.278" fill="#E7ECEC" width="24.99" height="31.237"/>
	<path fill="#262B36" d="M624.573,686.859c1.296,0,2.345,1.048,2.345,2.343c0,1.293-1.049,2.341-2.345,2.341
		c-1.291,0-2.342-1.048-2.342-2.341C622.231,687.907,623.282,686.859,624.573,686.859z"/>
	<path fill="#262B36" d="M624.573,651.717h-3.121c-0.433,0-0.781-0.35-0.781-0.781c0-0.433,0.349-0.78,0.781-0.78h3.121
		c0.432,0,0.782,0.348,0.782,0.78C625.355,651.367,625.005,651.717,624.573,651.717z"/>
	<path fill="#262B36" d="M627.698,651.717h-0.78c-0.434,0-0.781-0.35-0.781-0.781c0-0.433,0.348-0.78,0.781-0.78h0.78
		c0.431,0,0.78,0.348,0.78,0.78C628.479,651.367,628.129,651.717,627.698,651.717z"/>
	<polygon fill="#1C4073" points="657.935,657.966 629.82,657.966 629.82,672.802 632.945,672.802 632.945,677.488 639.193,672.802 
		657.935,672.802 	"/>
	<g>
		<path fill="#D3DFF2" d="M634.507,664.212h7.811c0.431,0,0.78-0.35,0.78-0.781c0-0.433-0.35-0.783-0.78-0.783h-7.811
			c-0.431,0-0.781,0.351-0.781,0.783C633.726,663.862,634.076,664.212,634.507,664.212z"/>
		<path fill="#D3DFF2" d="M653.25,666.555h-18.743c-0.431,0-0.781,0.35-0.781,0.782c0,0.432,0.351,0.78,0.781,0.78h18.743
			c0.432,0,0.78-0.349,0.78-0.78C654.03,666.904,653.682,666.555,653.25,666.555z"/>
	</g>
</g>
<g>
	<polygon fill="#EFCF4A" points="439.897,97.853 427.493,104.94 415.087,97.853 427.493,90.809 	"/>
	<polygon fill="#EC8A23" points="427.493,104.94 419.793,100.542 415.087,103.213 427.493,110.3 439.897,103.213 435.191,100.542 	
		"/>
	<g>
		<polygon fill="#EA6348" points="427.493,110.3 419.793,105.902 415.087,108.573 427.493,115.661 439.897,108.573 435.191,105.902 
					"/>
	</g>
</g>
<path fill="#90A4AE" d="M987.741,217.639c0,17.299-14.022,31.321-31.322,31.321c-11.064,0-20.79-5.737-26.361-14.401h2.379
	c0.675,0,1.224-0.547,1.224-1.223v-34.784c0-0.631-0.478-1.15-1.092-1.217c5.747-6.742,14.298-11.019,23.851-11.019
	C973.719,186.316,987.741,200.339,987.741,217.639z"/>
<path fill="#6182C2" d="M974.038,198.552v34.784c0,0.675-0.547,1.223-1.223,1.223h-42.758c-0.859-1.332-1.616-2.735-2.269-4.195
	h1.589c0.339,0,0.611-0.274,0.611-0.612v-26.918c0-0.337-0.272-0.611-0.611-0.611h-0.23c0.989-1.743,2.138-3.381,3.429-4.896h40.239
	C973.491,197.327,974.038,197.875,974.038,198.552z"/>
<path fill="#ACCBE9" d="M971.592,202.833v26.918c0,0.337-0.275,0.612-0.613,0.612h-43.189c-1.73-3.888-2.694-8.194-2.694-12.724
	c0-5.605,1.475-10.865,4.053-15.417h41.831C971.316,202.223,971.592,202.496,971.592,202.833z"/>
<path fill="#93BAE3" d="M970.979,230.363h-40.742c-1.731-3.888-2.693-8.194-2.693-12.724c0-5.605,1.474-10.865,4.054-15.417h39.382
	c0.338,0,0.613,0.273,0.613,0.611v26.918C971.592,230.089,971.316,230.363,970.979,230.363z"/>
<path fill="#516EA1" d="M977.708,233.422v0.526c0,2.026-1.643,3.67-3.67,3.67h-41.743c-1.235-1.492-2.337-3.101-3.282-4.808h48.083
	C977.436,232.81,977.708,233.085,977.708,233.422z"/>
<path fill="#415B88" d="M977.694,234.247c-0.151,1.887-1.731,3.372-3.656,3.372h-41.743c-0.652-0.784-1.262-1.602-1.835-2.447
	h44.802C976.195,235.171,977.047,234.821,977.694,234.247z M944.673,201c0.676,0,1.225-0.55,1.225-1.225
	c0-0.675-0.549-1.223-1.225-1.223c-0.675,0-1.223,0.548-1.223,1.223C943.45,200.45,943.998,201,944.673,201z"/>
<path fill="#F7D13A" d="M953.237,210.938v1.224c0,0.338-0.272,0.611-0.61,0.611h-7.343c-0.338,0-0.611-0.273-0.611-0.611v-1.224
	c0-0.338,0.273-0.611,0.611-0.611h7.343C952.965,210.327,953.237,210.6,953.237,210.938z M936.718,219.352h-2.444
	c-0.338,0-0.613,0.274-0.613,0.611v1.225c0,0.338,0.275,0.611,0.613,0.611h2.444c0.342,0,0.614-0.273,0.614-0.611v-1.225
	C937.332,219.626,937.06,219.352,936.718,219.352z"/>
<path fill="#FDF278" d="M928.766,207.729v-1.224c0-0.338,0.277-0.612,0.612-0.612h11.011c0.34,0,0.614,0.274,0.614,0.612v1.224
	c0,0.337-0.274,0.612-0.614,0.612h-11.011C929.043,208.34,928.766,208.066,928.766,207.729z M940.389,224.246h-11.011
	c-0.335,0-0.612,0.274-0.612,0.612v1.223c0,0.337,0.277,0.611,0.612,0.611h11.011c0.34,0,0.614-0.273,0.614-0.611v-1.223
	C941.003,224.521,940.729,224.246,940.389,224.246z M933.66,210.938v1.224c0,0.338,0.275,0.611,0.613,0.611h8.562
	c0.34,0,0.615-0.273,0.615-0.611v-1.224c0-0.338-0.275-0.611-0.615-0.611h-8.562C933.936,210.327,933.66,210.6,933.66,210.938z
	 M934.273,214.918c-0.338,0-0.613,0.273-0.613,0.611v1.223c0,0.338,0.275,0.611,0.613,0.611h4.895c0.336,0,0.61-0.273,0.61-0.611
	v-1.223c0-0.338-0.274-0.611-0.61-0.611H934.273z M955.074,214.918h-3.672c-0.337,0-0.611,0.273-0.611,0.611v1.223
	c0,0.338,0.274,0.611,0.611,0.611h3.672c0.336,0,0.609-0.273,0.609-0.611v-1.223C955.684,215.191,955.41,214.918,955.074,214.918z
	 M961.191,214.918h-3.67c-0.34,0-0.613,0.273-0.613,0.611v1.223c0,0.338,0.273,0.611,0.613,0.611h3.67
	c0.337,0,0.611-0.273,0.611-0.611v-1.223C961.803,215.191,961.528,214.918,961.191,214.918z M948.954,214.918h-7.341
	c-0.338,0-0.61,0.273-0.61,0.611v1.223c0,0.338,0.272,0.611,0.61,0.611h7.341c0.339,0,0.613-0.273,0.613-0.611v-1.223
	C949.567,215.191,949.293,214.918,948.954,214.918z M944.061,219.352h-4.893c-0.339,0-0.612,0.274-0.612,0.611v1.225
	c0,0.338,0.273,0.611,0.612,0.611h4.893c0.339,0,0.612-0.273,0.612-0.611v-1.225C944.673,219.626,944.399,219.352,944.061,219.352z"
	/>
<g>
	<path fill="#5675A1" d="M932.437,219.963v1.225c0,0.338-0.272,0.611-0.61,0.611h-2.448c-0.335,0-0.612-0.273-0.612-0.611v-1.225
		c0-0.337,0.277-0.611,0.612-0.611h2.448C932.164,219.352,932.437,219.626,932.437,219.963z M931.826,214.918h-2.448
		c-0.335,0-0.612,0.273-0.612,0.611v1.223c0,0.338,0.277,0.611,0.612,0.611h2.448c0.338,0,0.61-0.273,0.61-0.611v-1.223
		C932.437,215.191,932.164,214.918,931.826,214.918z M931.826,210.327h-2.448c-0.335,0-0.612,0.273-0.612,0.611v1.224
		c0,0.338,0.277,0.611,0.612,0.611h2.448c0.338,0,0.61-0.273,0.61-0.611v-1.224C932.437,210.6,932.164,210.327,931.826,210.327z"/>
	<path fill="#13264B" d="M984.071,192.434v17.129c0,0.675-0.548,1.224-1.226,1.224H970.96l-3.098,3.097
		c-0.239,0.24-0.626,0.24-0.865,0l-3.097-3.097h-11.888c-0.673,0-1.222-0.548-1.222-1.224v-17.129c0-0.675,0.549-1.223,1.222-1.223
		h30.833C983.523,191.211,984.071,191.759,984.071,192.434z"/>
</g>
<path fill="#D3DFF2" d="M970.406,197.322l-2.221,4.761l-1.694,3.636c-0.207,0.441-0.731,0.633-1.173,0.427l-0.639-0.298
	c-0.44-0.207-0.632-0.732-0.428-1.173l1.696-3.636l2.222-4.76c0.205-0.441,0.729-0.632,1.172-0.427l0.64,0.298
	C970.422,196.355,970.611,196.882,970.406,197.322z M962.891,196.92l-0.5-0.498c-0.343-0.344-0.902-0.344-1.246,0l-3.783,3.783
	c-0.158,0.156-0.24,0.355-0.258,0.56c-0.003,0.078-0.002,0.363-0.001,0.425c0.007,0.218,0.091,0.435,0.259,0.601l3.783,3.783
	c0.344,0.344,0.903,0.344,1.246,0l0.5-0.499c0.344-0.344,0.344-0.904,0-1.248l-2.83-2.828l2.83-2.83
	C963.234,197.826,963.234,197.267,962.891,196.92z M977.757,200.807c-0.004-0.219-0.091-0.434-0.257-0.601l-3.781-3.784
	c-0.346-0.344-0.903-0.344-1.25,0l-0.496,0.498c-0.344,0.346-0.344,0.905,0,1.249l2.828,2.83l-2.829,2.828
	c-0.343,0.344-0.343,0.904,0,1.248l0.497,0.499c0.347,0.344,0.904,0.344,1.248,0l3.783-3.783c0.156-0.156,0.242-0.356,0.255-0.56
	C977.762,201.154,977.759,200.866,977.757,200.807z"/>
<g>
	<path fill="#CFEBEC" d="M65.314,364.489v-9.679H53.262v9.679c-5.186,2.309-8.801,7.508-8.801,13.552
		c0,8.19,6.637,14.828,14.827,14.828c8.19,0,14.83-6.638,14.83-14.828C74.118,371.997,70.5,366.798,65.314,364.489z"/>
	<path fill="#F7D362" d="M71.116,378.041c0,6.522-5.306,11.827-11.829,11.827c-2.145,0-4.159-0.573-5.895-1.578
		c-3.543-2.042-5.933-5.873-5.933-10.249c0-3.272,1.356-6.334,3.635-8.527h16.388C69.761,371.707,71.116,374.769,71.116,378.041z"/>
	<path fill="#E6E6E5" d="M54.202,386.421l-9.63-16.68v-8.629H35.42v8.629l-9.63,16.68c-1.655,2.866,0.414,6.448,3.723,6.448h20.967
		C53.788,392.869,55.856,389.287,54.202,386.421z"/>
	<path fill="#CDCCCC" d="M47.89,359.161c0,1.076-0.873,1.951-1.95,1.951H34.052c-0.539,0-1.026-0.218-1.379-0.572
		c-0.353-0.353-0.572-0.84-0.572-1.378c0-1.078,0.873-1.952,1.951-1.952h11.887c0.538,0,1.027,0.219,1.38,0.57
		C47.672,358.135,47.89,358.623,47.89,359.161z"/>
	<path fill="#E6E6E5" d="M47.89,359.161c0,1.076-1.247,1.951-2.785,1.951H34.886c-0.771,0-1.465-0.218-1.97-0.572
		c-0.504-0.353-0.815-0.84-0.815-1.378c0-1.078,1.247-1.952,2.785-1.952h10.219c0.768,0,1.466,0.219,1.97,0.57
		C47.578,358.135,47.89,358.623,47.89,359.161z"/>
	<path fill="#75CABE" d="M68.674,354.359c0,1.077-0.874,1.951-1.952,1.951H52.018c-0.538,0-1.026-0.219-1.38-0.571
		c-0.353-0.354-0.57-0.841-0.57-1.379c0-1.078,0.873-1.951,1.95-1.951h14.705c0.54,0,1.027,0.217,1.38,0.571
		C68.455,353.333,68.674,353.821,68.674,354.359z"/>
	<path fill="#CFEBEC" d="M68.674,354.359c0,1.077-1.157,1.951-2.584,1.951H52.65c-0.713,0-1.359-0.219-1.827-0.571
		c-0.468-0.354-0.756-0.841-0.756-1.379c0-1.078,1.156-1.951,2.583-1.951H66.09c0.713,0,1.36,0.217,1.827,0.571
		C68.385,353.333,68.674,353.821,68.674,354.359z"/>
	<path fill="#F16062" d="M51.603,389.219c-0.141,0.244-0.473,0.649-1.124,0.649H29.512c-0.652,0-0.984-0.405-1.124-0.649
		c-0.14-0.242-0.327-0.731,0-1.297l7.077-12.257h9.062l7.076,12.257C51.929,388.487,51.743,388.977,51.603,389.219z"/>
	<g>
		<path fill="#E83943" d="M41.609,384.216c-0.682,0-1.006-0.875-0.486-1.321c0.516-0.44,1.326,0.009,1.229,0.682
			C42.298,383.94,41.976,384.216,41.609,384.216z"/>
		<path fill="#E83943" d="M38.3,353.459c-0.656,0-0.992-0.818-0.531-1.281c0.25-0.249,0.654-0.288,0.947-0.093
			c0.256,0.171,0.385,0.493,0.315,0.794C38.952,353.214,38.644,353.459,38.3,353.459z"/>
		<path fill="#E83943" d="M41.286,350.609c-0.679,0-1.011-0.88-0.487-1.322c0.248-0.209,0.612-0.236,0.888-0.062
			c0.265,0.167,0.401,0.498,0.33,0.803C41.938,350.362,41.631,350.609,41.286,350.609z"/>
		<path fill="#E83943" d="M39.659,346.258c-0.327,0-0.622-0.221-0.718-0.533c-0.095-0.312,0.03-0.663,0.302-0.842
			c0.556-0.373,1.31,0.153,1.145,0.806C40.302,346.019,40,346.258,39.659,346.258z"/>
	</g>
	<path fill="#FFFFFF" d="M65.875,374.165c-0.666,0-1-0.851-0.507-1.303c0.47-0.432,1.258-0.086,1.258,0.553
		C66.626,373.822,66.284,374.165,65.875,374.165z"/>
	<path fill="#FFFFFF" d="M66.398,379.168c-0.654,0-0.996-0.819-0.529-1.28c0.232-0.23,0.594-0.285,0.883-0.131
		c0.277,0.147,0.433,0.461,0.389,0.771C67.087,378.892,66.764,379.168,66.398,379.168z"/>
	<path fill="#FFFFFF" d="M56.613,384.817c-0.321,0-0.61-0.211-0.711-0.516c-0.107-0.321,0.022-0.685,0.308-0.866
		c0.564-0.362,1.307,0.181,1.125,0.83C57.248,384.586,56.947,384.817,56.613,384.817z"/>
	<path fill="#FFFFFF" d="M53.162,378.515c-0.678,0-1.006-0.875-0.49-1.318c0.248-0.213,0.612-0.239,0.889-0.067
		c0.263,0.163,0.4,0.485,0.336,0.789C53.824,378.262,53.513,378.515,53.162,378.515z"/>
	<path fill="#FFFFFF" d="M62.314,376.713c-0.671,0-1.003-0.855-0.503-1.305c0.249-0.223,0.622-0.254,0.904-0.077
		c0.259,0.163,0.395,0.481,0.335,0.78C62.981,376.458,62.667,376.713,62.314,376.713z"/>
	<path fill="#E83943" d="M36.358,385.77c-0.3,0-0.577-0.186-0.693-0.463c-0.126-0.304-0.031-0.673,0.229-0.876
		c0.535-0.418,1.337,0.065,1.2,0.735C37.023,385.513,36.712,385.77,36.358,385.77z"/>
	<path fill="#E83943" d="M38.309,380.916c-0.313,0-0.6-0.201-0.706-0.497c-0.112-0.314,0.002-0.678,0.277-0.869
		c0.534-0.369,1.284,0.1,1.168,0.745C38.984,380.649,38.669,380.916,38.309,380.916z"/>
</g>
<g>
	<path fill="#E54D3C" d="M302.294,356.024v22.196c-0.005,1.36-1.106,2.461-2.467,2.466h-56.721
		c-1.359-0.005-2.461-1.106-2.466-2.466v-22.196h27.127v6.167c0.004,1.359,1.106,2.461,2.466,2.465h2.466
		c1.359-0.004,2.463-1.106,2.467-2.465v-6.167H302.294z"/>
	<path fill="#C03B2B" d="M299.827,320.267v29.593h-4.933v-25.894h-46.855v25.894h-4.933v-29.593
		c0.002-0.681,0.553-1.232,1.233-1.234h54.255C299.273,319.034,299.825,319.586,299.827,320.267z"/>
	<path fill="#47505E" d="M294.894,324.087v25.772h-17.473l-2.465-2.465l5.315-5.314c0.421-0.4,1.059-0.466,1.554-0.161
		c1.447,0.821,3.264,0.574,4.439-0.604l2.614-2.614c1.443-1.443,1.443-3.785,0-5.228l-2.614,2.614c-0.964,0.963-2.526,0.963-3.489,0
		c-0.964-0.964-0.964-2.526,0-3.49l2.612-2.614c-1.442-1.443-3.783-1.443-5.228,0l-2.614,2.614
		c-1.179,1.174-1.426,2.992-0.604,4.438c0.305,0.496,0.239,1.134-0.16,1.555l-5.315,5.313l-5.313-5.313
		c-0.4-0.422-0.466-1.06-0.161-1.556c0.821-1.446,0.575-3.264-0.604-4.438l-2.613-2.614c-1.444-1.443-3.784-1.443-5.229,0
		l2.614,2.614c0.965,0.963,0.965,2.526,0,3.49c-0.963,0.963-2.525,0.963-3.489,0l-2.614-2.614c-1.442,1.443-1.442,3.785,0,5.228
		l2.614,2.614c1.175,1.178,2.993,1.425,4.439,0.604c0.494-0.306,1.132-0.24,1.553,0.161l5.315,5.314l-2.466,2.465h-17.472v-25.772
		c0.035-0.05,0.081-0.091,0.136-0.122h46.584C294.813,323.996,294.859,324.039,294.894,324.087z"/>
	<path fill="#E7E7E7" d="M271.466,343.903l-3.489,3.491l-5.315-5.314c-0.421-0.4-1.059-0.466-1.553-0.161
		c-1.446,0.821-3.264,0.574-4.438-0.604l-2.615-2.614c-1.442-1.443-1.442-3.785,0-5.228l2.615,2.614
		c0.963,0.963,2.525,0.963,3.488,0c0.965-0.964,0.965-2.526,0-3.49l-2.612-2.614c1.443-1.443,3.783-1.443,5.228,0l2.614,2.614
		c1.179,1.174,1.425,2.992,0.604,4.438c-0.306,0.496-0.24,1.134,0.16,1.555L271.466,343.903z"/>
	<path fill="#95A5A4" d="M288.877,338.701l-2.614,2.614c-1.175,1.178-2.992,1.425-4.439,0.604c-0.495-0.306-1.132-0.24-1.554,0.161
		l-7.781,7.78h-6.979l11.271-11.269c0.399-0.422,0.465-1.06,0.16-1.556c-0.822-1.446-0.575-3.264,0.604-4.438l2.614-2.614
		c1.445-1.443,3.785-1.443,5.228,0l-2.612,2.614c-0.964,0.963-0.964,2.526,0,3.49c0.963,0.963,2.525,0.963,3.489,0l2.614-2.614
		C290.32,334.916,290.32,337.257,288.877,338.701z"/>
	<path fill="#BDC3C7" d="M275.166,356.024v6.167c-0.004,1.359-1.107,2.461-2.467,2.465h-2.466c-1.36-0.004-2.462-1.106-2.466-2.465
		v-6.167H275.166z"/>
	<polygon fill="#E7E7E7" points="277.421,349.859 272.49,349.859 274.956,347.394 	"/>
	<rect x="240.639" y="349.859" fill="#F05666" width="61.655" height="6.165"/>
</g>
<g>
	<path fill="#FDE504" d="M304.346,522.179c-4.881,0-8.838,3.956-8.838,8.836c0,4.694,3.659,8.532,8.278,8.822
		c-0.192-0.157-0.316-0.392-0.324-0.657l0,0c-0.483,0-0.877-0.394-0.877-0.876v-1.67c0-0.48-0.258-0.918-0.673-1.146
		c-1.671-0.918-2.672-2.675-2.613-4.58c0.081-2.573,2.153-4.712,4.717-4.872c1.409-0.09,2.752,0.393,3.776,1.357
		c1.011,0.951,1.59,2.289,1.59,3.677c0,1.832-1,3.525-2.611,4.415c-0.417,0.231-0.678,0.669-0.678,1.149v1.67
		c0,0.482-0.394,0.876-0.876,0.876l0,0c-0.008,0.266-0.133,0.501-0.324,0.657c4.626-0.281,8.291-4.123,8.291-8.822
		C313.182,526.135,309.226,522.179,304.346,522.179z"/>
	<g>
		<g>
			<path fill="#FDE504" d="M305.476,532.603c-0.432,0-0.653-0.252-0.814-0.436c-0.142-0.162-0.2-0.212-0.326-0.212
				c-0.126,0-0.182,0.05-0.324,0.212c-0.151,0.174-0.381,0.436-0.813,0.436c-0.431,0-0.662-0.262-0.814-0.436
				c-0.141-0.162-0.196-0.212-0.322-0.212c-0.181,0-0.326-0.147-0.326-0.327c0-0.177,0.145-0.325,0.326-0.325
				c0.431,0,0.66,0.264,0.813,0.437c0.14,0.161,0.197,0.216,0.323,0.216c0.127,0,0.183-0.055,0.324-0.216
				c0.152-0.173,0.382-0.437,0.814-0.437c0.432,0,0.653,0.252,0.814,0.437c0.143,0.161,0.199,0.216,0.326,0.216
				c0.126,0,0.184-0.055,0.324-0.216c0.153-0.173,0.382-0.437,0.814-0.437c0.181,0,0.325,0.148,0.325,0.325
				c0,0.18-0.145,0.327-0.325,0.327c-0.126,0-0.184,0.05-0.325,0.212C306.137,532.341,305.908,532.603,305.476,532.603z"/>
		</g>
	</g>
	<g>
		<g>
			<path fill="#FFFFFF" d="M305.929,536.452c-0.017,0-0.032-0.002-0.047-0.005c-0.118-0.026-0.193-0.143-0.168-0.263l1.097-5.044
				c0.026-0.118,0.142-0.195,0.261-0.168c0.118,0.025,0.194,0.143,0.168,0.262l-1.097,5.047
				C306.121,536.383,306.028,536.452,305.929,536.452z"/>
		</g>
	</g>
	<g>
		<g>
			<path fill="#FFFFFF" d="M302.759,536.452c-0.101,0-0.191-0.069-0.215-0.171l-1.096-5.047c-0.026-0.119,0.049-0.236,0.167-0.262
				c0.12-0.027,0.236,0.05,0.261,0.168l1.097,5.044c0.026,0.12-0.049,0.236-0.167,0.263
				C302.789,536.45,302.773,536.452,302.759,536.452z"/>
		</g>
	</g>
	<text transform="matrix(1 0 0 1 191.6787 539.8359)" fill="#FFFFFF" font-family="'BrandonGrotesque-Bold'" font-size="25.3656">PITCHSP</text>
	<text transform="matrix(1 0 0 1 313.4971 539.8359)" fill="#FFFFFF" font-family="'BrandonGrotesque-Bold'" font-size="25.3656">T</text>
</g>
<g>
	<path fill="#35AADF" d="M589.016,434.008l-2.082,4.929h-20.718l3.13-8.056c0-0.629,0.354-1.199,0.913-1.485l4.565-2.316
		l4.317-0.554l0.598,0.077h0.001l3.716,0.477l6.089,2.982C590.324,430.325,589.016,433.379,589.016,434.008z"/>
	<path fill="#289FC9" d="M579.739,426.603l-3.717,0.477l-4.566,2.316c-0.56,0.286-0.913,0.856-0.913,1.485v8.056h-1.197v-8.056
		c0-0.629,0.354-1.199,0.913-1.485l4.565-2.316l4.317-0.554L579.739,426.603z"/>
	<rect x="576.216" y="423.8" fill="#F8D5B9" width="6.053" height="3.894"/>
	<g>
		<circle fill="#E5BFA3" cx="573.247" cy="417.241" r="1.872"/>
		<path fill="#E5BFA3" d="M585.034,415.369c1.035,0,1.873,0.838,1.873,1.87c0,1.035-0.838,1.874-1.873,1.874
			c-1.031,0-1.872-0.839-1.872-1.874C583.162,416.207,584.003,415.369,585.034,415.369z"/>
		<path fill="#E5BFA3" d="M577.81,423.8L577.81,423.8h-1.596l0,0l0,0v1.646l0,0v1.629h1.596l0,0c0-0.553,0.459-0.993,1.011-0.967
			c0.106,0.004,0.211,0.005,0.321,0.005c1.131,0,2.191-0.278,3.127-0.769V423.8H577.81L577.81,423.8L577.81,423.8z"/>
	</g>
	<path fill="#F8D5B9" d="M585.886,408.677h-13.489v10.025c0,3.726,3.021,6.744,6.745,6.744l0,0c3.726,0,6.744-3.019,6.744-6.744
		V408.677L585.886,408.677z"/>
	<path fill="#E5BFA3" d="M585.09,406.183c-0.021-0.004-0.04-0.006-0.062-0.007c-0.194-0.018-0.387,0.056-0.53,0.188
		c-0.101,0.095-0.232,0.219-0.319,0.292c-1.138,0.942-2.582,1.458-4.073,1.458h-5.751c-0.63,0-1.208,0.209-1.677,0.562h-0.28v0.242
		c-0.507,0.505-0.819,1.2-0.819,1.971v4.133c0,0.49,0.354,0.898,0.819,0.981v2.698c0,3.726,3.021,6.744,6.745,6.744l0,0
		c0.252,0,0.501-0.014,0.743-0.04c-3.371-0.37-6.002-3.229-6.002-6.704v-3.979c0-0.623,0.489-1.15,1.108-1.174
		c0.02,0,0.04,0,0.058,0l0,0c0.636,0,1.254,0.212,1.746,0.61c0.645,0.517,1.467,0.933,2.347,0.825
		c1.755-0.215,1.704-1.376,2.344-1.893c0.497-0.396,1.113-0.609,1.748-0.609h0.027c0.812,0,1.446-0.303,1.447,0.508
		c0,0.546,0.431,3.037,0.975,3.051c0.286,0.005,0.545-0.108,0.733-0.292c0.178-0.182,0.29-0.432,0.29-0.708v-6.884
		C586.706,407.198,586.032,406.362,585.09,406.183z"/>
	<path fill="#5D5F71" d="M586.706,407.646v8.597c0,0.273-0.112,0.523-0.29,0.706c-0.188,0.188-0.447,0.299-0.733,0.291
		c-0.548-0.011-0.975-0.472-0.975-1.018v-1.713c0-0.407-0.166-0.773-0.432-1.041c-0.268-0.268-0.636-0.431-1.043-0.431
		c-0.635,0-1.251,0.214-1.748,0.611c-0.64,0.514-1.456,0.825-2.344,0.825c-0.887,0-1.703-0.312-2.345-0.825
		c-0.083-0.069-0.173-0.134-0.264-0.189c-0.001,0-0.004-0.002-0.004-0.002c-0.175-0.109-0.359-0.196-0.551-0.265
		c-0.299-0.104-0.609-0.155-0.93-0.155c-0.81,0-1.47,0.657-1.47,1.472v1.733c0,0.276-0.112,0.525-0.294,0.706
		c-0.181,0.182-0.433,0.292-0.707,0.292c-0.554,0-1.001-0.445-1.001-0.998v-5.865c0-1.533,1.245-2.776,2.776-2.776h5.751
		c1.491,0,2.936-0.514,4.073-1.458c0.087-0.074,0.219-0.194,0.319-0.29c0.144-0.136,0.336-0.208,0.532-0.191
		c0.021,0.003,0.04,0.005,0.062,0.009C586.032,405.848,586.706,406.686,586.706,407.646z"/>
	<path fill="#E5BFA3" d="M577.678,416.921c-0.037,0.31-0.311,0.539-0.627,0.539h-1.623c-0.171,0-0.324-0.069-0.438-0.182
		c-0.125-0.128-0.196-0.311-0.175-0.513c0.038-0.308,0.312-0.538,0.625-0.538h1.629c0.171,0,0.322,0.07,0.434,0.182
		C577.631,416.537,577.703,416.72,577.678,416.921z"/>
	<path fill="#FFFFFF" d="M577.678,417.352c-0.037,0.311-0.311,0.539-0.627,0.539h-1.623c-0.171,0-0.324-0.069-0.438-0.18
		c-0.125-0.129-0.196-0.312-0.175-0.513c0.038-0.311,0.312-0.538,0.625-0.538h1.629c0.171,0,0.322,0.067,0.434,0.181
		C577.631,416.969,577.703,417.15,577.678,417.352z"/>
	<path fill="#E5BFA3" d="M583.29,416.228h-1.642c-0.34,0-0.613,0.276-0.613,0.615l0,0c0,0.34,0.273,0.617,0.613,0.617h1.642
		c0.341,0,0.616-0.277,0.616-0.617l0,0C583.906,416.504,583.631,416.228,583.29,416.228z"/>
	<path fill="#FFFFFF" d="M583.29,416.66h-1.642c-0.34,0-0.613,0.275-0.613,0.615l0,0c0,0.341,0.273,0.615,0.613,0.615h1.642
		c0.341,0,0.616-0.274,0.616-0.615l0,0C583.906,416.936,583.631,416.66,583.29,416.66z"/>
	<path fill="#E5BFA3" d="M583.823,414.998h-2.704c-0.193,0-0.35,0.158-0.35,0.349l0,0c0,0.191,0.156,0.348,0.35,0.348h2.704
		c0.192,0,0.346-0.156,0.346-0.348l0,0C584.169,415.156,584.016,414.998,583.823,414.998z"/>
	<g>
		<path fill="#422510" d="M577.066,417.071c0,0.453-0.368,0.819-0.82,0.819c-0.449,0-0.817-0.366-0.817-0.819
			c0-0.148,0.039-0.291,0.111-0.411h1.414C577.025,416.78,577.066,416.923,577.066,417.071z"/>
		<path fill="#422510" d="M583.289,417.071c0,0.453-0.368,0.819-0.819,0.819c-0.452,0-0.818-0.366-0.818-0.819
			c0-0.148,0.04-0.291,0.113-0.411h1.412C583.247,416.78,583.289,416.923,583.289,417.071z"/>
	</g>
	<g>
		<path fill="#E5BFA3" d="M574.905,414.998c-0.192,0-0.354,0.15-0.357,0.341c-0.005,0.195,0.154,0.355,0.346,0.355h1.901
			c0.756,0,1.367,0.61,1.367,1.367v3.384h0.344c0.441,0,0.803-0.358,0.803-0.802v-3.602c0-0.576-0.469-1.044-1.045-1.044H574.905
			L574.905,414.998z"/>
		<path fill="#E5BFA3" d="M580.3,421.579c-0.753,0.247-1.564,0.247-2.315,0c-0.201-0.065-0.428,0.013-0.518,0.201l0,0
			c-0.09,0.187,0.033,0.432,0.282,0.513c0.904,0.298,1.882,0.298,2.785,0c0.251-0.081,0.374-0.326,0.284-0.513l0,0
			C580.729,421.592,580.498,421.514,580.3,421.579z"/>
		<path fill="#E5BFA3" d="M579.55,423.09h-0.814c-0.208,0-0.376,0.167-0.376,0.375l0,0c0,0.209,0.168,0.373,0.376,0.373h0.814
			c0.208,0,0.374-0.164,0.374-0.373l0,0C579.924,423.257,579.758,423.09,579.55,423.09z"/>
	</g>
	<polygon fill="#FFD15D" points="580.609,438.937 577.672,438.937 578.674,429.779 579.612,429.779 	"/>
	<path fill="#EDBB4C" d="M579.479,430.019h-0.673c-0.402,0-0.727-0.322-0.727-0.723v-0.878c0-0.399,0.324-0.725,0.727-0.725h0.673
		c0.396,0,0.723,0.325,0.723,0.725v0.878C580.202,429.696,579.876,430.019,579.479,430.019z"/>
	<g>
		<path fill="#289FC9" d="M575.811,425.855l2.988,1.282c0.309,0.131,0.434,0.499,0.271,0.792l-0.968,1.745
			c-0.189,0.339-0.652,0.391-0.911,0.105l-2.466-2.701c-0.228-0.251-0.185-0.641,0.084-0.84l0.446-0.32
			C575.417,425.801,575.627,425.775,575.811,425.855z"/>
		<path fill="#289FC9" d="M582.476,425.855l-2.989,1.282c-0.308,0.131-0.436,0.499-0.272,0.792l0.968,1.745
			c0.188,0.339,0.65,0.391,0.911,0.105l2.468-2.701c0.224-0.251,0.185-0.641-0.089-0.84l-0.441-0.32
			C582.87,425.801,582.657,425.775,582.476,425.855z"/>
		<polygon fill="#289FC9" points="585.587,434.317 583.619,435.034 581.621,434.317 581.621,432.982 585.587,432.982 		"/>
		<polygon fill="#289FC9" points="576.662,434.317 574.697,435.034 572.695,434.317 572.695,432.982 576.662,432.982 		"/>
	</g>
	<path fill="#F0555F" d="M551.006,430.979v8.052h-14.258c-0.653-1.274-1.537-3.069-1.986-4.577
		c-0.489-1.628-1.509-3.916-1.241-5.502c0.028-0.018-0.031,0.016,0,0l3.375-1.777l4.313-0.554l0.601,0.077l3.717,0.477l4.565,2.318
		C550.652,429.775,551.006,430.351,551.006,430.979z"/>
	<rect x="538.28" y="423.896" fill="#F8D5B9" width="6.057" height="3.894"/>
	<g>
		<circle fill="#E5BFA3" cx="534.672" cy="417.337" r="1.872"/>
		<circle fill="#E5BFA3" cx="547.75" cy="417.337" r="1.872"/>
		<path fill="#E5BFA3" d="M539.878,423.896L539.878,423.896h-1.598l0,0l0,0v1.646l0,0v1.63h1.598l0,0
			c0-0.552,0.461-0.994,1.012-0.969c0.105,0.005,0.214,0.008,0.319,0.008c1.131,0,2.196-0.278,3.128-0.77v-1.545H539.878
			L539.878,423.896z"/>
	</g>
	<path fill="#F8D5B9" d="M547.955,411.994l-13.488-0.719v7.523c0,3.724,3.019,6.745,6.742,6.745l0,0
		c3.725,0,6.746-3.021,6.746-6.745V411.994L547.955,411.994z"/>
	<path fill="#E5BFA3" d="M542.172,408.209l-4.131,0.356c-0.631,0-1.213,0.212-1.679,0.565h-0.278v0.241
		c-0.507,0.505-0.821,1.203-0.821,1.973l-1.061,3.772c0,0.492-0.2,0.899,0.265,0.982v2.699c0,3.724,3.019,6.745,6.744,6.745l0,0
		c0.252,0,0.499-0.016,0.745-0.043c-3.377-0.369-5.999-3.229-5.999-6.702v-3.979c0-0.621,0.483-1.149,1.105-1.171
		c0.018-0.003,0.038-0.003,0.057-0.003l0,0c0.634,0,1.253,0.214,1.747,0.61c0.642,0.518,1.463,0.933,2.345,0.825
		c1.755-0.215,1.702-1.375,2.346-1.891c0.495-0.397,1.112-0.611,1.747-0.611h0.026c0.811,0,1.443-0.303,1.444,0.509
		c0.003,0.547,0.433,3.037,0.979,3.05c0.283,0.007,0.543-0.106,0.729-0.293c0.179-0.18-0.051-0.431-0.051-0.706l-0.246-0.922"/>
	<path fill="#C98847" d="M548.774,411.742v3.396c0,0.276-0.113,0.526-0.292,0.708c-0.186,0.187-0.445,0.298-0.729,0.292
		c-0.548-0.012-0.979-0.474-0.979-1.02v-0.514c0-0.407-0.163-0.775-0.429-1.04c-0.27-0.269-0.635-0.434-1.042-0.434
		c-0.635,0-1.252,0.214-1.747,0.611c-0.644,0.518-1.458,0.826-2.348,0.826c-0.886,0-1.701-0.311-2.341-0.826
		c-0.088-0.068-0.174-0.131-0.269-0.188c0,0-0.001-0.001-0.003-0.002c-0.173-0.108-0.359-0.197-0.551-0.265
		c-0.296-0.103-0.61-0.156-0.927-0.156c-0.814,0-1.471,0.659-1.471,1.474v0.536c0,0.273-0.114,0.523-0.294,0.705
		c-0.183,0.182-0.431,0.292-0.707,0.292c-0.555,0-1-0.447-1-1v-3.396c0-2.975,2.41-5.388,5.388-5.388h4.353
		C546.365,406.354,548.774,408.768,548.774,411.742z"/>
	<path fill="#E5BFA3" d="M539.745,417.015c-0.035,0.312-0.309,0.541-0.624,0.541h-1.628c-0.168,0-0.322-0.07-0.431-0.18
		c-0.129-0.129-0.203-0.312-0.179-0.513c0.038-0.312,0.312-0.539,0.625-0.539h1.627c0.17,0,0.324,0.068,0.434,0.181
		C539.7,416.632,539.771,416.816,539.745,417.015z"/>
	<path fill="#FFFFFF" d="M539.745,417.449c-0.035,0.31-0.309,0.536-0.624,0.536h-1.628c-0.168,0-0.322-0.066-0.431-0.178
		c-0.129-0.128-0.203-0.312-0.179-0.513c0.038-0.312,0.312-0.539,0.625-0.539h1.627c0.17,0,0.324,0.067,0.434,0.182
		C539.7,417.063,539.771,417.249,539.745,417.449z"/>
	<path fill="#E5BFA3" d="M545.358,416.325h-1.639c-0.344,0-0.616,0.275-0.616,0.614l0,0c0,0.339,0.272,0.616,0.616,0.616h1.639
		c0.34,0,0.616-0.277,0.616-0.616l0,0C545.975,416.601,545.698,416.325,545.358,416.325z"/>
	<path fill="#FFFFFF" d="M545.358,416.756h-1.639c-0.344,0-0.616,0.275-0.616,0.615l0,0c0,0.34,0.272,0.614,0.616,0.614h1.639
		c0.34,0,0.616-0.274,0.616-0.614l0,0C545.975,417.031,545.698,416.756,545.358,416.756z"/>
	<path fill="#E5BFA3" d="M545.892,415.096h-2.707c-0.191,0-0.346,0.154-0.346,0.347l0,0c0,0.191,0.154,0.348,0.346,0.348h2.707
		c0.192,0,0.345-0.156,0.345-0.348l0,0C546.236,415.25,546.084,415.096,545.892,415.096z"/>
	<g>
		<path fill="#5D5F71" d="M539.135,417.169c0,0.452-0.367,0.816-0.819,0.816c-0.451,0-0.819-0.364-0.819-0.816
			c0-0.151,0.041-0.292,0.112-0.413h1.413C539.092,416.877,539.135,417.018,539.135,417.169z"/>
		<path fill="#5D5F71" d="M545.356,417.169c0,0.452-0.366,0.816-0.818,0.816c-0.451,0-0.816-0.364-0.816-0.816
			c0-0.151,0.04-0.292,0.11-0.413h1.413C545.315,416.877,545.356,417.018,545.356,417.169z"/>
	</g>
	<g>
		<path fill="#E5BFA3" d="M536.975,415.096c-0.191,0-0.354,0.147-0.358,0.342c-0.004,0.192,0.153,0.353,0.347,0.353h1.901
			c0.754,0,1.366,0.609,1.366,1.365v3.387h0.344c0.442,0,0.8-0.358,0.8-0.8v-3.604c0-0.575-0.465-1.043-1.041-1.043H536.975
			L536.975,415.096z"/>
		<path fill="#E5BFA3" d="M542.369,421.674c-0.751,0.248-1.563,0.248-2.316,0c-0.198-0.062-0.428,0.015-0.519,0.201l0,0
			c-0.09,0.187,0.034,0.432,0.285,0.514c0.903,0.299,1.879,0.299,2.782,0c0.253-0.082,0.372-0.327,0.285-0.514l0,0
			C542.798,421.688,542.566,421.611,542.369,421.674z"/>
		<path fill="#E5BFA3" d="M541.619,423.184h-0.814c-0.209,0-0.378,0.17-0.378,0.377l0,0c0,0.208,0.169,0.376,0.378,0.376h0.814
			c0.208,0,0.375-0.168,0.375-0.376l0,0C541.994,423.354,541.827,423.184,541.619,423.184z"/>
	</g>
	<polygon fill="#E9DCC4" points="542.678,439.031 539.741,439.031 540.74,429.874 541.679,429.874 	"/>
	<path fill="#D5C8B0" d="M541.546,430.116h-0.671c-0.399,0-0.724-0.326-0.724-0.726v-0.878c0-0.398,0.324-0.724,0.724-0.724h0.671
		c0.4,0,0.724,0.325,0.724,0.724v0.878C542.27,429.79,541.946,430.116,541.546,430.116z"/>
	<g>
		<path fill="#EF4353" d="M537.879,425.951l2.988,1.282c0.31,0.133,0.436,0.503,0.273,0.795l-0.968,1.741
			c-0.19,0.34-0.653,0.394-0.915,0.106l-2.464-2.701c-0.228-0.248-0.186-0.643,0.085-0.839l0.443-0.322
			C537.485,425.897,537.696,425.875,537.879,425.951z"/>
		<path fill="#EF4353" d="M544.544,425.951l-2.99,1.282c-0.308,0.133-0.435,0.503-0.271,0.795l0.968,1.741
			c0.188,0.34,0.652,0.394,0.912,0.106l2.465-2.701c0.228-0.248,0.187-0.643-0.085-0.839l-0.444-0.322
			C544.937,425.897,544.727,425.875,544.544,425.951z"/>
	</g>
	<rect x="553.245" y="411.596" fill="#494C5C" width="14.568" height="19.436"/>
	<rect x="557.94" y="423.896" fill="#F8D5B9" width="6.06" height="3.894"/>
	<path fill="#E5BFA3" d="M559.538,423.896L559.538,423.896h-1.598l0,0l0,0v1.646l0,0v1.63h1.598l0,0
		c0-0.552,0.462-0.994,1.011-0.969c0.106,0.005,0.216,0.008,0.32,0.008c1.128,0,2.195-0.278,3.131-0.77v-1.545H559.538
		L559.538,423.896L559.538,423.896z"/>
	<path fill="#F8D5B9" d="M566.989,411.994l-12.237-0.719v7.523c0,3.724,2.737,6.745,6.117,6.745l0,0c3.38,0,6.12-3.021,6.12-6.745
		V411.994L566.989,411.994z"/>
	<g>
		<path fill="#E5BFA3" d="M556.381,418.799v-7.427l-1.629-0.097v7.523c0,3.724,2.737,6.745,6.117,6.745l0,0
			c0.278,0,0.55-0.021,0.815-0.061C558.692,425.044,556.381,422.219,556.381,418.799z"/>
		<path fill="#E5BFA3" d="M557.33,413.893c0,0,3.811,1.214,7.427,0.764c3.618-0.445-0.641-2.856-0.641-2.856l-6.153-0.408
			l-0.871,0.408"/>
		<path fill="#E5BFA3" d="M565.551,415.267h-2.705c-0.191,0-0.347,0.153-0.347,0.345l0,0c0,0.194,0.155,0.349,0.347,0.349h2.705
			c0.191,0,0.347-0.154,0.347-0.349l0,0C565.897,415.42,565.742,415.267,565.551,415.267z"/>
		<path fill="#E5BFA3" d="M556.635,415.267c-0.191,0-0.355,0.148-0.357,0.34c-0.003,0.194,0.152,0.354,0.346,0.354h1.902
			c0.753,0,1.365,0.614,1.365,1.366v2.702h0.343c0.443,0,0.802-0.359,0.802-0.8v-2.919c0-0.577-0.468-1.043-1.041-1.043H556.635
			L556.635,415.267z"/>
	</g>
	<path fill="#F26D7C" d="M561.763,421.951c-0.583,0.17-1.202,0.17-1.782,0c-0.156-0.045-0.328,0.023-0.391,0.174l0,0
		c-0.062,0.146,0.038,0.329,0.229,0.383c0.687,0.201,1.417,0.201,2.104,0c0.192-0.054,0.29-0.237,0.228-0.383l0,0
		C562.092,421.975,561.916,421.906,561.763,421.951z"/>
	<path fill="#E5BFA3" d="M561.186,422.936h-0.63c-0.161,0-0.289,0.13-0.289,0.291l0,0c0,0.161,0.128,0.289,0.289,0.289h0.63
		c0.16,0,0.29-0.128,0.29-0.289l0,0C561.476,423.065,561.346,422.936,561.186,422.936z"/>
	<path fill="#5D5F71" d="M569.086,412.994v16.16l-1.742-0.823c0,0,0-5.944,0-7.632c0-1.691,0.767-5.971-3.95-6.277
		c-2.424-0.159-4.187-1.156-5.333-2.087c0,0.001,0,0.006-0.001,0.012l0,0c-0.04,0.208-0.603,2.878-3.931,3.153v13.259l-1.472,0.774
		v-16.539c0-3.66,2.393-6.758,5.695-7.822l0,0c0.794-0.255,1.642-0.393,2.517-0.393h0.003
		C565.41,404.779,569.086,408.457,569.086,412.994z"/>
	<path fill="#494C5C" d="M578.406,407.577c-1.53,0-2.774,1.245-2.774,2.779v2.72c-0.188-0.041-0.383-0.061-0.583-0.061
		c-0.81,0-1.47,0.659-1.47,1.474v1.73c0,0.276-0.112,0.527-0.294,0.708c-0.181,0.181-0.433,0.293-0.707,0.293
		c-0.554,0-1.002-0.448-1.002-1.002v-5.862c0-1.534,1.246-2.779,2.777-2.779H578.406z"/>
	<path fill="#BA773A" d="M543.087,406.335c-2.976,0-5.385,2.412-5.385,5.385v1.451c-0.193-0.039-0.388-0.061-0.586-0.061
		c-0.812,0-1.468,0.66-1.468,1.474v0.533c0,0.277-0.114,0.526-0.297,0.708c-0.18,0.182-0.428,0.293-0.705,0.293
		c-0.554,0-0.999-0.447-0.999-1.001v-3.397c0-2.973,2.41-5.385,5.388-5.385H543.087z"/>
	<path fill="#494C5C" d="M562.899,405.011c-0.169,0.042-0.331,0.089-0.492,0.14c-3.305,1.065-5.695,4.164-5.695,7.823v1.539
		c-0.588,0.476-1.412,0.87-2.583,0.968v13.257l-1.472,0.776v-16.54c0-0.688,0.084-1.352,0.24-1.99
		c0.688-2.759,2.769-4.968,5.455-5.833c0.395-0.126,0.808-0.225,1.227-0.294c0.423-0.065,0.854-0.099,1.29-0.099h0.003
		C561.572,404.758,562.252,404.846,562.899,405.011z"/>
	<path fill="#F8EED7" d="M570.248,434.41c0,1.575-0.126,3.115-0.365,4.621h-18.809v-8.052c0-0.629,0.352-1.204,0.915-1.486
		l4.564-2.318l4.023,0.604l0.894,0.149v0.614l3.718-1.367l4.565,2.318c0.028,0.016,0.061,0.033,0.087,0.046
		C570.109,431.125,570.248,432.75,570.248,434.41z"/>
	<path fill="#E9DCC4" d="M558.846,427.381l-1.095-0.206l-4.565,2.317c-0.562,0.283-0.912,0.858-0.912,1.487v8.052h-1.199v-8.052
		c0-0.629,0.354-1.204,0.913-1.487l4.566-2.317l1.709-0.554L558.846,427.381z"/>
	<rect x="560.289" y="427.688" fill="#FDF8F2" width="1.162" height="11.343"/>
	<path fill="#F8EED7" d="M561.715,427.711h-1.403v0.112l-0.022-0.01v1.818l0.51-0.92c0.048-0.088,0.07-0.18,0.07-0.276
		c0,0.097,0.023,0.188,0.072,0.276l0.51,0.92v-1.196h0.264V427.711L561.715,427.711z"/>
	<g>
		<path fill="#FDF8F2" d="M557.539,425.951l2.987,1.282c0.311,0.133,0.437,0.503,0.272,0.794l-0.966,1.742
			c-0.189,0.34-0.653,0.394-0.915,0.106l-2.465-2.701c-0.224-0.248-0.183-0.643,0.09-0.839l0.44-0.322
			C557.145,425.897,557.356,425.875,557.539,425.951z"/>
		<path fill="#FDF8F2" d="M564.204,425.951l-2.992,1.282c-0.306,0.133-0.433,0.503-0.271,0.795l0.97,1.741
			c0.188,0.34,0.653,0.394,0.912,0.106l2.464-2.701c0.227-0.248,0.186-0.643-0.086-0.839l-0.443-0.322
			C564.598,425.897,564.387,425.875,564.204,425.951z"/>
	</g>
	<g>
		<path fill="#5D5F71" d="M560.869,428.696c0.208,0,0.377,0.169,0.377,0.375c0,0.21-0.169,0.377-0.377,0.377
			c-0.205,0-0.375-0.167-0.375-0.377C560.494,428.865,560.664,428.696,560.869,428.696z"/>
		<path fill="#5D5F71" d="M560.869,431.716c0.208,0,0.377,0.169,0.377,0.378c0,0.205-0.169,0.374-0.377,0.374
			c-0.205,0-0.375-0.169-0.375-0.374C560.494,431.885,560.664,431.716,560.869,431.716z"/>
		<path fill="#5D5F71" d="M560.869,434.736c0.208,0,0.377,0.166,0.377,0.376c0,0.208-0.169,0.378-0.377,0.378
			c-0.205,0-0.375-0.17-0.375-0.378C560.494,434.902,560.664,434.736,560.869,434.736z"/>
		<path fill="#5D5F71" d="M560.869,437.757c0.208,0,0.377,0.169,0.377,0.377c0,0.207-0.169,0.375-0.377,0.375
			c-0.205,0-0.375-0.168-0.375-0.375C560.494,437.926,560.664,437.757,560.869,437.757z"/>
	</g>
	<path fill="#FFFFFF" d="M565.634,417.461c0,0.293-0.239,0.533-0.532,0.533h-1.806c-0.148,0-0.282-0.061-0.377-0.156
		c-0.096-0.097-0.155-0.229-0.155-0.377c0-0.091,0.021-0.177,0.062-0.251c0.091-0.168,0.113-0.438,0.317-0.438l2.078-0.025
		c0.148,0,0.264,0.312,0.295,0.179c0.035-0.158,0.029,0.238,0.056,0.284C565.612,417.284,565.634,417.369,565.634,417.461z"/>
	<path fill="#070A0B" d="M565.016,417.34c0,0.27-0.126,0.507-0.327,0.654h-0.982c-0.198-0.147-0.325-0.385-0.325-0.654
		c0-0.15,0.04-0.292,0.11-0.412l0.753-0.133l0.66,0.133C564.978,417.048,565.016,417.188,565.016,417.34z"/>
	<path fill="#5D5F71" d="M563.296,416.928h1.806c0.146,0,0.279,0.059,0.377,0.155c0.036,0.036,0.066,0.081,0.093,0.127
		c0.041-0.081,0.062-0.173,0.062-0.271c0-0.339-0.273-0.614-0.614-0.614h-1.641c-0.339,0-0.615,0.275-0.615,0.614
		c0,0.098,0.021,0.189,0.063,0.271C562.916,417.042,563.093,416.928,563.296,416.928z"/>
	<path fill="#FFFFFF" d="M559.427,417.461c0,0.293-0.238,0.533-0.535,0.533h-1.804c-0.15,0-0.282-0.061-0.376-0.156
		c-0.1-0.097-0.158-0.229-0.158-0.377c0-0.091,0.024-0.177,0.062-0.251c0.092-0.168,0.117-0.438,0.318-0.438l2.08-0.025
		c0.146,0,0.262,0.312,0.292,0.179c0.038-0.158,0.032,0.238,0.059,0.284C559.404,417.284,559.427,417.369,559.427,417.461z"/>
	<path fill="#070A0B" d="M558.808,417.34c0,0.27-0.13,0.507-0.326,0.654h-0.982c-0.2-0.147-0.329-0.385-0.329-0.654
		c0-0.15,0.042-0.292,0.113-0.412l0.751-0.133l0.663,0.133C558.769,417.048,558.808,417.188,558.808,417.34z"/>
</g>
<g>
	<path fill="#FDE504" d="M744.888,270.939c-4.794,0-8.678,3.886-8.678,8.678c0,4.608,3.591,8.377,8.127,8.661
		c-0.188-0.153-0.311-0.384-0.318-0.644l0,0c-0.475,0-0.86-0.385-0.86-0.861v-1.64c0-0.469-0.255-0.901-0.662-1.126
		c-1.64-0.902-2.623-2.625-2.565-4.497c0.08-2.527,2.114-4.629,4.634-4.785c1.382-0.087,2.7,0.387,3.706,1.333
		c0.993,0.933,1.562,2.248,1.562,3.61c0,1.803-0.98,3.465-2.562,4.337c-0.412,0.227-0.668,0.659-0.668,1.128v1.64
		c0,0.476-0.385,0.861-0.859,0.861l0,0c-0.008,0.26-0.13,0.491-0.319,0.644c4.542-0.275,8.144-4.048,8.144-8.661
		C753.566,274.825,749.679,270.939,744.888,270.939z"/>
	<g>
		<g>
			<path fill="#FDE504" d="M745.997,281.176c-0.424,0-0.642-0.247-0.798-0.427c-0.141-0.159-0.196-0.21-0.32-0.21
				s-0.18,0.051-0.318,0.21c-0.15,0.17-0.375,0.428-0.799,0.428c-0.426,0-0.65-0.257-0.8-0.428c-0.14-0.159-0.193-0.21-0.316-0.21
				c-0.178,0-0.319-0.142-0.319-0.318s0.142-0.319,0.319-0.319c0.424,0,0.648,0.257,0.798,0.427c0.14,0.159,0.193,0.21,0.318,0.21
				c0.123,0,0.179-0.051,0.317-0.21c0.149-0.17,0.376-0.427,0.8-0.427c0.423,0,0.641,0.247,0.798,0.427
				c0.14,0.159,0.196,0.21,0.32,0.21c0.125,0,0.181-0.051,0.319-0.21c0.15-0.17,0.374-0.427,0.799-0.427
				c0.177,0,0.319,0.143,0.319,0.319s-0.143,0.318-0.319,0.318c-0.123,0-0.18,0.051-0.32,0.21
				C746.647,280.919,746.421,281.176,745.997,281.176z"/>
		</g>
	</g>
	<g>
		<g>
			<path fill="#FFFFFF" d="M746.44,284.957c-0.014,0-0.029-0.002-0.044-0.005c-0.117-0.025-0.191-0.141-0.167-0.257l1.077-4.955
				c0.027-0.117,0.14-0.191,0.258-0.165c0.115,0.026,0.19,0.14,0.164,0.256l-1.077,4.956
				C746.63,284.888,746.54,284.957,746.44,284.957z"/>
		</g>
	</g>
	<g>
		<g>
			<path fill="#FFFFFF" d="M743.33,284.957c-0.099,0-0.189-0.069-0.21-0.17l-1.077-4.956c-0.026-0.117,0.049-0.23,0.163-0.256
				c0.118-0.026,0.231,0.048,0.259,0.165l1.076,4.955c0.024,0.116-0.049,0.231-0.166,0.257
				C743.36,284.955,743.344,284.957,743.33,284.957z"/>
		</g>
	</g>
	<text transform="matrix(1 0 0 1 634.2549 288.2793)" fill="#FFFFFF" font-family="'BrandonGrotesque-Bold'" font-size="24.908">PITCHSP</text>
	<text transform="matrix(1 0 0 1 753.876 288.2793)" fill="#FFFFFF" font-family="'BrandonGrotesque-Bold'" font-size="24.908">T</text>
	
		<text transform="matrix(1 0 0 1 694.6035 304.2158)" fill="#FFFFFF" font-family="'BrandonGrotesque-LightItalic'" font-size="11.2719" letter-spacing="1">ENTERPRISE</text>
</g>
<g>
	<path fill="#FDE504" d="M202.395,183.126c-4.161,0-7.534,3.373-7.534,7.533c0,4.001,3.118,7.273,7.056,7.52
		c-0.163-0.134-0.27-0.334-0.275-0.558l0,0c-0.413,0-0.749-0.335-0.749-0.749v-1.423c0-0.409-0.219-0.782-0.573-0.977
		c-1.425-0.784-2.279-2.28-2.228-3.905c0.067-2.194,1.834-4.018,4.022-4.153c1.199-0.075,2.344,0.335,3.218,1.157
		c0.862,0.81,1.355,1.952,1.355,3.133c0,1.565-0.853,3.008-2.224,3.766c-0.357,0.197-0.58,0.572-0.58,0.979v1.423
		c0,0.413-0.335,0.749-0.748,0.749h-0.001c-0.007,0.225-0.113,0.425-0.275,0.56c3.943-0.241,7.068-3.515,7.068-7.521
		C209.929,186.499,206.556,183.126,202.395,183.126z"/>
	<g>
		<g>
			<path fill="#FDE504" d="M203.358,192.012c-0.369,0-0.557-0.213-0.694-0.371c-0.121-0.137-0.169-0.182-0.278-0.182
				c-0.108,0-0.155,0.045-0.275,0.182c-0.13,0.148-0.325,0.371-0.694,0.371c-0.368,0-0.563-0.223-0.693-0.371
				c-0.121-0.137-0.169-0.182-0.276-0.182c-0.153,0-0.277-0.125-0.277-0.276c0-0.153,0.124-0.277,0.277-0.277
				c0.368,0,0.563,0.223,0.693,0.372c0.121,0.136,0.169,0.182,0.276,0.182s0.155-0.045,0.276-0.182
				c0.13-0.149,0.326-0.372,0.693-0.372c0.369,0,0.557,0.215,0.695,0.372c0.121,0.136,0.168,0.182,0.276,0.182
				c0.107,0,0.156-0.045,0.277-0.182c0.13-0.149,0.326-0.372,0.694-0.372c0.153,0,0.277,0.124,0.277,0.277
				c0,0.152-0.124,0.276-0.277,0.276c-0.108,0-0.156,0.045-0.277,0.182C203.922,191.789,203.727,192.012,203.358,192.012z"/>
		</g>
	</g>
	<g>
		<g>
			<path fill="#FFFFFF" d="M203.744,195.295c-0.013,0-0.026-0.002-0.04-0.004c-0.101-0.021-0.164-0.122-0.143-0.223l0.935-4.303
				c0.022-0.101,0.121-0.165,0.223-0.142c0.101,0.021,0.166,0.122,0.144,0.222l-0.935,4.302
				C203.908,195.234,203.831,195.295,203.744,195.295z"/>
		</g>
	</g>
	<g>
		<g>
			<path fill="#FFFFFF" d="M201.042,195.295c-0.086,0-0.164-0.061-0.182-0.148l-0.936-4.302c-0.022-0.101,0.042-0.201,0.144-0.222
				c0.101-0.023,0.199,0.041,0.222,0.142l0.936,4.303c0.021,0.101-0.042,0.201-0.144,0.223
				C201.069,195.293,201.056,195.295,201.042,195.295z"/>
		</g>
	</g>
	<text transform="matrix(1 0 0 1 106.3496 198.1797)" fill="#FFFFFF" font-family="'BrandonGrotesque-Bold'" font-size="21.6239">PITCHSP</text>
	<text transform="matrix(1 0 0 1 210.1973 198.1797)" fill="#FFFFFF" font-family="'BrandonGrotesque-Bold'" font-size="21.6239">T</text>
	
		<text transform="matrix(1 0 0 1 193.6182 212.0146)" fill="#FFFFFF" font-family="'BrandonGrotesque-LightItalic'" font-size="9.7857" letter-spacing="1">HACK</text>
</g>
</svg>
