<?xml version="1.0" encoding="utf-8"?>
<!-- Generator: Adobe Illustrator 16.0.0, SVG Export Plug-In . SVG Version: 6.00 Build 0)  -->
<!DOCTYPE svg PUBLIC "-//W3C//DTD SVG 1.1//EN" "http://www.w3.org/Graphics/SVG/1.1/DTD/svg11.dtd">
<svg version="1.1" id="Layer_1" xmlns="http://www.w3.org/2000/svg" xmlns:xlink="http://www.w3.org/1999/xlink" x="0px" y="0px"
	 width="1000px" height="1000px" viewBox="0 0 1000 1000" enable-background="new 0 0 1000 1000" xml:space="preserve">
<path fill="#DB4C3F" d="M650.879,1000h214.368c74.42,0,134.749-60.33,134.749-134.75V134.752C999.994,60.33,939.665,0,865.242,0
	H134.756C60.336,0,0.004,60.33,0.004,134.752v730.492c0,74.422,60.329,134.752,134.752,134.752h360.272l197.31,0.004"/>
<g>
	<path fill="#FFFFFF" d="M334.271,572.068l-21.598,80.629l-78.941,1.67c-23.591-43.758-36.974-93.82-36.974-147.023
		c0-51.445,12.512-99.958,34.689-142.676h0.017l70.279,12.884l30.787,69.857c-6.444,18.786-9.956,38.951-9.956,59.935
		C322.578,530.117,326.703,551.938,334.271,572.068z"/>
	<path fill="#FFFFFF" d="M811.82,449.388c3.563,18.767,5.422,38.149,5.422,57.956c0,22.213-2.336,43.877-6.785,64.775
		c-15.102,71.119-54.564,133.217-109.23,177.162l-0.018-0.018l-88.521-4.518l-12.528-78.207
		c36.273-21.273,64.622-54.566,79.555-94.42H513.821V449.388h168.313H811.82L811.82,449.388z"/>
	<path fill="#FFFFFF" d="M701.208,749.266l0.018,0.016c-53.168,42.734-120.706,68.305-194.225,68.305
		c-118.148,0-220.868-66.037-273.268-163.219l100.539-82.297c26.199,69.922,93.651,119.697,172.729,119.697
		c33.989,0,65.834-9.188,93.158-25.229L701.208,749.266z"/>
	<path fill="#FFFFFF" d="M705.025,268.527l-100.504,82.282c-28.28-17.676-61.707-27.888-97.521-27.888
		c-80.868,0-149.582,52.06-174.469,124.489l-101.066-82.742h-0.017c51.633-99.55,155.648-167.565,275.553-167.565
		C582.277,197.104,651.296,223.918,705.025,268.527z"/>
</g>
</svg>
