<?xml version="1.0" encoding="utf-8"?>
<!-- Generator: Adobe Illustrator 16.0.0, SVG Export Plug-In . SVG Version: 6.00 Build 0)  -->
<!DOCTYPE svg PUBLIC "-//W3C//DTD SVG 1.1//EN" "http://www.w3.org/Graphics/SVG/1.1/DTD/svg11.dtd">
<svg version="1.1" id="Layer_1" xmlns="http://www.w3.org/2000/svg" xmlns:xlink="http://www.w3.org/1999/xlink" x="0px" y="0px"
	 width="1000px" height="1000px" viewBox="0 0 1000 1000" enable-background="new 0 0 1000 1000" xml:space="preserve">
<rect x="9.105" y="16.539" fill="#FFFFFF" width="985.304" height="963.096"/>
<rect x="301.649" y="471.841" fill="#898989" width="338.688" height="30.764"/>
<rect x="301.649" y="548.848" fill="#898989" width="291.004" height="30.764"/>
<rect x="301.649" y="625.853" fill="#898989" width="184.774" height="30.765"/>
<path fill="#898989" d="M963.55,179.395v-23.073c-0.096-69.218-54.029-126.419-123.056-130.457v-0.385H370.867
	c-72.198,0.096-130.745,58.643-130.841,130.842v577.3H9.105v23.073c0.096,72.198,58.644,130.745,130.842,130.842h461.841
	c5.575,0,11.055-0.48,16.534-1.153c50.376,88.541,163.144,119.497,251.686,69.025c88.542-50.376,119.497-163.143,69.122-251.686
	c-19.13-33.552-48.26-60.278-83.35-76.428V471.841h30.764v-30.667H732.629v-261.78H963.55z M932.497,148.631H733.013
	c4.327-55.087,52.492-96.233,107.578-92.003C889.717,60.474,928.748,99.505,932.497,148.631L932.497,148.631z M139.947,856.772
	c-52.203-0.097-95.656-40.28-99.694-92.387h430.98c2.115,35.858,18.939,69.313,46.434,92.387H139.947z M778.871,949.159
	c-85.178-0.096-154.107-69.218-154.011-154.299c0-15.478,2.402-30.956,7.017-45.76h117.576
	c8.46,50.279,56.048,84.215,106.327,75.754c34.706-5.863,63.065-30.859,73.16-64.507c19.13,82.87-32.687,165.644-115.653,184.773
	C801.944,947.718,790.406,949.062,778.871,949.159L778.871,949.159z M781.081,749.004h118.73
	c-8.365,32.782-41.724,52.587-74.506,44.222C803.578,787.747,786.562,770.73,781.081,749.004L781.081,749.004z M834.822,651.81
	c32.591,12.594,59.989,36.051,77.485,66.334H645.434c17.497-30.283,44.895-53.645,77.486-66.334l9.806-3.846V471.841h92.387V648.06
	L834.822,651.81z M671.102,441.175v30.763h30.765v155.453c-87.005,39.608-129.208,139.302-97.003,229.285
	c-0.961,0-2.018,0.193-2.98,0.193c-55.278-0.097-99.982-44.8-100.078-100.079v-23.169H270.885v-577.3
	c0.096-55.182,44.8-99.982,99.981-100.078h377.722c-29.611,24.804-46.723,61.431-46.723,100.078v284.854H671.102z"/>
<path fill="#F79320" d="M732.629,825.913c-25.476,0-46.242,20.669-46.242,46.146c0,25.476,20.67,46.242,46.146,46.242
	c25.478,0,46.242-20.67,46.242-46.146l0,0l0,0C778.871,846.679,758.201,826.008,732.629,825.913z M732.629,887.439
	c0-6.729,5.48-12.209,12.209-12.112c6.73,0,12.21,5.479,12.114,12.209c0,6.729-5.48,12.21-12.21,12.114
	C738.109,899.65,732.726,894.266,732.629,887.439L732.629,887.439L732.629,887.439z"/>
<path fill="#F79320" d="M624.86,148.631c-25.476-0.097-46.146,20.477-46.146,45.953c0,11.729,4.422,23.073,12.498,31.629
	l-28.938,48.164c-4.614-1.633-9.519-2.499-14.42-2.499c-11.921,0-23.458,4.711-32.016,13.075l-31.627-15.767
	c1.25-4.038,1.922-8.268,2.019-12.593c-0.481-25.477-21.631-45.762-47.107-45.28c-24.803,0.48-44.704,20.477-45.28,45.28
	c0,8.363,2.402,16.535,6.729,23.745l-37.398,56.048c-4.999-1.827-10.19-2.788-15.478-2.884c-25.477,0-46.242,20.669-46.242,46.146
	c0,25.476,20.67,46.242,46.146,46.242c25.476,0,46.242-20.67,46.242-46.146l0,0l0,0c0-8.364-2.404-16.535-6.73-23.746l37.396-56.144
	c13.94,5.191,29.514,3.173,41.627-5.383l35.955,17.977c-0.289,1.827-0.48,3.75-0.577,5.577
	c-0.48,25.476,19.708,46.626,45.185,47.106c25.477,0.481,46.626-19.708,47.106-45.185c0-0.671,0-1.249,0-1.922
	c0-8.749-2.595-17.304-7.306-24.708l31.917-52.971c2.115,0.385,4.23,0.576,6.345,0.576c25.477,0.481,46.627-19.707,47.107-45.183
	c0.479-25.477-19.708-46.626-45.185-47.107l0,0C626.014,148.631,625.436,148.631,624.86,148.631L624.86,148.631z M347.794,394.933
	c-8.459,0-15.381-6.921-15.381-15.382c0-8.459,6.922-15.381,15.381-15.381s15.381,6.922,15.381,15.381l0,0l0,0
	C363.176,388.106,356.351,394.933,347.794,394.933z M424.896,256.4c0-8.46,6.921-15.382,15.381-15.382s15.381,6.921,15.381,15.382
	c0,8.46-6.921,15.382-15.381,15.382l0,0C431.722,271.782,424.896,264.86,424.896,256.4z M547.855,333.309
	c-8.46,0-15.382-6.922-15.382-15.382c0-8.46,6.922-15.382,15.382-15.382c8.459,0,15.381,6.921,15.381,15.382l0,0
	C563.236,326.483,556.41,333.309,547.855,333.309L547.855,333.309L547.855,333.309z M624.86,210.254
	c-8.46,0-15.383-6.921-15.383-15.382c0-8.46,6.923-15.382,15.383-15.382s15.382,6.922,15.382,15.382
	C640.242,203.333,633.416,210.158,624.86,210.254L624.86,210.254z"/>
</svg>
