<?xml version="1.0" encoding="utf-8"?>
<!-- Generator: Adobe Illustrator 16.0.0, SVG Export Plug-In . SVG Version: 6.00 Build 0)  -->
<!DOCTYPE svg PUBLIC "-//W3C//DTD SVG 1.1//EN" "http://www.w3.org/Graphics/SVG/1.1/DTD/svg11.dtd">
<svg version="1.1" id="Layer_1" xmlns="http://www.w3.org/2000/svg" xmlns:xlink="http://www.w3.org/1999/xlink" x="0px" y="0px"
	 width="1000px" height="1000px" viewBox="0 0 1000 1000" enable-background="new 0 0 1000 1000" xml:space="preserve">
<g>
	<g>
		<linearGradient id="SVGID_1_" gradientUnits="userSpaceOnUse" x1="59.8125" y1="661.6211" x2="947.9633" y2="338.3606">
			<stop  offset="0" style="stop-color:#37C1CE"/>
			<stop  offset="0.3035" style="stop-color:#3FC1CC"/>
			<stop  offset="0.6312" style="stop-color:#54C4C3"/>
			<stop  offset="0.9692" style="stop-color:#6DC7B5"/>
			<stop  offset="1" style="stop-color:#6FC7B4"/>
		</linearGradient>
		<path fill="url(#SVGID_1_)" d="M763.776,264.002c-137.869,0-229.114,112.725-309.613,212.202
			c-68.774,84.979-133.719,165.225-212.815,165.225c-82.218,0-132.695-84.497-132.695-145.077
			c0-56.164,55.374-137.787,142.164-137.787c84.214,0,128.09,67.402,130.301,70.858c13.646,22.079,42.612,29.023,64.806,15.489
			c22.301-13.583,29.365-42.675,15.769-64.976c-2.881-4.72-72.242-115.928-210.875-115.928
			c-139.505,0-236.727,122.46-236.727,232.349c0,113.344,93.33,239.64,227.251,239.64c124.204,0,206.624-101.827,286.32-200.306
			c73.727-91.075,143.365-177.12,236.114-177.12c55.185,0,91.441,18.719,110.824,57.187c16.791,33.382,16.778,71.155,16.767,84.238
			c0,7.507-3.962,45.146-22.32,79.04c-20.938,38.607-50.655,56.581-93.608,56.581c-86.488,0-133.213-56.221-150.809-77.398
			c-4.573-5.508-7.864-9.475-12.268-13.241c-19.807-16.97-49.67-14.688-66.67,5.144c-16.394,19.13-14.814,47.57,3.089,64.787
			c0.859,0.966,1.883,2.242,3.108,3.727c22.934,27.596,92.667,111.524,223.531,111.524c159.051,0,210.489-155.085,210.489-230.807
			c0.012-48.229-9.016-90.652-26.875-126.125C933.967,323.412,879.73,264.002,763.776,264.002z"/>
	</g>
</g>
</svg>
