<?xml version="1.0" encoding="utf-8"?>
<!-- Generator: Adobe Illustrator 16.0.0, SVG Export Plug-In . SVG Version: 6.00 Build 0)  -->
<!DOCTYPE svg PUBLIC "-//W3C//DTD SVG 1.1//EN" "http://www.w3.org/Graphics/SVG/1.1/DTD/svg11.dtd">
<svg version="1.1" id="Layer_1" xmlns="http://www.w3.org/2000/svg" xmlns:xlink="http://www.w3.org/1999/xlink" x="0px" y="0px"
	 width="955.36px" height="646.29px" viewBox="0 0 955.36 646.29" enable-background="new 0 0 955.36 646.29" xml:space="preserve">
<g>
	<g>
		<defs>
			<rect id="SVGID_1_" width="955.36" height="646.29"/>
		</defs>
		<clipPath id="SVGID_2_">
			<use xlink:href="#SVGID_1_"  overflow="visible"/>
		</clipPath>
		<g clip-path="url(#SVGID_2_)">
			<defs>
				<rect id="SVGID_3_" width="955.36" height="646.29"/>
			</defs>
			<clipPath id="SVGID_4_">
				<use xlink:href="#SVGID_3_"  overflow="visible"/>
			</clipPath>
			<g opacity="0.5" clip-path="url(#SVGID_4_)">
				<g>
					<defs>
						<rect id="SVGID_5_" x="36.227" y="587.437" width="879.6" height="58.863"/>
					</defs>
					<clipPath id="SVGID_6_">
						<use xlink:href="#SVGID_5_"  overflow="visible"/>
					</clipPath>
					<path clip-path="url(#SVGID_6_)" fill="#F1F2F2" d="M439.77,587.44c-25.76,0-51.52,0.43-77.23,2.17
						c-9.7,0.649-19.19,2.101-28.91,2.681c-19.41,1.159-38.47,3.339-57.94,4.339c-15.69,0.8-31.44,1.271-47.09,2.3
						c-15.144,0.992-30.344,0.708-45.44-0.85c-10.8-1.2-21.6-1.829-32.18-3.71c-12.225-2.271-24.627-3.461-37.06-3.561
						c-17.61,0.08-34.75,0.08-51.6,3.811c-5.91,1.3-13.15,3.45-17.64,6.189c-10.28,6.271-11.7,21.921-1.4,28.431
						c17.26,11,54.17,15.25,78.4,15.45c26.56,0.22,52.36-1,79-1.681c24.71-0.66,49.35-1.59,74.11-1.56
						c50.55,0.069,101.11,0,151.57-2.05c47.41-1.931,94.94-1.271,142.44-1.271c48.73,0,97.12,0.23,145.49,4.2
						c21.08,1.72,42.55,2.32,63.74,3.52c19,1.08,37.189,0,56.09-1c15.567-0.749,31.001-3.269,46-7.51
						c11.399-3.31,31.75-13.62,35.24-21.54c9.81-22.189-138.24-21.68-161-21.63c-25.42,0.061-51,0.57-76.46,0
						c-10.593-0.401-21.155-1.378-31.641-2.93c-10.43-1.391-20.85-1-31.39-1.62c-43.9-2.48-88-2.119-132-2.119
						C468.47,587.501,454.12,587.42,439.77,587.44"/>
				</g>
			</g>
			<path clip-path="url(#SVGID_4_)" fill="#D39689" d="M446.58,148.55c-0.243,0.158-0.468,0.343-0.67,0.55
				c-1.94,1.91-1.2,4.58-2.41,6.7c-0.54,0.95-3.53,2-2.44,3.48c0.4,0.53,1.62,2.42,3,4.24c1.94,2.65,1.65,6.2,1.62,9.31l-0.08,12.51
				c0.085,3.63-0.116,7.262-0.6,10.86c-1.44,8.63-6,15.42-10,22.76c-4.28,7.79-8.91,15.87-12.1,24.22
				c-1.271,2.921-1.839,6.099-1.66,9.28c0.91,7.9,8,8.88,13.15,4.36c2.128-1.991,3.961-4.278,5.44-6.79
				c4.259-6.667,7.837-13.746,10.68-21.13c1.34-3.45,2.51-7,3.68-10.48c2.979-8.741,4.663-17.871,5-27.1
				c-0.18-4.49-0.84-8.93-1.39-13.39c-0.34-2.72-2.25-8.66,0.15-10.66c0.423-0.308,0.827-0.642,1.21-1
				c0.367-0.459,0.633-0.991,0.78-1.56c0.703-2.074,1.169-4.221,1.39-6.4c0.34-3.88-4.21-7.73-6.6-10.08
				c-0.55-0.621-1.234-1.111-2-1.43c-1.319-0.26-2.689-0.04-3.86,0.62C448.065,147.706,447.296,148.085,446.58,148.55"/>
			<path clip-path="url(#SVGID_4_)" fill="#5C6591" d="M451.8,247.94c4.971-12.556,8.299-25.701,9.9-39.11l-15.34-5.48
				c-0.667-0.327-1.431-0.402-2.15-0.21c-0.546,0.301-0.992,0.757-1.28,1.31c-4.42,6.78-8.26,14.18-14,19.93
				c-4,4.05-8.18,7.55-12.07,11.8c-6.37,7-13,13.69-19.22,20.78c-5.59,6.37-11.32,13-13.84,21.23
				c-5.38,17.54,12.42,33.15,27.81,22.86C429.81,288.89,443.27,269.37,451.8,247.94"/>
			<polygon clip-path="url(#SVGID_4_)" fill="#BF7D6D" points="687.85,340.66 695.68,344.04 702.47,340.89 703.85,342.08 
				702.539,343.92 708.9,343.02 713.34,345.94 713.82,353.261 709.82,359.511 702.9,359.19 695.93,354.5 685.03,350.36 			"/>
			<polygon clip-path="url(#SVGID_4_)" fill="#EFE1B4" points="693.6,338.85 655.99,303.241 627.33,233 603.91,237.06 
				620.96,291.709 642.93,338.42 692.97,357.161 			"/>
			<path clip-path="url(#SVGID_4_)" fill="#EF4550" d="M256.55,105.7l-13.07,4.3c-6.039,1.913-9.387,8.358-7.48,14.4
				c0.018,0.121,0.055,0.239,0.11,0.35l17.3,49.45c2.226,6.161,8.942,9.441,15.17,7.41l13.08-4.26L256.55,105.7z"/>
			<path clip-path="url(#SVGID_4_)" fill="#BABCBE" d="M616.36,28.5c-115.7-40.26-269.47,15.36-269.47,15.36v-0.08L246.36,76.5
				l45.49,130.06l100.51-32.71v-0.08C392.36,173.77,549.59,128.14,616.36,28.5"/>
			<path clip-path="url(#SVGID_4_)" fill="#EF4550" d="M346.86,43.78c0,0-34.65-54.63-121.22-26.45l-43.28,14.09l6.73,19.24
				c0,0,65.09-18,78,19.07L346.86,43.78z"/>
			<path clip-path="url(#SVGID_4_)" fill="#EF4550" d="M392.36,173.85c0,0,6.74,63.7-79.82,91.88l-43.29,14.09l-6.73-19.24
				c0,0,63.07-23.76,50.11-60.78L392.36,173.85z"/>
			<path clip-path="url(#SVGID_4_)" fill="#EF4550" d="M376.746,81.457c5.456-24.711,30.408-40.21,55.734-34.619
				c25.325,5.592,41.433,30.156,35.977,54.867c-5.455,24.71-30.408,40.21-55.734,34.618
				C387.398,130.732,371.29,106.167,376.746,81.457"/>
			<path clip-path="url(#SVGID_4_)" fill="#F1F6F8" d="M387.78,83.905c4.143-18.762,23.09-30.53,42.322-26.284
				c19.231,4.246,31.463,22.897,27.321,41.659c-4.143,18.763-23.09,30.531-42.322,26.285
				C395.87,121.319,383.638,102.667,387.78,83.905"/>
			<polygon clip-path="url(#SVGID_4_)" fill="#F7F7F7" points="339.86,190.93 294.37,60.86 309.06,56.08 354.55,186.15 			"/>
			<path clip-path="url(#SVGID_4_)" fill="#FF8F3B" d="M253.36,174.21l-8.65-24.75l-8.66-24.75c0,0-59.87-8.79-89.61,56.74
				C211.27,216.2,253.36,174.21,253.36,174.21"/>
			<path clip-path="url(#SVGID_4_)" fill="#FEE50D" d="M250.51,166l-5.79-16.57l-5.8-16.56c0,0-40.06-5.89-60,38
				C222.36,194.12,250.51,166,250.51,166"/>
			<path clip-path="url(#SVGID_4_)" fill="#EF4550" d="M512.52,120.39c38.591-22.86,78-53.32,103.83-91.89
				C571.57,12.92,521.09,11.71,476,16.07L512.52,120.39z"/>
			<path clip-path="url(#SVGID_4_)" fill="#B8B7B5" d="M392.36,173.85v-0.08c0,0,29.2-8.48,67.76-26.09
				c-117.69,8.77-179.76-27.68-206.58-50.6l38.29,109.48L392.36,173.85z"/>
			<path clip-path="url(#SVGID_4_)" fill="#DBDAD8" d="M319.69,133.26l20.18,57.67l14.68-4.78L338,138.69
				C331.533,137.024,325.43,135.214,319.69,133.26"/>
			<g opacity="0.13" clip-path="url(#SVGID_4_)">
				<g>
					<defs>
						<rect id="SVGID_7_" x="485" y="20.482" width="120.57" height="16.068"/>
					</defs>
					<clipPath id="SVGID_8_">
						<use xlink:href="#SVGID_7_"  overflow="visible"/>
					</clipPath>
					<path clip-path="url(#SVGID_8_)" fill="#FFFFFF" d="M485,22.75c0,0,76.67-9.13,120.57,9.25c0,0-61.61-8.45-115.71,4.55
						L485,22.75z"/>
				</g>
			</g>
			<path clip-path="url(#SVGID_4_)" fill="#F1F6F8" d="M447.36,116.83c-18.07-1.18-45.36-4.83-60.36-23
				c0.228,2.98,0.843,5.918,1.83,8.74c6.39,18.26,26.65,28.16,45.26,22.1C439.036,123.063,443.567,120.387,447.36,116.83"/>
			<path clip-path="url(#SVGID_4_)" fill="#EF4550" d="M253.36,174.21c2.226,6.161,8.942,9.442,15.17,7.41l13.08-4.26
				c0,0-26.42-15.42-46.19-56.8c-0.047,1.41,0.167,2.817,0.63,4.15L253.36,174.21z"/>
			<path clip-path="url(#SVGID_4_)" fill="#EF4550" d="M312.53,265.73c3-1,5.85-2,8.61-3c-18.22,0.719-36.464-0.579-54.4-3.87
				c-2.63,1.16-4.23,1.76-4.23,1.76l6.73,19.24L312.53,265.73z"/>
			<polygon clip-path="url(#SVGID_4_)" fill="#292949" points="605.43,605.14 605.33,611.97 622.03,621.01 630.57,612.37 
				622.28,603.47 621.201,603.46 620.9,605.38 			"/>
			<polygon clip-path="url(#SVGID_4_)" fill="#292949" points="564.01,602.55 562.85,602.53 554.3,611.16 562.59,620.06 
				579.55,611.56 579.65,604.73 564.17,604.48 			"/>
			<path clip-path="url(#SVGID_4_)" fill="#EFE1B4" d="M568,345c2.38-11.64,4.27-22.39,4.52-28.24c0.73-17.57,3.7-75.59,3.7-75.59
				l10.63-22h1.9l-0.41-0.06c0.45,0.07-0.15-4.29-0.31-4.68c-8.95-0.46-20.561,4.62-26.32,11.86c-4.26,5.36-6.84,12-9.36,18.43
				c-7.078,18.24-10.42,35.19-14.109,54.43c-2.34,12.26-4.53,24.48-6.28,36.66c-2.009,13.378-3.331,26.849-3.96,40.36
				c-0.061,1.48-0.4,5.62-0.63,10.57c-0.48,10.37-0.47,24.24,3.64,24.83c0.775,0.031,1.542-0.171,2.2-0.58
				c5.35-2.65,9.57-6.141,14.3-9.181l1-54.1L568,345z"/>
			<path clip-path="url(#SVGID_4_)" fill="#EFE1B4" d="M661.93,402.12c-0.89-11.53-1.819-23.061-3-34.561
				c-2.33-22.939-5.62-45.839-11.439-68.1c-2.221-8.5-4.811-16.9-7.391-25.29c-3.153-10.214-6.3-20.427-9.439-30.64
				c-3.91-12.7-10.69-21.71-22.72-26.32c-2.194-0.852-4.456-1.521-6.761-2c-0.061,0.26-0.109,0.52-0.149,0.8
				c-0.102,1.23-0.529,2.411-1.24,3.42l7.94,0.2c0,0,21.189,83.32,21.81,97.63c0.229,5.44,1.1,17.32,2.07,29.839l12.14,2.091
				L643.58,397l2,0.63c3.84,1.15,6.939,4.18,10.11,6.57C660.41,407.79,662.47,409.19,661.93,402.12"/>
			<path clip-path="url(#SVGID_4_)" fill="#5D6C7E" d="M631.62,347.15c1.55,19.85,3.38,41.22,3.38,41.22s-9.84,0.091-24.09,1h3.16
				c9.899,0.07,20.1,4.68,29.54,7.72l0.17-47.82L631.62,347.15z"/>
			<path clip-path="url(#SVGID_4_)" fill="#5D6C7E" d="M564.49,394.64c-6.79,0.261-7.61-1.08-7.61-1.08S563.36,367.61,568,345
				l-19.42,2.71l-1,54.1c1.68-1.107,3.426-2.108,5.229-3C556.555,397.037,560.469,395.641,564.49,394.64"/>
			<path clip-path="url(#SVGID_4_)" fill="#54480E" d="M643.59,397.06c-9.439-3-19.64-7.648-29.54-7.72h-3.16l-2.689,0.17
				c-6.64,0.45-14.11,1.08-21.9,1.94l-1.149,0.12c-10,2.1-16.46,2.88-20.66,3.051c-4.034,1.009-7.957,2.419-11.711,4.21
				c-1.808,0.887-3.558,1.889-5.239,3l-0.18,11.259l16.169,191.641l15.561,0.25v1.949h0.09l19-128.069l0.08-0.721l7.49,129.21h0.09
				v-2l15.63,0.25L643.36,462.24L643.59,397.06z"/>
			<path clip-path="url(#SVGID_4_)" fill="#F1F6F8" d="M631.62,347.15c-1-12.521-1.84-24.4-2.07-29.84
				c-0.62-14.31-21.81-97.63-21.81-97.63l-7.94-0.2c-0.088,0.101-0.182,0.198-0.28,0.29c-0.252,0.228-0.548,0.401-0.869,0.509
				c-0.658,0.151-1.342,0.151-2,0l-7.86-1.109h-1.9l-10.63,22c0,0-3,58-3.701,75.589c-0.25,5.85-2.139,16.601-4.519,28.241
				c-4.63,22.59-11.13,48.54-11.13,48.54s0.819,1.34,7.609,1.08c4.2-0.17,10.681-0.949,20.66-3.05l1.15-0.12
				c7.79-0.86,15.26-1.489,21.899-1.94l2.69-0.17c14.25-0.899,24.09-1,24.09-1S633.17,367,631.62,347.15"/>
			<path clip-path="url(#SVGID_4_)" fill="#96620F" d="M612.69,164.45c2.27,4.289,3.551,9.031,3.75,13.88
				c0.069,1.29,0.17,2.78,1.17,3.52c1,0.74,0.159,2.61,0.939,1.51s3.46-4.93,3.57-6.3c0.238-3.232,0.191-6.477-0.14-9.7
				c-0.301-2.8-0.881-5.72-2.641-7.84c-1.09-1.197-2.366-2.211-3.78-3c-1.89-1.342-4.012-2.319-6.26-2.88
				c-3.881-0.72-6.24,0.79-2.78,3.6C609.023,159.222,611.119,161.67,612.69,164.45"/>
			<path clip-path="url(#SVGID_4_)" fill="#BF7D6D" d="M589.36,219.79l16,1.39c0.749-4.906,1.16-9.858,1.229-14.82
				c4.63-0.9,10.061-2.56,11.58-7.72c0.397-1.676,0.553-3.4,0.461-5.12c-0.041-7.14-0.084-14.277-0.131-21.41
				c0.117-2.462-0.177-4.925-0.869-7.29c-1.461-4-5-6.35-8.551-7.81c-9-3.73-19.32-3.45-27.46,2.12
				c-2.299,1.471-4.171,3.519-5.43,5.94c-1.891,4-1.591,8.78-1.221,13.3c0.327,4.167,0.661,8.337,1,12.51
				c0.38,4.8,1.13,10.31,4.69,12.8c1.88,1.33,4.3,1.54,5.93,3.27C589.46,210,588.24,215.46,589.36,219.79"/>
			<path clip-path="url(#SVGID_4_)" fill="#96620F" d="M620.22,190.65c-0.09-1.32-0.689-5.19-2.54-2.73
				c-0.438,0.717-0.65,1.55-0.609,2.39c0.04,0.849-0.031,1.699-0.21,2.53c-0.653,1.712-2.342,2.801-4.17,2.69
				c-0.696,0.02-1.386-0.142-2-0.47c-0.582-0.395-1.095-0.881-1.521-1.44l-3.33-4c-1.92-2.27-5.64-1.23-8.17-0.85
				c-3.01,0.34-5.856,1.549-8.189,3.48c-0.24,0.21-0.471,0.43-0.7,0.65c-0.54,0.547-1.148,1.021-1.811,1.41
				c-2.239,1.19-5,0-6.66-2.14c-0.739-1-1.43-2.27-2.56-2.42c-0.951-0.015-1.814,0.557-2.17,1.44c-0.397,0.926-0.602,1.923-0.6,2.93
				c-0.243,3.679,0.412,7.361,1.909,10.73c3.36,7,9.69,7.84,16,7.6l7.53-0.28c4.59-0.17,9.44-0.44,13.271-3.31
				c3.38-2.54,5.349-6.8,6.13-11.26C620.228,195.307,620.362,192.974,620.22,190.65 M603.56,200.91
				c-2.265,1.598-5.174,1.972-7.771,1c-1.149-0.35-0.689-2.39,0.461-2c2.12,0.81,4.505,0.502,6.35-0.82
				C603.6,198.37,604.55,200.18,603.56,200.91"/>
			<path clip-path="url(#SVGID_4_)" fill="#96620F" d="M620.67,152c0.418-1.742,0.722-3.509,0.91-5.29
				c-1.549,0.602-3.23,0.778-4.87,0.51l-0.05-3.08c0-0.85-10.92-1.31-11.811-1.38c-8.3-0.62-15.88-1.21-23.319,3.6
				c-6.344,3.926-10.502,10.577-11.25,18c-0.652,8.202,1.354,16.396,5.72,23.37c0-2-1.19-6.66-0.77-8.56
				c0.252-1.89,0.817-3.725,1.67-5.43c1.672-3.352,4.179-6.218,7.279-8.32c4.852-3.156,10.338-5.204,16.07-6
				c5.16-0.82,11.441-1.61,16.57-0.22c2.46,0.67,2.88,1.31,4.33-1.33c0.82-1.917,1.508-3.889,2.06-5.9L620.67,152z"/>
			<polygon clip-path="url(#SVGID_4_)" fill="#BF7D6D" points="510.32,341.29 510.41,350.12 515.86,355.38 515.35,357.17 
				513.22,356.64 516.51,362.38 515.68,367.78 509.41,371.12 502.32,369.75 499.88,362.99 501.27,354.47 500.64,342.4 			"/>
			<polygon clip-path="url(#SVGID_4_)" fill="#EFE1B4" points="514.17,346.07 530.81,296.049 562.38,283.12 568.71,220.14 
				527.2,257.96 494.61,297.38 497.76,352.68 			"/>
			<path clip-path="url(#SVGID_4_)" fill="#D39689" d="M735.49,206.48c0.191,0.247,0.346,0.52,0.46,0.81c0.93,2.68-0.13,4.65,0,7.49
				c0.08,1.27,2.819,2.85,0.78,4.43c-0.75,0.59-2.78,1.75-4.4,3C730,224,728,227.76,727,231c-4,12.88-4.47,26.53-4.56,40
				c-0.068,0.77,0.048,1.544,0.34,2.26c0.6,1.23,2,1.69,3.31,2.06c5.951,1.726,11.725,4.016,17.24,6.84
				c4.92,2.52,9.75,5.56,13.15,10c3.399,4.44,5.149,10.65,3.34,16c-1.361,4.039-4.579,7.179-8.65,8.44
				c-9.81,2.84-19-9.31-25.64-15.25c-6.26-5.627-12.117-11.685-17.53-18.13c-0.721-0.769-1.287-1.668-1.67-2.65
				c-0.258-1.102-0.292-2.245-0.1-3.36c1.688-14.451,4.132-28.804,7.319-43c0.839-3.93,3.55-6.89,4.29-10.53
				c0.47-2.32-0.76-4.49-0.78-6.78c0.031-2.507,0.47-4.994,1.301-7.36c1.55-4.17,5.818-5.38,9.46-6.81
				c0.745-0.385,1.583-0.555,2.42-0.49c1.46,0.19,2.479,1.24,3.529,2.24C734.407,205.089,734.982,205.759,735.49,206.48"/>
			<path clip-path="url(#SVGID_4_)" fill="#3F327A" d="M723,309.12c-6.628-6.154-12.454-13.119-17.34-20.73
				c-1.301-1.75-2.221-3.753-2.7-5.88c-0.204-1.808-0.126-3.636,0.229-5.42c1.527-10.44,3.054-20.884,4.58-31.33
				c0.221-1.49,0.631-3.24,2-3.77c0.853-0.217,1.752-0.146,2.561,0.2c18,5.53,8.56,6.43,14.15,20.15c5.22,12.83,14,10.2,22.5,3.41
				c5.579-4.45,13-5.19,20-5.76c2-0.16,4.189-0.3,6,0.75c1.81,1.05,2.8,3.15,3.63,5.14c6.963,16.922,8.917,35.489,5.63,53.49
				c-0.139,1.499-0.74,2.917-1.721,4.06c-1.169,0.89-2.6,1.369-4.069,1.36c-11.74,1.189-23.891,1.31-35-2.87
				C735.892,318.973,728.954,314.631,723,309.12"/>
			<polygon clip-path="url(#SVGID_4_)" fill="#D39689" points="819,576.07 823.95,596.97 812.06,600.02 806.57,576.85 			"/>
			<path clip-path="url(#SVGID_4_)" fill="#292949" d="M812.36,596.48l11.17,1.061l3.859,2.719l1.3,8.351l-27.529,9
				c-2.735-2.677-2.783-7.064-0.106-9.801c0.316-0.322,0.663-0.614,1.036-0.87l1.2-0.779L812.36,596.48z"/>
			<path clip-path="url(#SVGID_4_)" fill="#D39689" d="M898,482.85c4.92-2.31,9.52-6.33,14.53-8.13c0.67,4.13,1.47,8.24,2.22,12.36
				c-5.808,3.762-12.094,6.729-18.69,8.82C896.71,491.57,897.67,487.21,898,482.85"/>
			<path clip-path="url(#SVGID_4_)" fill="#292949" d="M915.08,486.8c-0.434-0.482-0.736-1.067-0.88-1.7
				c-1.05-3-3.86-11.22-1.36-14.119c0.41-0.471,0.66-0.07,1.09,0.079c6.734,2.479,12.937,6.212,18.28,11
				c2.54,2.171,5.06,5,5.57,8.48c0.106,1.401-0.138,2.807-0.71,4.09c-0.641,1.823-1.44,3.587-2.391,5.271
				c-0.35,0.609-0.609,1.279-1.399,1.31c-1.57,0.06-2.521-1.73-3-3.23c-0.48-1.5-0.771-3.359-1.88-4.54
				c-0.508-0.465-1.098-0.831-1.74-1.079C922.51,490.43,918.36,490.65,915.08,486.8"/>
			<path clip-path="url(#SVGID_4_)" fill="#5C6591" d="M809.14,481.2c11.67,17.149,26.939,23.521,44.931,27.26
				c20.59,4.28,37.41-1.1,54.14-13.38c-0.31-6.21-1.49-12.29-1.63-18.13c-19.43,5.41-29,5.72-44.22-11.22
				c-21.931-24.48-6.7-65.681-15.2-97.211c-0.871-3.645-2.371-7.109-4.43-10.239c-24.7-35.38-59.851-6.13-61,28.85
				C780.6,418.43,791.75,455.62,809.14,481.2"/>
			<path clip-path="url(#SVGID_4_)" fill="#5C6591" d="M834.6,366.91c-2.201-10.268-5.598-20.242-10.119-29.72
				c-17,3.109-35.45,9.609-51.23,17.109c-15.43,7.33-24.7,13.44-20.75,31.75c7.27,33.7,1,65.41,2.77,99.061
				c1,19.56,10.23,35,20.171,51c11.395,18.28,21.815,37.15,31.22,56.529l16.8-4.169c-0.229-27.28-8.521-53.681-14-80.371
				c-3.78-18.54-6.171-37.879-3.51-56.779c2.921-20.78,14.921-15.69,24.3-29.59C839.36,408.2,838.89,386.46,834.6,366.91"/>
			<path clip-path="url(#SVGID_4_)" fill="#3F327A" d="M799.49,237.41c2.081,1.289,4.057,2.74,5.91,4.34l5.09,4.17
				c5.87,4.82,9.59,12.74,12.8,19.57c16.92,36,28.59,87.149,27,127.8c-27.73,7-61.33,4.75-89.94,5.2c-2.79,0-6-0.101-7.739-2.34
				c-0.961-1.47-1.52-3.167-1.62-4.92c-3.66-25.061-2.5-52.79-1.34-78.25c0.447-10.748,1.502-21.462,3.159-32.09
				c1.801-11.23,3.909-23.38,10.61-32.72c7.16-10,22.67-16.83,34.2-11.74C798.261,236.721,798.886,237.048,799.49,237.41"/>
			<path clip-path="url(#SVGID_4_)" fill="#FEE7DE" d="M796.3,243.16V232.7c0.621-0.437,1.212-0.915,1.771-1.43
				c10.58-9.65,24.13-54.61-8.471-59c-29.609-4-22.199,36.4-14.189,52.47c1.299,2.751,3.08,5.247,5.26,7.37
				c1.521,1.42,1.76,1.07,1.85,3c0.091,1.93-1.35,4.19-1.47,6.17c-0.211,2.125,0.421,4.247,1.761,5.91
				c0.877,0.915,1.966,1.601,3.17,2c1.861,0.753,3.929,0.827,5.84,0.21C794.349,248.304,796.07,245.906,796.3,243.16"/>
			<path clip-path="url(#SVGID_4_)" fill="#66574D" d="M766.54,210.41c2.518,5.118,5.698,9.882,9.46,14.17
				c-1.62-10.001-1.92-20.171-0.89-30.25c0.178-0.756,0.056-1.552-0.342-2.22c-0.509-0.486-1.195-0.743-1.898-0.71
				C760.519,190.61,762.14,201.46,766.54,210.41"/>
			<path clip-path="url(#SVGID_4_)" fill="#736357" d="M800.12,220.51c2.33,2.51,6.41,1.09,9.14-0.93
				c11.21-8.28,16.12-24.71,11.41-38.16c-3.95-11.25-19.27-17.73-20-2.9c-0.26,5.26,3.75,11.85,3.889,17.62
				C804.76,204.38,802.27,212.68,800.12,220.51"/>
			<path clip-path="url(#SVGID_4_)" fill="#736357" d="M760.18,166l-3.939,2.41c-2.84,1.7-5,2.47-8.351,1.12
				c-1-0.39-7.79-5.32-6.529-6.77c-8.33,9.6,1.21,20.16,6,28c3.229,5.25,4.88,13.12,10.819,15.94c6.54,3.11,9.87-2.65,14.939-5.8
				c4.461-2.78,9.451-4.69,14-7.26c7.611-4.26,18.801-11.41,14.521-22.11c-5-12.5-18.12-13.74-29.33-11
				C767.999,161.691,763.903,163.538,760.18,166"/>
			<path clip-path="url(#SVGID_4_)" fill="#D39689" d="M892.55,236.06c-0.305-0.01-0.608,0.03-0.899,0.12
				c-2.591,0.9-3.431,3-5.681,4.59c-1,0.72-3.89-0.55-3.83,2.1c0,1,0.4,3.36,0.471,5.44c0.1,3-1.54,6.95-3.391,9.8
				c-3.49,5.41-18.68,15.82-15.569,23.56c7.319,18.17,24.56-17.74,26.77-20.5c1.45-1.82,3.859-2.16,5.6-3.56
				c1.892-1.586,3.498-3.483,4.75-5.61c2.19-3.84,0.46-8.09-0.71-12c-0.169-0.846-0.56-1.632-1.13-2.28c-1-1.08-2.46-1.27-3.87-1.51
				C894.229,236.08,893.39,236.03,892.55,236.06"/>
			<path clip-path="url(#SVGID_4_)" fill="#3F327A" d="M839.26,320.51c16.351-11,32.311-23.38,45.9-37.58
				c-4.22-4.73-9.58-12.73-16.91-11.23c-11,2.27-16.83,15.64-30.16,10.14c-11.7-4.82-15.319-21.35-26.58-27.21
				c-1.112-0.692-2.434-0.968-3.729-0.78c-0.886,0.281-1.688,0.771-2.341,1.43c-20,14.81,1.899,49.57,8,65.19
				c1.58,4,3.85,8.69,8,9.3c2.67,0.381,5.229-1.1,7.529-2.55C832.36,325,835.84,322.81,839.26,320.51"/>
			<path clip-path="url(#SVGID_4_)" fill="#D39689" d="M417.26,240.43c-2.35,4.45-5.93,8-8.92,12c-2.99,4-4.13,7.52-5.16,12.22
				c-0.75,3.39-2.12,6-6.13,6.26c-7.56,0.52-5-5.75-6.32-10.57c-1.56-5.5-5.4-10-8-15.06c-7.38-14.45-3-41.56,14.76-46
				C417,194.38,424.36,226.94,417.26,240.43"/>
			<path clip-path="url(#SVGID_4_)" fill="#292949" d="M387.92,224.72c-2.16-0.08-4.55-0.09-6.26,1.3
				c-1.71,1.39-1.77,4.69,0.32,5.21c1.89,0.47,4.52-1.42,5.58,0.19c0.62,0.94-0.07,2.2-0.67,3.2
				c-2.259,3.831-3.151,8.316-2.53,12.72c-0.84,0.7-2-0.19-2.65-1c-3.167-4.223-5.515-9.002-6.92-14.09
				c-0.782,1.151-1.85,2.078-3.1,2.69c0.85-1.8,0.54-3.88,0.23-5.81c-1.12-7.11-1.64-15.38,3.45-20.73
				c2.857-2.759,6.582-4.441,10.54-4.76c3.884-0.288,7.788-0.113,11.63,0.52c1.64,0.21,3.65,0.74,3.93,2.36
				c-3.987,1.267-7.427,3.847-9.76,7.32C391,214.87,388.14,224.72,387.92,224.72"/>
			<path clip-path="url(#SVGID_4_)" fill="#292949" d="M396.78,208.53l-0.41,0.27c-1.74,1.17-3.39,2.64-5.42,3.06
				c-2.92,0.61-5.9-1.06-8.79-0.27c-3.24,0.89-5.59,4.66-8.06,6.81c-6.118,5.291-13.972,8.139-22.06,8
				c-1.342,0.091-2.691-0.02-4-0.33c-1.56-0.57-1.45-1.32,0.28-1.75c5.43-1.36,7.65-9,7.62-14.17c0-4.09-1.07-8.44,0.69-12.09
				c1.34-2.8,3.89-4.09,6.36-5.56c2.74-1.61,5.52-0.9,8.54-1.55s5.83-3,9-3.41c3.37-0.42,6.58,1.37,9.85,2.3
				c2.71,0.773,5.553,0.958,8.34,0.54c2.48-0.37,4.94-1.22,7.45-1c3.69,0.33,6.91,3,8.84,6.28c2.74,4.66,4.17,12.38,2.68,18.11
				c0.23-0.89-2.46-4.39-3-5.14c-1.16-1.58-2.59-3.09-4.5-3.48C405.84,204.27,400.49,206.14,396.78,208.53"/>
			<path clip-path="url(#SVGID_4_)" fill="#D39689" d="M242.21,569.59c1,2.812,2.59,5.22,3.87,7.852
				c26.46-9.361,52.64-23.191,78.26-35.111l-9-20.33c-12.05,10.554-25.083,19.93-38.92,28
				C274.26,551.31,242.07,569.191,242.21,569.59"/>
			<path clip-path="url(#SVGID_4_)" fill="#292949" d="M251.43,576.19c0.95,1.59,0.6,2.899,0,4.46
				c-0.468,0.844-0.834,1.739-1.09,2.67c-0.06,0.942,0.069,1.889,0.38,2.779c1.43,5.2,6,16.651-4.34,13.841
				c-9.38-2.551-12.19-18.57-13.48-27.939c-0.18-0.598-0.18-1.234,0-1.831c0.302-0.614,0.748-1.146,1.3-1.55
				c3.06-2.4,6.83-5.51,10-1.71c1.33,1.62,0.8,3.841,2.22,5.551C247.61,573.86,250.48,574.6,251.43,576.19"/>
			<path clip-path="url(#SVGID_4_)" fill="#3F327A" d="M334.2,426.56c-1.86,6.62-0.26,12.271,0.92,20.49
				c1.022,7.223,1.437,14.519,1.24,21.811c-0.17,6.25-0.82,12.609-3.2,18.35c-3.85,9.3-11.43,14.06-17.69,21.21
				c-5.078,5.928-10.662,11.402-16.69,16.36c-13.31,10.841-27.46,20.46-41.28,30.569c3.95,7.58,6.18,10.07,10.13,17.66
				c0.69,1.34,24.11-3.78,25.63-4.09c5.147-1.086,10.171-2.684,15-4.77c9.3-4,18.43-9.641,27.23-14.66
				c20.557-11.84,37.691-28.809,49.73-49.25c7.85-13.329,13.47-27.92,19.06-42.44c2.77-7.17,6.27-14.429,8.2-21.889
				c1.26-4.892,4.36-11.531,2.94-16.531c-1.22-4.61-4.22-7.59-8.32-10.5c-11-7.78-25.13-20.85-39.35-17.34
				c-7.56,1.86-10.68,6.64-16.07,11.57c-5.75,5.27-10.95,10.229-14.89,17.21C335.679,422.289,334.809,424.384,334.2,426.56"/>
			<path clip-path="url(#SVGID_4_)" fill="#D39689" d="M454.72,607.05c2.37,5.53,5.5,0.4,8.13,2.351c8.1-33,8.13-55.73,1.61-89
				c-6.83,1.59-13.59,3.46-20.4,5.06c7,15.4,10.88,26.271,12.81,45.17C457.17,573.61,454.36,606.26,454.72,607.05"/>
			<path clip-path="url(#SVGID_4_)" fill="#292949" d="M464.77,603.83c1.8-0.15,2.46,0.86,3.33,2.18c0.5,0.76,0.66,1.771,1.31,2.44
				c0.68,0.588,1.506,0.982,2.39,1.14c4.76,1.34,16.46,3.24,9,10.71c-6.77,6.78-20.94,1.641-29.06-2.06c-0.53-0.25-1.19-0.41-1.53-1
				c-0.349-0.571-0.548-1.222-0.58-1.89c-0.22-4.07-0.55-8.19,3.94-9.46c1.92-0.54,3.52,1.14,5.61,0.59
				C460.9,606.07,463,604,464.77,603.83"/>
			<path clip-path="url(#SVGID_4_)" fill="#3F327A" d="M401.26,469.27l26.84,20.881c2.94,2.3,5.95,4.659,8,7.859
				c1.84,2.91,2.75,6.33,3.6,9.7c4.659,18.549,8.291,37.341,10.88,56.29c0.667,4.667,1.243,9.333,1.73,14c0.44,4-1.29,9,1.75,11.44
				c3.5,2.81,14.83,2.489,19.32,3.239c2-25.279,4.023-50.566,6.07-75.859c0.359-4.511,0.72-9.08-0.09-13.529
				c-0.889-4.021-2.252-7.921-4.061-11.621c-15.61-35.556-35.038-69.311-57.94-100.67c-0.88-1.387-2.03-2.584-3.38-3.52
				c-1.93-1.16-4.29-1.131-6.52-1.069c-8.47,0.239-21.51-2-29.23,1.769c-9.706,4.76-18.031,11.928-24.18,20.82
				c-4.36,6.11-1.59,17.7,2.42,23.57c2.62,3.841,6.31,6.721,9.93,9.54L401.26,469.27z"/>
			<path clip-path="url(#SVGID_4_)" fill="#5C6591" d="M365.1,274.11c-2.887,2.099-5.542,4.5-7.92,7.16
				c-7.773,8.863-13.988,18.98-18.38,29.92c-10.2,25.05-12.16,52.56-14,79.53l-1.8,26.92c-0.61,8.83,0,10.79,9,10.38
				c16.63-0.76,34-3,49.47-9.609c7.35-3.16,14.31-7.351,22-9.68c11.12-3.391,22.11-0.5,33-2.391c-2.14-9.1-5.68-17.55-7-27
				c-1.16-9.501-1.671-19.069-1.53-28.64c0-13.44-0.51-26.87-0.75-40.31c-0.19-10.44-0.15-22.7-6.31-31.56
				c-2.06-3.071-4.901-5.539-8.23-7.15c-2.4-1.07-6.75-1.77-8.17-4.39c-0.111-0.251-0.159-0.526-0.14-0.8
				c-0.06-3.33,0.94-6.35-2.18-7.54c-1.73-0.66-4.21-0.59-6-0.71c-2.59-0.16-9.11-0.82-9.86,3c-0.092,1.014-0.269,2.017-0.53,3
				c-0.079,0.241-0.212,0.46-0.39,0.64c-0.26,0.18-0.558,0.3-0.87,0.35C377.493,266.808,370.882,269.832,365.1,274.11"/>
			<path clip-path="url(#SVGID_4_)" fill="#D39689" d="M502.88,197.34c-0.285,0.01-0.569,0.04-0.85,0.09
				c-2.62,0.52-3.379,3.18-5.5,4.29c-0.95,0.49-4-0.26-3.851,1.55c0.061,0.67,0.11,3,0.29,5.24c0.261,3.32-1.83,6.14-3.46,8.74
				L483,227.74c-1.818,3.087-3.882,6.023-6.17,8.78c-5.68,6.45-13,9.62-20.22,13.53c-7.64,4.14-15.73,8.34-22.74,13.58
				c-2.605,1.743-4.738,4.103-6.21,6.87c-3.33,7.17,2.1,11.95,8.81,11.07c2.817-0.48,5.547-1.377,8.1-2.66
				c7.039-3.217,13.722-7.162,19.94-11.77c2.91-2.16,5.72-4.45,8.53-6.75c7.043-5.711,13.183-12.454,18.21-20
				c2.17-3.88,3.93-8,5.77-12c1.132-2.48,2.601-8.56,5.65-8.89c0.506,0,1.011-0.04,1.51-0.12c0.55-0.18,1.052-0.48,1.472-0.88
				c1.669-1.35,3.173-2.894,4.479-4.6c2.3-3.07,0.47-8.87-0.32-12.2c-0.229-2.318-2.211-4.064-4.54-4
				C504.489,197.493,503.688,197.372,502.88,197.34"/>
			<path clip-path="url(#SVGID_4_)" fill="#5C6591" d="M453.74,282.05c2.24-1.34,4.45-2.75,6.59-4.27
				c8.006-5.699,14.899-12.816,20.34-21c-2.39-5.807-5.281-11.395-8.64-16.7c-21.78,9.84-43.79,14.73-66.53,21
				c-8,2.22-16.27,4.58-22.64,10.08c-11.76,10.13-8.12,30.85,7.23,34.43c18.57,4.33,40.45-10.4,56.13-19.2
				C448.74,285,451.26,283.55,453.74,282.05"/>
			<path clip-path="url(#SVGID_4_)" fill="#F1F6F8" d="M817.68,262c-0.22,0.09-0.439,0.2-0.67,0.27
				c-11.71,3.66-24.46,6.16-36.859,8.19c-8.75,1.42-17.66,2.81-26.561,3c-13.93,0.36-21.29-6-24.33-19.12
				c-3.729-16.05-0.5-33.14,0.83-49.25c0.25-3,0.561-28.94,3.18-29.52c-8.56,1.89-12.939-7.48-21.6-6.23
				c-1.66,0.23-3.42,0.56-5.24,0.92c-0.431-3.83-1.971-7.452-4.43-10.42c-7.34-9.22-19.35-20.76-15.08-33.35
				c2.05-1.8,4.12-3.56,6.09-5.35c7.052-6.534,12.931-14.229,17.38-22.75c4.002-7.537,9.55-14.144,16.28-19.39
				c-0.281,2.185,0.229,4.399,1.44,6.24c2.996,3.969,8.305,5.399,12.89,3.47l0.62-0.31c1.76-1,1-1.71-0.32-2.24
				c-1.319-0.53-2.899-1.16-3.41-2.8c-1.229-4.27,9.74-5.31,11.74-5.61c19.68-3,33.83,23.37,38.7,28.7c0,0-1.49,9.51,1.84,13.26
				c0.607,0.649,1.089,1.405,1.42,2.23c-0.801,1.353-1.391,2.82-1.75,4.35c-6.83,2,0.391,10.64-3.93,14.59
				c-1.66,1.51-3.9,2-5.65,3.45c-0.355,0.251-0.633,0.598-0.8,1c-0.209,0.675-0.02,1.41,0.491,1.9c1.929,2,4.829,2.15,7.629,1.5
				c0.58,9.33,3.479,18.85,11,26c-0.78,7.36-2.74,18.67-11,20.57c-1.211,0.187-2.386,0.551-3.49,1.08c-5.35,3,1,10.38,4.54,11.23
				c5.28,1.28,11.23-0.12,16.92-1c1.28-0.19,2,1.72-1.13,4.59c-8.16,7.65-17,18.73-14.36,31.2c2,9.19,9,15,17.06,17.83
				C810.543,261.298,814.096,261.894,817.68,262"/>
			<path clip-path="url(#SVGID_4_)" fill="#BABCBE" d="M704.29,158.46c-7.63-9.57-19-21.37-14.561-34.45
				c-6.3,5.51-13.579,11.18-16.439,19.34c-3.21,9.11-0.771,20.05,7.479,25.24c8,5,18.901,3,28.222,1.18
				C708.529,165.63,706.898,161.707,704.29,158.46"/>
			<path clip-path="url(#SVGID_4_)" fill="#3B3F54" d="M677.16,149.84c-0.258-1.84,1.005-3.547,2.84-3.84
				c1.812-0.243,3.477,1.029,3.721,2.84c0.295,1.839-0.945,3.574-2.781,3.89c-1.811,0.249-3.48-1.017-3.729-2.828V149.9
				L677.16,149.84z"/>
			<path clip-path="url(#SVGID_4_)" fill="#3B3387" d="M728,59.35c-4.722,7.484-10.441,14.29-17,20.23
				c2.45,6.65,4.18,11.14,4.18,11.14c3.266-4.423,7.133-8.368,11.49-11.72c0.529-4.002,2.464-7.685,5.46-10.39
				c0.562-0.489,1.157-0.941,1.78-1.35C732.24,65,730.23,62.29,728,59.35"/>
			<path clip-path="url(#SVGID_4_)" fill="#BABCBE" d="M705.91,31.74c-4.88-5.45-8.811-9-10.38-8.63c-1.9,0.51-0.4,8,2.46,17.88
				C701,38.243,703.66,35.136,705.91,31.74"/>
			<path clip-path="url(#SVGID_4_)" fill="#8CABEF" d="M705.91,31.74c-2.247,3.399-4.903,6.509-7.91,9.26c1.15,4,2.53,8.37,4,12.81
				c4.466-3.906,8.191-8.584,11-13.81C710.5,37,708.11,34.19,705.91,31.74"/>
			<path clip-path="url(#SVGID_4_)" fill="#5D66D3" d="M713,40c-2.812,5.215-6.537,9.883-11,13.78c1.4,4.24,2.88,8.54,4.32,12.64
				c5.674-4.649,10.666-10.071,14.83-16.11C718.45,46.85,715.66,43.33,713,40"/>
			<path clip-path="url(#SVGID_4_)" fill="#474EBB" d="M721.14,50.33c-4.146,6.037-9.121,11.46-14.779,16.11
				c1.689,4.8,3.34,9.33,4.739,13.14c6.56-5.94,12.278-12.746,17-20.23C725.88,56.5,723.55,53.43,721.14,50.33"/>
		</g>
		<g clip-path="url(#SVGID_2_)">
			<defs>
				<path id="SVGID_9_" d="M733.92,67.24c-0.623,0.409-1.218,0.86-1.781,1.35c-3.002,2.709-4.941,6.4-5.469,10.41
					c-0.281,2.185,0.229,4.399,1.44,6.24c2.996,3.97,8.305,5.399,12.89,3.47l0.62-0.31c1.76-1,1-1.71-0.321-2.239
					c-1.317-0.531-2.897-1.161-3.41-2.801c-1.229-4.27,9.741-5.31,11.741-5.61c15-2.26,26.74,12.44,33.66,22
					c2.34,3.45,9.13,15.6,3.19,33.65c-2,6-5.842,7.93-7.869,9.83c-1.176,0.884-1.409,2.552-0.525,3.725
					c0.002,0.002,0.003,0.003,0.004,0.005c0.064,0.094,0.139,0.181,0.219,0.26c2.361,2.93,5.812,3.17,9.121,2.36l0.209-0.06
					c0.722,9.51,3.642,19.16,10.821,26.56c-0.86,7.34-3,17.76-10.83,19.56c-1.21,0.312-2.371,0.789-3.45,1.42
					c-5.35,3,0.92,9.7,4.45,10.55c5.28,1.28,11.231-0.119,16.919-1c0.285-0.047,0.567-0.113,0.84-0.199
					c-0.3,1.358-1.062,2.571-2.158,3.428c-8.159,7.641-17,19.541-14.36,32.001c2,9.19,9.148,15.26,17.2,18
					c3.422,1.2,6.992,1.926,10.609,2.16c8.051,0.581,16.062-1.561,22.75-6.08c4.44-3.13,8.91-7.489,10.37-13.07
					c0.467-1.471,0.554-3.037,0.25-4.55c-0.479-1.77-2-2.74-3.1-0.53c-1.442,2.82-4.135,4.79-7.26,5.31
					c-6.57,1.391-12.182-3.61-10.11-10.83c0.511-1.56,1.23-3.043,2.14-4.411c2.999-4.999,7.419-9.339,9.919-14.639
					c2.409-4.883,3.424-10.337,2.933-15.76c-0.853-7.3-4.901-15.87-12.602-17.45l-0.39-0.06c1.429-5.289,1.79-10.81,1.059-16.24
					c5.691,0.29,12.271-5.63,14.643-10.54c0.879-1.891,1.849-4.9,1.349-6.98c-0.135-0.716-0.646-1.302-1.34-1.53
					c-0.809-0.053-1.603,0.234-2.19,0.79c-3.13,2.27-6.609,6.15-10.751,4.48c-4.488-1.83-6.639-7.849-7.329-12.41
					c-1.279-8.45-0.25-15.06-4.64-22.4c-1.83-3.07-6.59-7.75-11.66-7.25c3.5-0.38,0-18-0.899-20.46c-3.46-9.51-12.69-16.45-21-21
					c-8.515-4.64-18.283-7.138-27.999-7.139C752.021,59.251,742.275,61.792,733.92,67.24"/>
			</defs>
			<clipPath id="SVGID_10_">
				<use xlink:href="#SVGID_9_"  overflow="visible"/>
			</clipPath>
			
				<linearGradient id="SVGID_11_" gradientUnits="userSpaceOnUse" x1="0" y1="646.292" x2="1" y2="646.292" gradientTransform="matrix(124.6328 0 0 124.6328 726.625 -80388.2812)">
				<stop  offset="0" style="stop-color:#15EEFF"/>
				<stop  offset="1" style="stop-color:#CC7FFF"/>
			</linearGradient>
			<rect x="726.389" y="59.251" clip-path="url(#SVGID_10_)" fill="url(#SVGID_11_)" width="124.964" height="203.33"/>
		</g>
		<g clip-path="url(#SVGID_2_)">
			<defs>
				<rect id="SVGID_12_" width="955.36" height="646.29"/>
			</defs>
			<clipPath id="SVGID_13_">
				<use xlink:href="#SVGID_12_"  overflow="visible"/>
			</clipPath>
			<path clip-path="url(#SVGID_13_)" fill="#F7F7F7" d="M768.29,97.69c-3.62-0.2-11.12-7.58-10.351-11.28
				c1.91-9.11,10.091-22.09,9.341-27.49c-1-7.55,12.189-5.62,11.75,9.27c-0.44,14.89-0.341,28.37-6.44,29.3
				C771.168,97.711,769.727,97.779,768.29,97.69"/>
			<path clip-path="url(#SVGID_13_)" fill="#3B3F54" d="M730.54,123.09c0.459,2.969-1.541,5.76-4.5,6.28
				c-2.929,0.378-5.611-1.683-6-4.61c-0.459-2.969,1.541-5.76,4.5-6.28C727.469,118.102,730.151,120.163,730.54,123.09"/>
			<path clip-path="url(#SVGID_13_)" fill="#DDDAE8" d="M772.59,97.49c6.101-0.93,6-14.4,6.439-29.3c0.181-6.14-2-10.08-4.479-12
				c0,0.18,3,35.32-9.56,40.19l1.3,0.75c0.621,0.331,1.3,0.538,2,0.61C769.729,97.812,771.17,97.729,772.59,97.49"/>
			<path clip-path="url(#SVGID_13_)" fill="#FFBC00" d="M906.84,158l9.16,40c0.139,0.651,0.592,1.191,1.21,1.44l36.88,14.85
				c1.047,0.45,1.538,1.658,1.101,2.71c-0.159,0.383-0.431,0.708-0.78,0.93l-33.73,21.37c-0.561,0.362-0.91,0.973-0.939,1.64
				l-2.15,41c-0.054,1.103-0.991,1.954-2.095,1.9c-0.002,0-0.005,0-0.005,0c-0.424-0.027-0.829-0.184-1.16-0.45l-30-26.75
				c-0.484-0.439-1.159-0.601-1.79-0.43l-38.18,10.41c-1.066,0.286-2.163-0.345-2.45-1.41c-0.123-0.457-0.081-0.942,0.119-1.37
				L857.16,226c0.249-0.626,0.189-1.333-0.16-1.91l-21.46-34.5c-0.646-0.896-0.442-2.146,0.454-2.792
				c0.393-0.282,0.874-0.413,1.355-0.368l39.4,3.33c0.652,0.047,1.289-0.23,1.7-0.74l24.91-31.86
				c0.71-0.845,1.973-0.953,2.817-0.242c0.001,0.001,0.002,0.001,0.002,0.002C906.511,157.199,906.743,157.578,906.84,158"/>
			<path clip-path="url(#SVGID_13_)" fill="#F1F6F8" d="M903.29,165.86l-21.93,26.94c-1.122,1.41-2.906,2.121-4.69,1.87L843,189.94
				l34.49,10c2.21,0.62,4.562-0.298,5.77-2.25L903.29,165.86z"/>
			<path clip-path="url(#SVGID_13_)" fill="#FFBC00" d="M843.73,259.48l-1.73,4.36c-0.456,1.006-0.011,2.191,0.995,2.648L843,266.49
				c0.428,0.2,0.913,0.243,1.37,0.12l38.2-10.49c0.631-0.171,1.305-0.009,1.79,0.43l30,26.75c0.856,0.697,2.116,0.568,2.813-0.289
				c0.269-0.329,0.425-0.736,0.446-1.161l2.149-41c0.029-0.667,0.38-1.278,0.939-1.64l33.661-21.35
				c0.962-0.608,1.249-1.88,0.642-2.842c-0.004-0.006-0.008-0.012-0.012-0.018c-0.229-0.344-0.551-0.615-0.93-0.78l-12.361-5
				C912.63,242.82,876.541,255.55,843.73,259.48"/>
			<path clip-path="url(#SVGID_13_)" fill="#11264B" d="M514.85,304.57h181c4.523,0,8.19,3.667,8.19,8.19v129.05H506.66v-129
				c0-4.523,3.667-8.19,8.189-8.19V304.57z"/>
			<path clip-path="url(#SVGID_13_)" fill="#CACBCC" d="M704,459.55l-197.33-0.62c-4.878-0.048-9.361-2.688-11.77-6.93l220.85,0.68
				C713.331,456.895,708.858,459.509,704,459.55"/>
			<path clip-path="url(#SVGID_13_)" fill="#BABCBE" d="M497.58,441.47h215.49c1.64,0,2.97,1.33,2.97,2.971v6.439
				c0,1.641-1.33,2.97-2.97,2.97H497.58c-1.641,0-2.97-1.329-2.97-2.97v-6.439C494.61,442.8,495.939,441.47,497.58,441.47"/>
			<g opacity="0.14" clip-path="url(#SVGID_13_)">
				<g>
					<defs>
						<rect id="SVGID_14_" x="587.06" y="445.11" width="36.53" height="4.38"/>
					</defs>
					<clipPath id="SVGID_15_">
						<use xlink:href="#SVGID_14_"  overflow="visible"/>
					</clipPath>
					<path clip-path="url(#SVGID_15_)" fill="#000100" d="M589.09,445.11h32.47c1.121,0,2.03,0.908,2.03,2.029v0.32
						c0,1.121-0.909,2.03-2.03,2.03h-32.47c-1.121,0-2.03-0.909-2.03-2.03v-0.32C587.06,446.019,587.969,445.11,589.09,445.11"/>
				</g>
			</g>
			<g opacity="0.04" clip-path="url(#SVGID_13_)">
				<g>
					<polygon points="610.1,345.11 634.98,421.41 641.42,371.48 					"/>
				</g>
			</g>
			<path clip-path="url(#SVGID_13_)" fill="#FFC0A5" d="M72.78,205.31c0.196,0.222,0.364,0.467,0.5,0.73c1,2.5,0.16,4.46,0.52,7.15
				c0.16,1.2,2.87,2.51,1,4.17c-0.68,0.61-2.55,1.86-4,3.14c-2.13,1.87-3.73,5.59-4.49,8.78c-3,12.56-2.58,25.6-1.8,38.5
				c-0.011,0.737,0.15,1.466,0.47,2.13c0.65,1.13,2,1.47,3.28,1.73c5.78,1.237,11.427,3.032,16.86,5.36
				c4.85,2.06,9.65,4.62,13.17,8.66c3.52,4.04,5.59,9.8,4.21,15.06c-1.04,3.947-3.906,7.159-7.71,8.64
				c-9.17,3.38-18.74-7.56-25.41-12.77c-6.332-4.942-12.31-10.322-17.89-16.1c-0.75-0.701-1.349-1.549-1.76-2.49
				c-0.312-1.036-0.417-2.124-0.31-3.2c0.693-13.904,2.108-27.763,4.24-41.52c0.55-3.79,2.94-6.81,3.42-10.33
				c0.3-2.24-1-4.23-1.18-6.41c-0.13-2.396,0.13-4.797,0.77-7.11c1.21-4.08,5.21-5.52,8.59-7.14c0.682-0.421,1.469-0.639,2.27-0.63
				c1.328,0.239,2.544,0.899,3.47,1.88C71.653,204.067,72.25,204.66,72.78,205.31"/>
			<path clip-path="url(#SVGID_13_)" fill="#EFE1B4" d="M67.29,302.92c-1.991-1.981-3.871-4.071-5.63-6.26l-15.83-19.75
				c-0.511-0.562-0.92-1.208-1.21-1.91c-0.322-1.281-0.288-2.627,0.1-3.89c2.05-9.877,3.218-19.916,3.49-30
				c5.975,2.608,12.505,3.684,19,3.13v20.29c-0.066,0.767,0.075,1.537,0.41,2.23c0.45,0.571,1.054,1.001,1.74,1.24
				c15.22,7.71,31.89,10.8,48,15.84c7.8,2.44,15.85,5,22,10.63c13,12,5.57,34.5-12.39,33.91
				C105.68,327.72,82.94,318.46,67.29,302.92"/>
			<polygon clip-path="url(#SVGID_13_)" fill="#FFC0A5" points="130.75,604.69 131.03,625.26 117.34,625.42 117.03,602.62 			"/>
			<path clip-path="url(#SVGID_13_)" fill="#292949" d="M118.36,622.2l10.17,3.5l3,3.399l-0.52,8.061l-27.5,2.229
				c-2.007-2.961-1.233-6.991,1.729-8.999c0,0,0.001,0,0.001-0.001c0.416-0.278,0.863-0.51,1.33-0.689l1.28-0.46L118.36,622.2z"/>
			<polygon clip-path="url(#SVGID_13_)" fill="#FFC0A5" points="215.06,584.97 222.81,603.89 212.04,608.67 203.45,587.69 			"/>
			<path clip-path="url(#SVGID_13_)" fill="#292949" d="M210.26,609c0.403-0.468,0.855-0.891,1.35-1.26c1.3-1,11.73-6.75,12.62-4.15
				c0.1,0.438,0.1,0.893,0,1.33c-0.856,7.462-2.533,14.807-5,21.9c-1,3-2.65,6.37-5.65,7.13c-1.333,0.239-2.703,0.16-4-0.23
				c-1.953-0.457-3.868-1.062-5.73-1.81c-0.719-0.201-1.343-0.651-1.76-1.271c-0.71-1.33,0.53-2.909,1.82-3.63
				c1.29-0.72,2.86-1.229,3.49-2.609c0.239-0.64,0.361-1.317,0.36-2C208.05,617.36,207.23,612.51,210.26,609"/>
			<path clip-path="url(#SVGID_13_)" fill="#5C6591" d="M139.57,509.37c3.83,18.29,14.81,31.42,26.53,44.87
				c13.438,15.428,26.049,31.558,37.78,48.319l15.23-6.56c-4.24-25.7-15.94-49.27-25-73.58c-6.3-16.88-11.4-34.74-11.68-53
				c-0.14-9.08,2-17.38,3.1-26.2c1.4-10.939,1.48-22.149,2.75-33.13c0.42-3.689,0.66-8-2.06-10.439
				c-1.269-0.98-2.772-1.611-4.36-1.83C124.11,386.13,132.27,474.6,139.57,509.37"/>
			<path clip-path="url(#SVGID_13_)" fill="#5C6591" d="M186.61,413.49c0.081-10.072-1.01-20.12-3.25-29.939
				c-16.43-0.921-35,1-51.24,4.409c-15.88,3.35-25.78,7-25.89,24.89c-0.21,33-12.6,61.12-17.94,92.841
				c-3.11,18.439,2.26,34.93,8.21,51.999c6.814,19.567,12.606,39.473,17.35,59.641l16.51-0.1c5.43-25.45,3.19-51.89,3.65-78
				c0.32-18.11,2.1-36.65,8.49-53.65c7-18.68,17.14-11.239,28.75-22.08C182.53,453,186.55,432.65,186.61,413.49"/>
			<path clip-path="url(#SVGID_13_)" fill="#EFE1B4" d="M168,286.48c1.799,1.529,3.471,3.201,5,5l4.23,4.7
				c4.89,5.43,7.3,13.47,9.4,20.41c11,36.51,15,86.61,7.83,124.76c-27.16,2.45-58.59-4.689-85.68-8.54c-2.64-0.38-5.62-1-7-3.369
				c-0.699-1.53-0.992-3.215-0.85-4.891c0-24.22,4.91-50.25,9.52-74.13c1.903-10.079,4.377-20.042,7.41-29.84
				c3.26-10.34,6.92-21.5,14.53-29.33c8.15-8.37,23.74-12.5,33.94-6C166.912,285.625,167.469,286.036,168,286.48"/>
			<path clip-path="url(#SVGID_13_)" fill="#FFC0A5" d="M157.43,284.7c-0.169,0.369-0.399,0.707-0.68,1
				c-1.217,1.242-2.802,2.059-4.52,2.33c-2.216,0.269-4.461,0.161-6.64-0.32c-3-0.5-2.91-2.31-3.41-5.09
				c-0.27-1.52-0.45-3.05-0.6-4.59c-0.08-0.84,0.16-3.88-0.37-4.46c-0.36-0.39-1.79-0.21-2.42-0.54
				c-0.998-0.598-1.832-1.433-2.43-2.43c-0.932-1.588-1.648-3.293-2.13-5.07c-0.98-3.047-1.957-6.103-2.93-9.17
				c-1.103-3.091-1.897-6.283-2.37-9.53c-0.57-4.92,0-11.91,3.51-15.62c3.18-3.38,7.91-4.65,12.26-5.35
				c5.795-0.972,11.747,0.141,16.8,3.14c2.169,1.22,3.98,2.989,5.25,5.13c1.92,3.5,1.89,7.93,1.79,12.08
				c-0.08,3.82-0.167,7.646-0.26,11.48c-0.1,4.4-0.5,9.48-3.61,11.94c-1.64,1.31-3.83,1.64-5.23,3.3c-1.75,2.08-1.56,5.13-1.57,7.71
				C158.01,282.009,157.86,283.392,157.43,284.7"/>
			<path clip-path="url(#SVGID_13_)" fill="#292949" d="M137.93,235.78c-0.192,0.361-0.349,0.74-0.47,1.13
				c-0.62,2-0.11,4.32-0.72,6.37c-1,3.25-4.53,5.28-5,8.65c-0.37,2.75,1.49,5.31,1.71,8.08c0.24,3-1.56,5.95-1.19,8.93
				c0.536,2.982,1.743,5.803,3.53,8.25c-0.48-0.63-4.65-0.29-5.75-0.95c-1.69-1-1.9-1.67-2.44-3.46s-0.19-3.55-1-5.37
				c-1-2.22-3-3.82-3.7-6.2c-1-3.25,0.59-6.75,0.37-10.15c-0.32-5.16-4.72-9.91-3.29-14.85c0.84-2.9,3.48-4.81,4.92-7.44
				c1.1-2,1.47-4.33,2.21-6.5c0.74-2.17,2-4.35,4.15-5c1.202-0.248,2.418-0.432,3.64-0.55c2.08-0.46,3.77-2,5.76-2.76
				c2.85-1.09,8,1.8,9.73,4.29c1.73,2.49,0.94,4.64-0.7,6.91C147,228.89,140.16,231.5,137.93,235.78"/>
			<path clip-path="url(#SVGID_13_)" fill="#292949" d="M176.25,219.51c1.75,1.27,3.9,2.16,5.51,3.66c3.14,2.92,3.84,7.7,4.06,12.07
				c0.19,3.9,1.92,7.32,1.61,11.4c-0.087,2.752-1.293,5.349-3.34,7.19c-2.61,2.08-6.77,2.52-7.87,5.74
				c-1.21,3.49,2.34,7.76,0.33,10.82c-1.11,1.69-3.37,2-5,3.15c-1.81,1.3-2.7,3.54-3.78,5.53c-1.08,1.99-2.71,4-4.9,4.11
				c-0.18-3.47-0.34-6.22,1-9.43c0.79-1.88,3.15-5.36,1.22-7.31c-1.22-1.64-4-2.1-4.15-4.17c0.084-0.97,0.457-1.893,1.07-2.65
				c1.859-3.333,2.07-7.34,0.57-10.85c-1.482-3.436-4.182-6.203-7.58-7.77c-3.87-1.83-3.28-2.81-4.48-6.59
				c-1.1-3.47-3-4.24-6.09-5.44c-2.74-1.07-3.63-1.76-4.7-4.38c-0.78-1.92-1.74-4.22-0.73-6.41c0.919-1.669,2.201-3.111,3.75-4.22
				c3-2.53,6.42-5.19,10.29-5c2.15,0.11,4.19,1.1,6.34,1.17c1.44,0,2.85-0.32,4.29-0.41c2.492-0.142,4.959,0.562,7,2
				c2,1.48,2,3.08,3.18,5.22C174.44,217.971,175.262,218.851,176.25,219.51"/>
			<path clip-path="url(#SVGID_13_)" fill="#292949" d="M178.85,223.55c-0.44-2.41-0.27-5.57,1.92-6.45c1.21-0.48,2.58,0,3.84-0.33
				c2.68-0.64,3.51-4.06,4.87-6.56c0.165-0.388,0.449-0.713,0.81-0.93c0.567-0.172,1.173-0.172,1.74,0
				c2.69,0.27,4.66-2.54,7.16-3.61c3.249-1.152,6.82,0.53,8,3.77l0.06,0.16c0.42,1.36,0.38,2.84,0.78,4.21
				c1.61,5.55,9.53,7.72,9.87,13.5c0.23,3.91-3.36,7.76-1.84,11.34c1,2.3,3.87,3.8,3.6,6.29c-0.291,1.602-1.692,2.762-3.32,2.75
				c-1.573-0.095-3.057-0.755-4.18-1.86c-1.89-1.63-3.34-3.75-5.14-5.49c-1.8-1.74-4.19-3.11-6.62-2.73c-2.43,0.38-4.44,2.34-6.79,2
				c-1.89-0.27-3.32-2-5.18-2.42s-3.51,0.34-5.28,0.5c-1.77,0.16-4-0.75-4.07-2.6c0.04-0.447,0.02-0.898-0.06-1.34
				c-0.41-1.19-2.37-1.06-2.77-2.25c0.89-1.52,2.21-1,2.83-3C179.6,227,179.12,225.06,178.85,223.55"/>
			<path clip-path="url(#SVGID_13_)" fill="#878787" d="M78.85,223.52l2.32,11c0.614,3.424,3.886,5.702,7.31,5.09h0.11l27-6.21
				c3.433-0.912,5.51-4.397,4.68-7.85l-2.32-11L78.85,223.52z"/>
			<path clip-path="url(#SVGID_13_)" fill="#FFBC00" d="M132.67,56.52C124.49,17.88,88.53-6.7,52.36,1.62
				C16.19,9.94-6.51,48,1.67,86.62c2.707,13.086,8.93,25.187,18,35C44.81,150.05,54.8,176.4,54.8,176.4l33-7.57l33-7.58
				c0,0-1.58-28.28,9.74-65.09C134.773,83.373,135.508,69.687,132.67,56.52"/>
			<path clip-path="url(#SVGID_13_)" fill="#BABCBE" d="M54.06,176.6l9.88,46.65c0.297,1.847,2.033,3.104,3.88,2.81h0.12l61-14
				c1.846-0.517,2.943-2.412,2.47-4.27l-9.88-46.65L54.06,176.6z"/>
			<path clip-path="url(#SVGID_13_)" fill="#FFBC00" d="M128.74,43.69c-9.28,38.56-30.23,99.65-74,132.55
				c0.027,0.058,0.051,0.118,0.07,0.18l33-7.57l33-7.58c0,0-1.58-28.28,9.74-65.09c5.668-17.149,5.051-35.754-1.74-52.49H128.74z"/>
			<path clip-path="url(#SVGID_13_)" fill="#FFFFFF" d="M13.6,89.92c-7.15-33.73,12.66-67,44.25-74.22
				c18.51-4.24,36.85,1.3,50.37,13.43C94.47,13.09,73.36,5,52.15,9.89C20.57,17.15,0.76,50.38,7.9,84.11
				c2.742,13.307,9.658,25.393,19.74,34.5C20.62,110.38,15.791,100.512,13.6,89.92"/>
			<polygon clip-path="url(#SVGID_13_)" fill="#F6F7F7" points="75.04,171.78 48.14,84.05 61.28,91.33 67.47,72.79 80.59,86.35 
				89.47,74.46 100.51,165.92 103.89,165.14 91.85,65.35 80.24,80.88 66,66.18 59.33,86.13 42.25,76.66 71.66,172.55 			"/>
			<path clip-path="url(#SVGID_13_)" fill="#EDECED" d="M69,163.81l2.69,8.74l3.38-0.77L71.72,161
				C70.82,161.93,69.9,162.87,69,163.81"/>
			<path clip-path="url(#SVGID_13_)" fill="#FFFFFF" d="M96,128.26l4.54,37.66l3.39-0.78l-5.06-41.89
				C97.9,124.93,97,126.6,96,128.26"/>
			<polygon clip-path="url(#SVGID_13_)" fill="#A2A2A3" points="125.77,181.3 58.33,196.8 56.51,188.18 123.95,172.68 			"/>
			<polygon clip-path="url(#SVGID_13_)" fill="#A2A2A3" points="129.67,199.7 62.23,215.2 60.41,206.58 127.84,191.08 			"/>
			<path clip-path="url(#SVGID_13_)" fill="#96928D" d="M97.36,198.08l30.46-7l-2.07-9.78L107,185.62
				C104.036,189.96,100.817,194.121,97.36,198.08"/>
			<path clip-path="url(#SVGID_13_)" fill="#96928D" d="M124,172.68l-2.46-11.58l-1.06,0.24c-2.2,4.92-4.52,9.5-6.92,13.74
				L124,172.68z"/>
			<path clip-path="url(#SVGID_13_)" fill="#96928D" d="M67.91,226l61-14c1.846-0.517,2.942-2.412,2.47-4.27l-1.7-8l-44,10.12
				c-6.486,5.664-13.675,10.466-21.39,14.29C64.925,225.519,66.419,226.287,67.91,226"/>
			<path clip-path="url(#SVGID_13_)" fill="#878787" d="M107,185.62l18.79-4.32l-1.79-8.62l-10.44,2.4
				C111.36,178.84,109.2,182.35,107,185.62"/>
			<path clip-path="url(#SVGID_13_)" fill="#878787" d="M85.63,209.82l44-10.12l-1.83-8.62l-30.46,7
				C93.722,202.268,89.809,206.192,85.63,209.82"/>
			<path clip-path="url(#SVGID_13_)" fill="#5D5A59" d="M119.36,221.21c-6,9.57-20,15.28-24.71,17l20.94-4.81
				c3.433-0.912,5.511-4.397,4.68-7.85L119.36,221.21z"/>
			<path clip-path="url(#SVGID_13_)" fill="#FFFFFF" d="M75.68,299.13l-31.85-20.58L6.44,358.151c-1.775,3.509-0.666,7.792,2.59,10
				L46,392c3.249,2.062,7.548,1.178,9.72-2l51.84-70.26L75.68,299.13z"/>
			<path clip-path="url(#SVGID_13_)" fill="#BABCBE" d="M5.89,363.71c0.451,1.804,1.561,3.373,3.11,4.4L46,392
				c3.249,2.062,7.548,1.178,9.72-2l51.83-70.25L5.89,363.71z"/>
			<polygon clip-path="url(#SVGID_13_)" fill="#9F9B93" points="43.83,278.55 104.81,323.09 112.07,313.53 			"/>
			<polygon clip-path="url(#SVGID_13_)" fill="#11264B" points="33.36,300.18 93.58,339.09 63.59,378.99 12.37,345.89 			"/>
			<polygon clip-path="url(#SVGID_13_)" fill="#292949" points="41.41,277.21 109.44,321.17 113.55,314.26 45.52,270.31 			"/>
			<path clip-path="url(#SVGID_13_)" fill="#11264B" d="M113,297.54c-0.001-1.277-0.639-2.47-1.7-3.18l-23.67-15.3L64,263.77
				c-1.047-0.68-2.378-0.749-3.49-0.18L49.7,273l30,19.38l30,19.39L113,297.54z"/>
			<path clip-path="url(#SVGID_13_)" fill="#FFC0A5" d="M42.45,349.87c0.256-0.131,0.529-0.229,0.81-0.29
				c2.59-0.37,4.16,1.05,6.74,1.43c1.15,0.171,3.11-2.18,4.13,0.12c0.38,0.84,1,3.061,1.81,4.87c1.14,2.65,4.13,5.28,6.87,6.91
				c10.78,6.41,22.93,9.59,35.05,12.35c0.676,0.211,1.395,0.249,2.09,0.11c1.23-0.34,1.92-1.641,2.5-2.811
				c2.712-5.413,5.909-10.571,9.55-15.409c3.23-4.301,6.91-8.4,11.6-10.83s10.58-2.91,15.06-0.08
				c3.435,2.246,5.607,5.984,5.86,10.08c0.61,10.12-12.11,16.699-18.75,22c-6.258,4.97-12.865,9.485-19.77,13.51
				c-0.81,0.558-1.731,0.933-2.7,1.1c-1.03,0.041-2.055-0.15-3-0.56c-12.683-4.508-25.102-9.723-37.2-15.62
				c-3.35-1.59-5.48-4.819-8.6-6.26c-2-0.92-4.18-0.15-6.24-0.58c-2.259-0.529-4.409-1.45-6.35-2.72
				c-3.44-2.33-3.67-6.73-4.24-10.561c-0.22-0.802-0.22-1.648,0-2.449c0.562-1.26,1.507-2.31,2.7-3
				C41.021,350.681,41.717,350.241,42.45,349.87"/>
			<path clip-path="url(#SVGID_13_)" fill="#EFE1B4" d="M170.54,330.56c0.12-0.398,0.27-0.79,0.39-1.18
				c5.46-17.84-13.29-31.48-27.91-21.699c-6.85,4.569-11.44,11.94-15.83,19.079c-5.5,9-10.39,18.321-15.84,27.321
				c-8.54,14.109-22.72,12.919-37,9.469c-2.802,7.079-6.177,13.919-10.09,20.45c10.21,4.89,20.54,9.831,31.56,12.17
				c11.02,2.34,23,1.88,32.87-3.63c7.82-4.34,13.84-11.44,19.42-18.6C158.14,361,167.57,346.8,170.54,330.56"/>
			<g opacity="0.1" clip-path="url(#SVGID_13_)" enable-background="new    ">
				<g>
					<defs>
						<rect id="SVGID_16_" x="494.535" y="289" width="230.67" height="169.29"/>
					</defs>
					<clipPath id="SVGID_17_">
						<use xlink:href="#SVGID_16_"  overflow="visible"/>
					</clipPath>
					<g clip-path="url(#SVGID_17_)">
						<defs>
							<rect id="SVGID_18_" x="494.535" y="289" width="230.67" height="169.29"/>
						</defs>
						<clipPath id="SVGID_19_">
							<use xlink:href="#SVGID_18_"  overflow="visible"/>
						</clipPath>
						<g transform="matrix(1 0 0 1 3.051758e-05 -3.051758e-05)" clip-path="url(#SVGID_19_)">
							
								<image overflow="visible" width="233" height="171" xlink:href="C0E9937F00682AA9.png"  transform="matrix(0.99 0 0 0.99 494.5352 289)">
							</image>
						</g>
					</g>
				</g>
			</g>
			<path clip-path="url(#SVGID_13_)" fill="#EADED1" d="M641.11,372.75c0.17,0.14,0.34,0.271,0.51,0.42"/>
			<path clip-path="url(#SVGID_13_)" fill="#EADED1" d="M639.21,369.41c0.232,0.393,0.542,0.732,0.91,1"/>
		</g>
	</g>
	<g>
		<path fill="#F0F3F5" d="M698.427,428.452c0,1.552-1.069,2.838-2.346,2.838H515.617c-1.317,0-2.345-1.286-2.345-2.838v-109.89
			c0-1.552,1.068-2.838,2.345-2.838h180.464c1.276,0,2.346,1.287,2.346,2.838V428.452z"/>
		<path fill="#E8DDD0" d="M669.303,381.459c0.198,0.127,0.391,0.264,0.575,0.412"/>
		<path fill="#E8DDD0" d="M667.163,378.251c0.268,0.399,0.618,0.736,1.028,0.986"/>
		<g opacity="0.75" enable-background="new    ">
			<g>
				<defs>
					<rect id="SVGID_20_" x="518.815" y="330.11" width="173.78" height="78.674"/>
				</defs>
				<clipPath id="SVGID_21_">
					<use xlink:href="#SVGID_20_"  overflow="visible"/>
				</clipPath>
				<path clip-path="url(#SVGID_21_)" fill="#FFFFFF" d="M687.854,408.732H523.557c-2.589,0.002-4.688-2.093-4.69-4.682v-0.007
					v-69.192c-0.002-2.587,2.094-4.688,4.681-4.689h0.01h164.298c2.588-0.002,4.688,2.093,4.689,4.682v0.008v69.15
					C692.549,406.601,690.453,408.714,687.854,408.732"/>
				<path clip-path="url(#SVGID_21_)" fill="none" stroke="#676767" stroke-width="0.25" stroke-miterlimit="10" d="
					M687.854,408.732H523.557c-2.589,0.002-4.688-2.093-4.69-4.682v-0.007v-69.192c-0.002-2.587,2.094-4.688,4.681-4.689h0.01
					h164.298c2.588-0.002,4.688,2.093,4.689,4.682v0.008v69.15C692.549,406.601,690.453,408.714,687.854,408.732z"/>
			</g>
		</g>
		<path fill="#E3E3E3" d="M568.971,324.691c0,0.04-0.083,0.04-0.164,0.04h-46.732c-0.057-0.001-0.111-0.015-0.164-0.04v-2.921
			c0-0.042,0.083-0.042,0.164-0.042h46.772c0.058,0.002,0.113,0.017,0.166,0.042v2.921H568.971z"/>
		
			<line fill="none" stroke="#9C9C9E" stroke-width="0.25" stroke-miterlimit="10" x1="518.826" y1="383.311" x2="692.544" y2="383.311"/>
		
			<line fill="none" stroke="#9C9C9E" stroke-width="0.25" stroke-miterlimit="10" x1="544.413" y1="330.162" x2="544.413" y2="383.311"/>
		
			<line fill="none" stroke="#9C9C9E" stroke-width="0.25" stroke-miterlimit="10" x1="581.949" y1="330.204" x2="581.949" y2="383.352"/>
		<path fill="#FFE400" d="M541.656,335.469c-0.006,0.089-0.076,0.158-0.165,0.165h-2.509c-0.089-0.007-0.159-0.076-0.165-0.165
			v-2.551c0.006-0.088,0.076-0.157,0.165-0.164h2.509c0.089,0.007,0.159,0.076,0.165,0.164V335.469z"/>
		<path fill="none" stroke="#9C9C9E" stroke-width="0.25" stroke-miterlimit="10" d="M600.687,383.311"/>
		<path fill="none" stroke="#9C9C9E" stroke-width="0.25" stroke-miterlimit="10" d="M600.687,330.162"/>
		
			<line fill="none" stroke="#9C9C9E" stroke-width="0.25" stroke-miterlimit="10" x1="544.413" y1="356.078" x2="581.949" y2="356.078"/>
		
			<line fill="none" stroke="#9C9C9E" stroke-width="0.25" stroke-miterlimit="10" x1="605.294" y1="383.311" x2="605.294" y2="408.074"/>
		
			<line fill="none" stroke="#9C9C9E" stroke-width="0.25" stroke-miterlimit="10" x1="624.752" y1="330.162" x2="624.752" y2="383.311"/>
		<path fill="#EE4752" d="M578.295,361.673c-0.006,0.088-0.076,0.158-0.165,0.164h-2.509c-0.089-0.006-0.158-0.076-0.165-0.164
			v-2.551c0.007-0.088,0.076-0.158,0.165-0.164h2.509c0.089,0.006,0.159,0.076,0.165,0.164V361.673z"/>
		<path fill="#15BDCC" d="M578.295,335.798c-0.006,0.088-0.076,0.159-0.165,0.164h-2.509c-0.089-0.005-0.158-0.076-0.165-0.164
			v-2.551c0.007-0.089,0.076-0.158,0.165-0.165h2.509c0.089,0.007,0.159,0.076,0.165,0.165V335.798z"/>
		<path fill="#FFE400" d="M621.07,335.798c-0.007,0.088-0.077,0.157-0.164,0.164h-2.51c-0.089-0.007-0.159-0.076-0.164-0.164v-2.551
			c0.005-0.089,0.075-0.158,0.164-0.165h2.51c0.087,0.007,0.157,0.076,0.164,0.165V335.798z"/>
		<path fill="#FFE400" d="M602.456,389.028c-0.007,0.088-0.077,0.159-0.164,0.164h-2.51c-0.089-0.005-0.159-0.076-0.165-0.164
			v-2.551c0.006-0.089,0.076-0.159,0.165-0.164h2.51c0.087,0.005,0.157,0.075,0.164,0.164V389.028z"/>
		<path fill="#15BDCC" d="M689.336,389.028c-0.006,0.088-0.076,0.159-0.165,0.164h-2.509c-0.089-0.005-0.158-0.076-0.165-0.164
			v-2.551c0.007-0.089,0.076-0.159,0.165-0.164h2.509c0.089,0.005,0.159,0.075,0.165,0.164V389.028z"/>
		<path fill="#EE4752" d="M660.952,361.673c-0.008,0.087-0.076,0.158-0.165,0.164h-2.51c-0.088-0.006-0.158-0.077-0.164-0.164
			v-2.551c0.006-0.088,0.076-0.158,0.164-0.164h2.51c0.089,0.006,0.157,0.076,0.165,0.164V361.673z"/>
		
			<line fill="none" stroke="#9C9C9E" stroke-width="0.25" stroke-miterlimit="10" x1="663.378" y1="330.162" x2="663.378" y2="383.311"/>
		
			<line fill="none" stroke="#9C9C9E" stroke-width="0.25" stroke-miterlimit="10" x1="624.752" y1="356.365" x2="663.379" y2="356.365"/>
		<path fill="#404F61" d="M601.539,334.563L601.539,334.563l-15.709,0.041c-0.059,0-0.059,0-0.059-0.041v-1.439
			c0-0.022,0.027-0.042,0.059-0.042h15.65c0.059,0,0.059,0,0.059,0.042V334.563z"/>
		<path fill="#404F61" d="M644.122,360.809C644.122,360.851,644.062,360.851,644.122,360.809l-16.069,0.042
			c-0.06,0-0.06,0-0.06-0.042v-1.44c0-0.022,0.026-0.04,0.06-0.04h16.009c0.061,0,0.061,0,0.061,0.04V360.809z"/>
		<path fill="#E3E3E3" d="M607.753,339.294l-0.061,0.041H585.83c-0.059,0-0.059,0-0.059-0.041v-1.439l0.059-0.041h21.862
			c0.061,0,0.061,0,0.061,0.041V339.294z"/>
		<path fill="#F4F4F4" d="M613.891,341.928c-0.027,0.021-0.064,0.036-0.104,0.04h-27.97c-0.052,0-0.104,0-0.104-0.04v-1.44
			c0.028-0.022,0.065-0.037,0.104-0.042h27.97c0.052,0,0.104,0,0.104,0.042V341.928z"/>
		<path fill="#E3E3E3" d="M689.336,417.535c0,0.042-0.042,0.042-0.123,0.042h-30.276c-0.044-0.008-0.086-0.021-0.125-0.042v-2.92
			c0-0.041,0.042-0.041,0.125-0.041h30.317c0.043,0.006,0.085,0.021,0.123,0.041v2.92H689.336z"/>
		<path fill="#E3E3E3" d="M650.479,365.334l-0.061,0.041h-22.365c-0.06,0-0.06,0-0.06-0.041v-1.439l0.06-0.042h22.365
			c0.061,0,0.061,0,0.061,0.042V365.334z"/>
		<path fill="#F4F4F4" d="M654.514,368.008c-0.026,0.021-0.062,0.037-0.1,0.04h-26.383c-0.048,0-0.098,0-0.098-0.04v-1.44
			c0.025-0.021,0.061-0.036,0.098-0.042h26.383c0.05,0,0.1,0,0.1,0.042V368.008z"/>
		<path fill="#E3E3E3" d="M624.752,392.114l-0.042,0.04h-15.344c-0.04,0-0.04,0-0.04-0.04v-1.44l0.04-0.042h15.344
			c0.042,0,0.042,0,0.042,0.042V392.114z"/>
		<path fill="#F4F4F4" d="M631.497,394.787c-0.021,0.021-0.051,0.036-0.082,0.041h-22.008c-0.041,0-0.081,0-0.081-0.041v-1.439
			c0.021-0.023,0.051-0.037,0.081-0.041h22.008c0.042,0,0.082,0,0.082,0.041V394.787z"/>
		<path fill="#404F61" d="M620.35,387.712L620.35,387.712l-11.023,0.042c-0.041,0-0.041,0-0.041-0.042v-1.44
			c0-0.022,0.018-0.04,0.041-0.04h10.981c0.042,0,0.042,0,0.042,0.04V387.712z"/>
		<path fill="#404F61" d="M532.936,387.754L532.936,387.754l-11.025,0.04c-0.04,0-0.04,0-0.04-0.04v-1.44
			c0-0.022,0.018-0.042,0.04-0.042h10.983c0.042,0,0.042,0,0.042,0.042V387.754z"/>
		<path fill="#E3E3E3" d="M537.337,392.484l-0.041,0.04H521.91c-0.04,0-0.04,0-0.04-0.04v-1.44l0.04-0.042h15.344
			c0.042,0,0.042,0,0.042,0.042v1.44H537.337z"/>
		<path fill="#F4F4F4" d="M544.043,395.157c-0.023,0.022-0.053,0.037-0.083,0.041h-22.008c-0.042,0-0.082,0-0.082-0.041v-1.439
			c0.021-0.021,0.051-0.037,0.082-0.042h22.008c0.04,0,0.083,0,0.083,0.042V395.157z"/>
		<path fill="#404F61" d="M558.604,360.809L558.604,360.809l-11.023,0.042c-0.041,0-0.041,0-0.041-0.042v-1.44
			c0-0.022,0.018-0.04,0.041-0.04h10.983c0.04,0,0.04,0,0.04,0.04V360.809z"/>
		<path fill="#E3E3E3" d="M562.964,364.388l-0.04,0.041H547.58c-0.041,0-0.041,0-0.041-0.041v-1.44l0.041-0.04h15.344
			c0.04,0,0.04,0,0.04,0.04V364.388z"/>
		<path fill="#F4F4F4" d="M569.711,367.021c-0.021,0.021-0.051,0.036-0.082,0.041H547.58c-0.041,0-0.083,0-0.083-0.041v-1.439
			c0.022-0.023,0.052-0.037,0.083-0.042h22.007c0.042,0,0.083,0,0.083,0.042v1.439H569.711z"/>
		<path fill="#404F61" d="M558.604,334.44L558.604,334.44l-11.023,0.041c-0.041,0-0.041,0-0.041-0.041v-1.439
			c0-0.023,0.018-0.042,0.041-0.042h10.983c0.04,0,0.04,0,0.04,0.042V334.44z"/>
		<path fill="#E3E3E3" d="M562.964,338.389l-0.04,0.042H547.58c-0.041,0-0.041,0-0.041-0.042v-1.439l0.041-0.041h15.344
			c0.04,0,0.04,0,0.04,0.041V338.389z"/>
		<path fill="#F4F4F4" d="M569.711,341.577c-0.021,0.022-0.051,0.037-0.082,0.041H547.58c-0.041,0-0.083,0-0.083-0.041v-1.439
			c0.022-0.022,0.052-0.037,0.083-0.041h22.007c0.042,0,0.083,0,0.083,0.041v1.439H569.711z"/>
		<path fill="#404F61" d="M532.564,334.44L532.564,334.44l-10.612,0.041c-0.022,0-0.042-0.018-0.042-0.041v-1.439
			c0-0.023,0.02-0.042,0.042-0.042h10.571c0.023,0,0.041,0.019,0.041,0.042V334.44z"/>
		<path fill="#E3E3E3" d="M534.746,338.801c0,0.023-0.02,0.041-0.042,0.041h-12.752c-0.042,0-0.042,0-0.042-0.041v-1.439
			c0-0.023,0.02-0.041,0.042-0.041h12.752c0.042,0,0.042,0,0.042,0.041V338.801z"/>
		<path fill="#F4F4F4" d="M538.982,341.845l-0.042,0.041h-16.988c-0.042,0-0.042,0-0.042-0.041v-1.44l0.042-0.04h16.988
			c0.042,0,0.042,0,0.042,0.04V341.845z"/>
		<path fill="#404F61" d="M677.529,334.646L677.529,334.646l-11.023,0.042c-0.042,0-0.042,0-0.042-0.042v-1.44
			c0-0.021,0.019-0.04,0.042-0.04h10.981c0.042,0,0.042,0,0.042,0.04V334.646z"/>
		<path fill="#E3E3E3" d="M681.89,339.007l-0.042,0.041h-15.342c-0.042,0-0.042,0-0.042-0.041v-1.439l0.042-0.042h15.342
			c0.042,0,0.042,0,0.042,0.042V339.007z"/>
		<path fill="#F4F4F4" d="M687.154,341.639c-0.021,0.022-0.051,0.037-0.081,0.042h-20.609c-0.041,0-0.083,0-0.083-0.042v-1.44
			c0.023-0.021,0.053-0.035,0.083-0.04h20.609c0.041,0,0.081,0,0.081,0.04V341.639z"/>
		<path fill="#E3E3E3" d="M537.337,398.201l-0.041,0.041H521.91c-0.04,0-0.04,0-0.04-0.041v-1.439l0.04-0.041h15.344
			c0.042,0,0.042,0,0.042,0.041v1.439H537.337z"/>
		<path fill="#F4F4F4" d="M544.043,400.875c-0.023,0.023-0.053,0.037-0.083,0.042h-22.008c-0.042,0-0.082,0-0.082-0.042v-1.439
			c0.021-0.021,0.051-0.036,0.082-0.041h22.008c0.04,0,0.083,0,0.083,0.041V400.875z"/>
		<path fill="#E3E3E3" d="M624.752,398.12l-0.042,0.041h-15.344c-0.04,0-0.04,0-0.04-0.041v-1.44l0.04-0.041h15.344
			c0.042,0,0.042,0,0.042,0.041V398.12z"/>
		<path fill="#F4F4F4" d="M631.457,400.752c-0.021,0.022-0.051,0.037-0.083,0.042h-22.008c-0.04,0-0.081,0-0.081-0.042v-1.438
			c0.021-0.023,0.05-0.038,0.081-0.042h22.008c0.041,0,0.083,0,0.083,0.042V400.752z"/>
		<path fill="#404F61" d="M644.095,334.934C644.095,334.975,644.035,334.975,644.095,334.934l-16.068,0.041
			c-0.062,0-0.062,0-0.062-0.041v-1.439c0-0.022,0.028-0.041,0.062-0.041h16.009c0.06,0,0.06,0,0.06,0.041V334.934z"/>
		<path fill="#E3E3E3" d="M650.451,339.458l-0.06,0.042h-22.365c-0.062,0-0.062,0-0.062-0.042v-1.439l0.062-0.041h22.365
			c0.06,0,0.06,0,0.06,0.041V339.458z"/>
		<path fill="#F4F4F4" d="M654.514,342.134c-0.026,0.021-0.062,0.035-0.1,0.04h-26.409c-0.05,0-0.1,0-0.1-0.04v-1.44
			c0.026-0.022,0.062-0.037,0.1-0.042h26.409c0.05,0,0.1,0,0.1,0.042V342.134z"/>
		<path fill="#15BDCC" d="M660.952,335.798c-0.006,0.088-0.076,0.159-0.165,0.164h-2.51c-0.088-0.005-0.158-0.076-0.164-0.164
			v-2.551c0.006-0.089,0.076-0.158,0.164-0.165h2.51c0.089,0.007,0.159,0.076,0.165,0.165V335.798z"/>
		<path fill="#FFE400" d="M689.419,335.798c-0.008,0.088-0.076,0.157-0.165,0.164h-2.51c-0.088-0.007-0.158-0.076-0.164-0.164
			v-2.551c0.006-0.089,0.076-0.158,0.164-0.165h2.51c0.089,0.007,0.157,0.076,0.165,0.165V335.798z"/>
	</g>
</g>
</svg>
