<?xml version="1.0" encoding="utf-8"?>
<!-- Generator: Adobe Illustrator 16.0.0, SVG Export Plug-In . SVG Version: 6.00 Build 0)  -->
<!DOCTYPE svg PUBLIC "-//W3C//DTD SVG 1.1//EN" "http://www.w3.org/Graphics/SVG/1.1/DTD/svg11.dtd">
<svg version="1.1" id="Layer_1" xmlns="http://www.w3.org/2000/svg" xmlns:xlink="http://www.w3.org/1999/xlink" x="0px" y="0px"
	 width="1000px" height="1000px" viewBox="0 0 1000 1000" enable-background="new 0 0 1000 1000" xml:space="preserve">
<title>Newsfeed</title>
<path fill="none" stroke="#898989" stroke-width="20" stroke-miterlimit="10" d="M794.156,645.161H576.044
	c-24.592-0.022-44.522-20.95-44.544-46.774V434.072c0.021-25.823,19.952-46.751,44.544-46.774h217.921
	c24.592,0.022,44.522,20.951,44.543,46.774v164.314c0.138,25.688-19.581,46.629-44.044,46.773
	C794.361,645.161,794.259,645.161,794.156,645.161z"/>
<path fill="#898989" d="M911.29,225.807L911.29,225.807c-4.454,0-8.064-3.611-8.064-8.064V8.064c0-4.454-3.61-8.064-8.064-8.064
	H104.839c-4.454,0-8.064,3.61-8.064,8.064v209.678c0,4.454-3.611,8.064-8.065,8.064l0,0C39.717,225.807,0,265.523,0,314.516v500
	c0,48.993,39.717,88.71,88.709,88.71h193.548c4.454,0,8.065,3.61,8.065,8.064v48.388c0,4.453-3.611,8.064-8.065,8.064h-48.387
	c-4.454,0-8.064,3.61-8.064,8.064v16.129c0,4.454,3.61,8.064,8.064,8.064h532.258c4.454,0,8.064-3.61,8.064-8.064v-16.129
	c0-4.454-3.61-8.064-8.064-8.064h-48.387c-4.454,0-8.064-3.611-8.064-8.064V911.29c0-4.454,3.61-8.064,8.064-8.064H911.29
	c48.993,0,88.71-39.717,88.71-88.71v-500C1000,265.523,960.283,225.807,911.29,225.807z M137.097,161.29h725.807
	c4.454,0,8.064,3.611,8.064,8.065v500c0,4.454-3.61,8.064-8.064,8.064H137.097c-4.454,0-8.064-3.61-8.064-8.064v-500
	C129.032,164.901,132.643,161.29,137.097,161.29z M870.968,40.323v80.645c0,4.454-3.61,8.064-8.064,8.064H137.097
	c-4.454,0-8.064-3.61-8.064-8.064V40.323c0-4.454,3.611-8.065,8.064-8.065h725.807C867.357,32.258,870.968,35.869,870.968,40.323z
	 M88.709,258.064L88.709,258.064c4.454,0,8.065,3.611,8.065,8.064v435.484c0,4.453,3.61,8.064,8.064,8.064h790.322
	c4.454,0,8.064-3.611,8.064-8.064V266.129c0-4.454,3.61-8.064,8.064-8.064l0,0c31.178,0,56.452,25.274,56.452,56.452v419.355
	c0,4.454-3.611,8.064-8.064,8.064H40.323c-4.454,0-8.065-3.61-8.065-8.064V314.516C32.258,283.339,57.532,258.064,88.709,258.064z
	 M669.354,967.742H330.646c-4.454,0-8.064-3.611-8.064-8.064V911.29c0-4.454,3.61-8.064,8.064-8.064h338.709
	c4.454,0,8.064,3.61,8.064,8.064v48.388C677.419,964.131,673.809,967.742,669.354,967.742z M911.29,870.968H88.709
	c-31.177,0-56.452-25.274-56.452-56.452v-32.258c0-4.454,3.611-8.064,8.065-8.064h919.355c4.453,0,8.064,3.61,8.064,8.064v32.258
	C967.742,845.693,942.468,870.968,911.29,870.968z"/>
<path fill="#898989" d="M177.419,64.516L177.419,64.516c8.908,0,16.129,7.221,16.129,16.129l0,0c0,8.908-7.221,16.129-16.129,16.129
	l0,0c-8.908,0-16.129-7.222-16.129-16.129l0,0C161.291,71.737,168.512,64.516,177.419,64.516z"/>
<path fill="#898989" d="M177.635,522.229H441.5v32.258H177.635V522.229z"/>
<path fill="#898989" d="M230.637,64.516L230.637,64.516c8.908,0,16.129,7.221,16.129,16.129l0,0c0,8.908-7.221,16.129-16.129,16.129
	l0,0c-8.908,0-16.129-7.222-16.129-16.129l0,0C214.508,71.737,221.729,64.516,230.637,64.516z"/>
<path fill="#898989" d="M282.653,64.516L282.653,64.516c8.908,0,16.129,7.221,16.129,16.129l0,0c0,8.908-7.221,16.129-16.129,16.129
	l0,0c-8.908,0-16.129-7.222-16.129-16.129l0,0C266.524,71.737,273.746,64.516,282.653,64.516z"/>
<path fill="#EF4550" d="M199.941,247.666H441.5v32.258H199.941V247.666z"/>
<path fill="#EF4550" d="M199.941,312.182H441.5v32.258H199.941V312.182z"/>
<path fill="#EF4550" d="M199.206,379.238h169v32.258h-169V379.238z"/>
<path fill="#898989" d="M120.363,806.451L120.363,806.451c8.908,0,16.129,7.222,16.129,16.13l0,0
	c0,8.907-7.222,16.129-16.129,16.129l0,0c-8.908,0-16.129-7.222-16.129-16.129l0,0C104.234,813.673,111.455,806.451,120.363,806.451
	L120.363,806.451z"/>
<path fill="#898989" d="M172.419,806.451L172.419,806.451c8.908,0,16.129,7.222,16.129,16.13l0,0
	c0,8.907-7.221,16.129-16.129,16.129l0,0c-8.908,0-16.129-7.222-16.129-16.129l0,0C156.291,813.673,163.512,806.451,172.419,806.451
	z"/>
<path fill="#898989" d="M223.791,806.451L223.791,806.451c8.908,0,16.129,7.222,16.129,16.13l0,0
	c0,8.907-7.221,16.129-16.129,16.129l0,0c-8.908,0-16.129-7.222-16.129-16.129l0,0C207.661,813.673,214.882,806.451,223.791,806.451
	z"/>
<path fill="#898989" d="M565.906,434.314h241.559v32.258H565.906V434.314z"/>
<path fill="#898989" d="M565.906,498.83h241.559v32.258H565.906V498.83z"/>
<path fill="#898989" d="M565.172,565.887h169v32.258h-169V565.887z"/>
<path fill="none" stroke="#EF4550" stroke-width="20" stroke-miterlimit="10" d="M429.873,456.23H211.761
	c-24.592-0.022-44.522-20.95-44.544-46.774V245.141c0.021-25.823,19.952-46.751,44.544-46.774h217.921
	c24.592,0.022,44.522,20.951,44.543,46.774v164.314c0.138,25.688-19.581,46.629-44.044,46.773
	C430.078,456.23,429.976,456.23,429.873,456.23z"/>
<rect x="775.875" y="293.178" fill="#898989" width="31.958" height="31.958"/>
<path fill="#898989" d="M565.539,234.561h242.294v32.258H565.539V234.561z"/>
<path fill="#898989" d="M565.539,293.028h168.633v32.258H565.539V293.028z"/>
<rect x="406.697" y="582.166" fill="#898989" width="34.803" height="31.958"/>
<path fill="#898989" d="M177.635,582.016h183.646v32.258H177.635V582.016z"/>
</svg>
