<svg id="Layer_1" data-name="Layer 1" xmlns="http://www.w3.org/2000/svg" viewBox="0 0 1000 1000"><defs><style>.cls-1{fill:#35c0ce;}.cls-2{fill:#898989;}</style></defs><title>NLP-01-01</title><path class="cls-1" d="M721.68,419.36V322.58H667a191,191,0,0,0-20.6-49.77l38.69-38.69-68.36-68.36L578,204.45a192.75,192.75,0,0,0-49.77-20.62V129.14H431.37v54.69a192,192,0,0,0-49.79,20.62l-38.69-38.77L274.53,234l38.69,38.69a193.19,193.19,0,0,0-20.6,49.77H237.93v96.78h54.69A192.28,192.28,0,0,0,313.22,469l-38.77,38.77,68.36,68.36,38.69-38.69a192.56,192.56,0,0,0,49.79,20.63v54.68h96.78V558.11a192.36,192.36,0,0,0,49.76-20.63l38.77,38.69L685,507.81,646.27,469.1a192.3,192.3,0,0,0,20.61-49.76ZM479.75,483.81A112.91,112.91,0,1,1,592.66,370.9h0a112.9,112.9,0,0,1-112.8,113h-.11Z"/><path class="cls-1" d="M479.75,241.93a129,129,0,1,0,.11,0h-.11Zm0,225.8a96.78,96.78,0,1,1,96.77-96.79V371h0a96.85,96.85,0,0,1-96.77,96.75Z"/><path class="cls-2" d="M995.88,193.55V96.78H970.33c-.27-.67-.53-1.33-.82-2l18.09-18L919.24,8.4,901.17,26.48c-.64-.29-1.31-.54-1.95-.82V0h-96.9V25.55c-.66.27-1.3.52-2,.82l-18-18.09L713.85,76.74,731.93,94.8c-.29.65-.54,1.31-.82,2h-2.5A369.52,369.52,0,0,0,484.38.33h-4.71C305.51.31,153.22,124.41,116.56,297.05a361.57,361.57,0,0,0-3.4,130.68L4.12,622.81,125,657.32V854.84H286.31V1000h32.24V822.58H157.17V633l-105-30,94.71-169.42-1-5.62a330.1,330.1,0,0,1,2.22-124.28C181.91,144.53,322.77,30.1,484,32.6a337.38,337.38,0,0,1,221.51,86.85v74.1h25.56c.28.67.53,1.31.82,2l-18.08,18.06L782.3,282l18.07-18c.65.29,1.29.54,2,.82v25.56h5.86a338.28,338.28,0,0,1,10,80.76V430c0,12.48-.82,25.12-2,37.78H802.34v25.54l-2,.84-18-18.13-68.45,68.36,18.08,18c-.29.67-.54,1.31-.82,2h-25.6v96.77h25.56c.28.67.53,1.33.82,2l-18.08,18.06,7,7A393.4,393.4,0,0,1,648,753.42l-7,4.8V1000h32.3V775.23a425.72,425.72,0,0,0,70.31-64l38.6,38.58,18.06-18.07c.65.29,1.29.55,2,.82v25.55H899V732.52c.67-.27,1.33-.53,2-.82l18,18.07,68.36-68.36L969.3,663.34c.29-.64.54-1.31.82-2h25.54V564.45H970.33c-.27-.66-.53-1.31-.82-2l18.09-18-68.36-68.36-18.17,18.05-2-.84V467.73H848.55c1.14-12.65,2-25.29,2-37.77V371.11a370.8,370.8,0,0,0-9.06-80.78H899.2V264.77c.66-.28,1.33-.53,1.95-.82L919.22,282l68.36-68.46-18.09-18.06c.3-.65.55-1.29.82-2ZM878.36,520.2a96.81,96.81,0,0,1,18.38,7.55l10.58,5.75,11.82-11.72L942,544.59l-11.83,11.72,5.74,10.6a96,96,0,0,1,7.56,18.36l3.44,11.53h16.75V629h-16.8l-3.5,11.58A95.65,95.65,0,0,1,935.8,659l-5.74,10.59,11.83,11.72-22.75,22.81L907.32,692.3l-10.58,5.75a96.2,96.2,0,0,1-18.38,7.56L866.86,709v16.76H834.59V709l-11.52-3.43A95.15,95.15,0,0,1,804.71,698l-10.61-5.74-11.72,11.81-22.81-22.79,11.82-11.72-5.77-10.62A97.85,97.85,0,0,1,758,640.62l-3.44-11.52H737.81V596.78h16.76L758,585.25a96,96,0,0,1,7.56-18.36l5.74-10.6-11.82-11.72,22.81-22.81L794,533.48l10.61-5.75A96.9,96.9,0,0,1,823,520.18l11.52-3.44V500h32.27v16.76Zm85.25-358.91H946.86l-3.5,11.52a94.49,94.49,0,0,1-7.56,18.36l-5.74,10.61,11.83,11.72-22.75,22.83-11.82-11.72-10.58,5.74a96.84,96.84,0,0,1-18.38,7.56l-11.5,3.44v16.76H834.59V241.35l-11.52-3.44a95.75,95.75,0,0,1-18.36-7.56l-10.61-5.74-11.72,11.72-22.81-22.81,11.82-11.72-5.77-10.63a96.63,96.63,0,0,1-7.55-18.36l-3.44-11.52H737.87V129h16.76l3.44-11.5a96.81,96.81,0,0,1,7.55-18.38l5.75-10.59L759.55,76.74l22.81-22.81,11.72,11.83L804.69,60a95.75,95.75,0,0,1,18.36-7.56L834.57,49V32.27h32.27V49l11.5,3.44A95.56,95.56,0,0,1,896.72,60l10.58,5.74,11.82-11.83,22.81,22.81L930.1,88.55l5.74,10.59a95.41,95.41,0,0,1,7.52,18.38L946.8,129h16.75v32.27Z"/><path class="cls-1" d="M850.72,80.64a64.46,64.46,0,1,0,64.46,64.46,64.46,64.46,0,0,0-64.46-64.46Zm0,96.78A32.27,32.27,0,1,1,883,145.14h0A32.3,32.3,0,0,1,850.72,177.42Z"/><path class="cls-1" d="M786.21,612.91a64.46,64.46,0,1,0,64.47-64.45h0a64.47,64.47,0,0,0-64.45,64.45Zm96.76,0a32.27,32.27,0,1,1-32.27-32.27h0A32.27,32.27,0,0,1,883,612.88h0Z"/></svg>