<?xml version="1.0" encoding="utf-8"?>
<!-- Generator: Adobe Illustrator 16.0.0, SVG Export Plug-In . SVG Version: 6.00 Build 0)  -->
<!DOCTYPE svg PUBLIC "-//W3C//DTD SVG 1.1//EN" "http://www.w3.org/Graphics/SVG/1.1/DTD/svg11.dtd">
<svg version="1.1" id="Layer_1" xmlns="http://www.w3.org/2000/svg" xmlns:xlink="http://www.w3.org/1999/xlink" x="0px" y="0px"
	 width="1000px" height="1000px" viewBox="0 0 1000 1000" enable-background="new 0 0 1000 1000" xml:space="preserve">
<path fill="#FFD15C" d="M500,0C223.857,0,0,223.857,0,500.002c0,104.506,32.082,201.512,86.908,281.742L21.232,978.768
	l197.025-65.674C298.488,967.918,395.49,1000,500,1000c276.143,0,500-223.857,500-499.998C1000,223.857,776.143,0,500,0z"/>
<path fill="#40596B" d="M733.875,649.51c-37.746-37.744-78.176-69.52-78.176-69.52l-58.902,58.904L361.107,403.203l58.904-58.902
	c0,0-31.773-40.43-69.52-78.176c-37.746-37.744-78.174-69.52-78.174-69.52s-70.58,64.93-75.326,116.426
	c-6.352,68.932,66.613,194.256,181.168,308.811s239.877,187.52,308.809,181.166c51.498-4.748,116.426-75.324,116.426-75.324
	S771.619,687.258,733.875,649.51z"/>
</svg>
