<?xml version="1.0" encoding="utf-8"?>
<!-- Generator: Adobe Illustrator 16.0.0, SVG Export Plug-In . SVG Version: 6.00 Build 0)  -->
<!DOCTYPE svg PUBLIC "-//W3C//DTD SVG 1.1//EN" "http://www.w3.org/Graphics/SVG/1.1/DTD/svg11.dtd">
<svg version="1.1" id="Layer_1" xmlns="http://www.w3.org/2000/svg" xmlns:xlink="http://www.w3.org/1999/xlink" x="0px" y="0px"
	 width="1000px" height="760px" viewBox="0 0 1000 760" enable-background="new 0 0 1000 760" xml:space="preserve">
<g>
	<defs>
		<rect id="SVGID_1_" x="34.104" y="24.399" width="967.896" height="735.601"/>
	</defs>
	<clipPath id="SVGID_2_">
		<use xlink:href="#SVGID_1_"  overflow="visible"/>
	</clipPath>
	<g clip-path="url(#SVGID_2_)">
		<defs>
			<rect id="SVGID_3_" x="34.104" y="24.399" width="967.896" height="735.601"/>
		</defs>
		<clipPath id="SVGID_4_">
			<use xlink:href="#SVGID_3_"  overflow="visible"/>
		</clipPath>
		<path clip-path="url(#SVGID_4_)" fill="#00C0CF" d="M778.609,531.576l-77.045-0.096v-55.268l72.206-0.581l15.486,16.357v29.618
			C789.159,527.802,784.417,531.576,778.609,531.576"/>
		<polygon clip-path="url(#SVGID_4_)" fill="#424DBF" points="789.257,492.183 773.673,492.57 773.673,475.729 		"/>
		<polygon clip-path="url(#SVGID_4_)" fill="#F6F6F6" points="771.834,492.183 722.666,493.441 722.666,491.021 771.834,489.86 		
			"/>
		<polygon clip-path="url(#SVGID_4_)" fill="#F6F6F6" points="771.834,503.508 714.922,504.766 714.922,502.346 771.834,501.185 		
			"/>
		<polygon clip-path="url(#SVGID_4_)" fill="#F6F6F6" points="771.834,514.832 714.922,516.09 714.922,513.67 771.834,512.509 		"/>
		<path clip-path="url(#SVGID_4_)" fill="#F0F4F6" d="M587.547,631.947c-0.005,3.687-2.993,6.674-6.678,6.678H64.399
			c-3.686-0.004-6.674-2.991-6.679-6.678V372.938c0.005-3.687,2.993-6.674,6.679-6.679h516.47c3.686,0.005,6.673,2.992,6.678,6.679
			V631.947z"/>
		<path clip-path="url(#SVGID_4_)" fill="#28323F" d="M144.154,631.947c0,3.678-2.033,6.678-4.646,6.678H61.979
			c-2.517,0-4.646-3-4.646-6.678V372.938c0-3.678,2.032-6.679,4.646-6.679h77.528c2.517,0,4.646,3.001,4.646,6.679V631.947z"/>
		<path clip-path="url(#SVGID_4_)" fill="#FFFFFF" d="M420.101,435.755c0.003,0.499-0.375,0.918-0.871,0.968H164.189
			c-0.492-0.009-0.883-0.415-0.875-0.906c0-0.021,0.001-0.041,0.003-0.062v-49.943c-0.002-0.499,0.375-0.918,0.871-0.968h255.041
			c0.492,0.009,0.884,0.414,0.874,0.905c0,0.021-0.001,0.042-0.003,0.062V435.755z"/>
		<path clip-path="url(#SVGID_4_)" fill="#E4E4E4" d="M350.122,409.331c0,0.097-0.194,0.097-0.484,0.097H222.166
			c-0.167,0.003-0.331-0.03-0.484-0.097v-7.646c0-0.097,0.194-0.097,0.484-0.097h127.472c0.167-0.003,0.331,0.03,0.484,0.097
			V409.331z"/>
		<path clip-path="url(#SVGID_4_)" fill="#F5F5F6" d="M402.775,423.269c0,0.098-0.29,0.098-0.581,0.098H222.359
			c-0.197,0.008-0.396-0.024-0.581-0.098v-7.646c0-0.098,0.29-0.098,0.581-0.098h179.738c0.198-0.009,0.396,0.024,0.581,0.098v7.646
			H402.775z"/>
		<path clip-path="url(#SVGID_4_)" fill="#FF434F" d="M204.066,422.398c0.017,0.731-0.564,1.338-1.296,1.354
			c-0.021,0.001-0.04,0.001-0.059,0H182.87c-0.733,0.017-1.339-0.563-1.355-1.296v-0.059v-19.843
			c-0.017-0.732,0.564-1.339,1.296-1.354h0.059h19.842c0.731-0.017,1.338,0.563,1.355,1.296c0,0.02,0,0.039,0,0.059V422.398z"/>
		<path clip-path="url(#SVGID_4_)" fill="#FFFFFF" d="M379.836,497.022c0.002,0.499-0.375,0.918-0.871,0.968H123.925
			c-0.492-0.009-0.883-0.414-0.875-0.906c0-0.02,0.002-0.041,0.004-0.062v-49.943c-0.003-0.499,0.375-0.918,0.871-0.968h255.041
			c0.492,0.009,0.883,0.414,0.874,0.906c0,0.021-0.002,0.041-0.003,0.062V497.022z"/>
		<path clip-path="url(#SVGID_4_)" fill="#E4E4E4" d="M309.857,470.695c0,0.098-0.194,0.098-0.484,0.098H181.901
			c-0.167,0.003-0.331-0.03-0.484-0.098v-7.646c0-0.098,0.193-0.098,0.484-0.098h127.472c0.166-0.002,0.331,0.031,0.484,0.098
			V470.695z"/>
		<path clip-path="url(#SVGID_4_)" fill="#F5F5F6" d="M362.511,484.634c0,0.096-0.29,0.096-0.581,0.096H182.095
			c-0.198,0.01-0.396-0.023-0.581-0.096v-7.647c0-0.096,0.29-0.096,0.581-0.096h179.738c0.199-0.01,0.396,0.023,0.581,0.096v7.647
			H362.511z"/>
		<path clip-path="url(#SVGID_4_)" fill="#00C0CF" d="M163.802,483.666c0.017,0.732-0.564,1.338-1.296,1.355h-0.059h-19.938
			c-0.732,0.016-1.338-0.564-1.355-1.297c0-0.021,0-0.038,0-0.059v-19.842c-0.017-0.733,0.564-1.339,1.296-1.355h0.059h19.842
			c0.731-0.017,1.338,0.563,1.355,1.297c0,0.02,0,0.037,0,0.059v19.842H163.802z"/>
		<path clip-path="url(#SVGID_4_)" fill="#FFFFFF" d="M420.101,561.775c0.003,0.499-0.375,0.917-0.871,0.968H164.189
			c-0.492-0.009-0.883-0.415-0.875-0.906c0-0.021,0.001-0.041,0.003-0.062v-49.944c-0.002-0.498,0.375-0.918,0.871-0.968h255.041
			c0.492,0.01,0.884,0.415,0.874,0.906c0,0.021-0.001,0.042-0.003,0.062V561.775z"/>
		<path clip-path="url(#SVGID_4_)" fill="#E4E4E4" d="M350.122,533.125c0,0.097-0.194,0.097-0.484,0.097H222.166
			c-0.167,0.002-0.331-0.03-0.484-0.097v-7.646c0-0.097,0.194-0.097,0.484-0.097h127.472c0.167-0.002,0.331,0.031,0.484,0.097
			V533.125z"/>
		<path clip-path="url(#SVGID_4_)" fill="#F5F5F6" d="M402.775,547.062c0,0.097-0.29,0.097-0.581,0.097H222.359
			c-0.197,0.01-0.396-0.023-0.581-0.097v-7.646c0-0.097,0.29-0.097,0.581-0.097h179.738c0.198-0.009,0.396,0.024,0.581,0.097v7.646
			H402.775z"/>
		<path clip-path="url(#SVGID_4_)" fill="#FFE500" d="M204.066,546.095c0.017,0.732-0.564,1.339-1.296,1.355h-0.059H182.87
			c-0.733,0.017-1.339-0.564-1.355-1.297v-0.059v-19.842c-0.017-0.732,0.564-1.338,1.296-1.355h0.059h19.842
			c0.731-0.016,1.338,0.564,1.355,1.297c0,0.02,0,0.038,0,0.059V546.095z"/>
		<path clip-path="url(#SVGID_4_)" fill="#FFFFFF" d="M571.576,437.207H444.104c-0.29,0-0.484-0.388-0.484-0.969v-49.847
			c0-0.483,0.194-0.968,0.484-0.968h127.472"/>
		<path clip-path="url(#SVGID_4_)" fill="#FFFFFF" d="M571.576,499.636H444.104c-0.29,0-0.484-0.388-0.484-0.968v-49.943
			c0-0.483,0.194-0.968,0.484-0.968h127.472"/>
		<path clip-path="url(#SVGID_4_)" fill="#E4E4E4" d="M530.15,470.599c0,0.097-0.096,0.097-0.29,0.097h-71.528
			c-0.102-0.016-0.2-0.049-0.29-0.097v-7.646c0-0.097,0.097-0.097,0.29-0.097h71.528c0.102,0.018,0.199,0.05,0.29,0.097V470.599z"/>
		<path clip-path="url(#SVGID_4_)" fill="#F5F5F6" d="M557.64,484.537c0,0.097-0.194,0.097-0.388,0.097h-98.725
			c-0.135-0.005-0.266-0.038-0.387-0.097v-7.646c0-0.097,0.192-0.097,0.387-0.097h98.821c0.136,0.005,0.267,0.038,0.388,0.097v7.646
			H557.64z"/>
		<path clip-path="url(#SVGID_4_)" fill="none" stroke="#E4E4E3" stroke-miterlimit="10" d="M555.51,408.653
			c-0.078,1.201-1.113,2.111-2.314,2.033c-0.002,0-0.005,0-0.009-0.001H458.43c-1.202,0.078-2.241-0.83-2.323-2.032v-6.194
			c0.078-1.199,1.113-2.11,2.313-2.033c0.003,0.001,0.006,0.001,0.01,0.001h94.757c1.202-0.078,2.24,0.831,2.323,2.032V408.653z"/>
		<path clip-path="url(#SVGID_4_)" fill="#F5F5F6" d="M504.695,426.076c0,0.096-0.098,0.096-0.194,0.096h-46.265
			c-0.074-0.009-0.142-0.043-0.194-0.096v-7.647c0-0.096,0.097-0.096,0.194-0.096h46.265c0.073,0.01,0.143,0.044,0.194,0.096
			V426.076z"/>
		<path clip-path="url(#SVGID_4_)" fill="#FFFFFF" d="M571.674,559.742H444.202c-0.193,0-0.484-0.387-0.484-0.968v-49.943
			c0-0.484,0.194-0.968,0.484-0.968h127.472"/>
		<path clip-path="url(#SVGID_4_)" fill="#E4E4E4" d="M530.247,530.608c0,0.097-0.097,0.097-0.29,0.097h-71.528
			c-0.101-0.017-0.199-0.049-0.29-0.097v-7.646c0-0.097,0.098-0.097,0.29-0.097h71.528c0.101,0.018,0.199,0.05,0.29,0.097V530.608z"
			/>
		<path clip-path="url(#SVGID_4_)" fill="#F5F5F6" d="M557.735,544.644c0,0.096-0.193,0.096-0.388,0.096h-98.725
			c-0.135-0.005-0.266-0.037-0.387-0.096v-7.647c0-0.096,0.193-0.096,0.387-0.096h98.822c0.135,0.004,0.266,0.037,0.387,0.096v7.647
			H557.735z"/>
		<path clip-path="url(#SVGID_4_)" fill="#EADED1" d="M433.361,499.539c0.484,0.387,1.065,0.677,1.549,1.064"/>
		<path clip-path="url(#SVGID_4_)" fill="#EADED1" d="M427.554,491.215c0.736,1.063,1.694,1.956,2.807,2.613"/>
		<g opacity="0.07" clip-path="url(#SVGID_4_)" enable-background="new    ">
			<g>
				<defs>
					<rect id="SVGID_5_" x="579.417" y="555.678" width="176.641" height="127.762"/>
				</defs>
				<clipPath id="SVGID_6_">
					<use xlink:href="#SVGID_5_"  overflow="visible"/>
				</clipPath>
				<rect x="579.417" y="555.678" clip-path="url(#SVGID_6_)" fill="#184462" width="176.641" height="127.762"/>
			</g>
		</g>
		<rect x="585.515" y="548.321" clip-path="url(#SVGID_4_)" fill="#F0F4F6" width="177.899" height="128.149"/>
		<rect x="585.515" y="548.321" clip-path="url(#SVGID_4_)" fill="#28323F" width="177.608" height="10.162"/>
		<g opacity="0.03" clip-path="url(#SVGID_4_)" enable-background="new    ">
			<g>
				<defs>
					<rect id="SVGID_7_" x="608.26" y="580.552" width="132.505" height="73.367"/>
				</defs>
				<clipPath id="SVGID_8_">
					<use xlink:href="#SVGID_7_"  overflow="visible"/>
				</clipPath>
				<path clip-path="url(#SVGID_8_)" fill="#232020" d="M714.147,604.749h-26.134v-24.197h26.134V604.749z M661.396,605.137h26.134
					v24.197h-26.134V605.137z M661.011,629.334h-26.134v-24.197h26.134V629.334z M688.014,605.137h26.134v24.197h-26.134V605.137z
					 M687.628,604.749h-26.134v-24.197h26.134V604.749z M661.011,604.749h-26.134v-24.197h26.134V604.749z M608.26,580.552h26.134
					v24.197H608.26V580.552z M608.26,605.137h26.134v24.197H608.26V605.137z M608.26,629.722h26.134v24.197H608.26V629.722z
					 M634.877,629.722h26.134v24.197h-26.134V629.722z M661.396,629.722h26.134v24.197h-26.134V629.722z M688.014,629.722h26.134
					v24.197h-26.134V629.722z M740.765,653.919h-26.134v-24.197h26.134V653.919z M740.765,629.334h-26.134v-24.197h26.134V629.334z
					 M740.765,604.749h-26.134v-24.197h26.134V604.749z"/>
			</g>
		</g>
		<path clip-path="url(#SVGID_4_)" fill="#FF434F" d="M713.887,592.622c-1.808,0.321-3.23,1.721-3.582,3.522
			c-0.217,1.377,0.249,2.774,1.249,3.746l-15.196,12.863c-0.387,0.3-0.774,0.688-1.171,0.968c-0.984-0.729-2.21-1.058-3.427-0.919
			c-1.801,0.31-3.241,1.666-3.659,3.445c-0.298,1.713,0.466,3.438,1.937,4.365c-1.095,2.604-2.178,5.275-3.35,7.879
			c-0.464,1.152-0.968,2.216-1.402,3.368c-0.318-0.064-0.644-0.091-0.968-0.077c-1.548-0.034-2.989,0.788-3.746,2.139
			c-4.907-3.059-9.814-6.04-14.644-9.099c-3.659-2.226-7.25-4.52-10.909-6.775c0.85-2.192-0.239-4.659-2.432-5.51
			c-0.271-0.104-0.554-0.182-0.84-0.229c-2.347-0.448-4.613,1.089-5.062,3.437c-0.049,0.255-0.074,0.514-0.076,0.773
			c-0.017,0.284,0.01,0.567,0.077,0.843l-20.567,8.266c-0.707,0.3-1.326,0.532-2.033,0.842c-0.79-1.774-2.666-2.807-4.589-2.526
			c-1.895,0.256-3.409,1.708-3.745,3.591c-0.253,1.434,0.247,2.896,1.325,3.872l-3.038,3.436c-4.84,5.439-9.736,10.87-14.519,16.3
			c-0.898-0.583-1.977-0.827-3.039-0.687c-2.343,0.379-3.935,2.586-3.556,4.928c0.379,2.344,2.586,3.936,4.93,3.557
			c1.781-0.289,3.192-1.66,3.533-3.433c0.226-1.122-0.026-2.286-0.697-3.214c4.123-4.675,8.334-9.262,12.457-13.928
			c1.801-1.994,3.591-4.056,5.38-6.049c0.521,0.214,1.077,0.319,1.638,0.31c2.39,0.021,4.343-1.898,4.365-4.287v-0.001v-0.155
			c0.077-0.067,0.232-0.067,0.31-0.145c7.559-2.99,15.032-6.049,22.591-9.03c0.806,1.231,2.188,1.962,3.659,1.936
			c1.209,0.003,2.363-0.495,3.193-1.374c3.281,2.069,6.553,4.055,9.902,6.116c5.294,3.291,10.646,6.66,15.97,9.95
			c0,0.232-0.077,0.465-0.077,0.609c0.029,2.416,2.013,4.352,4.43,4.321c0.158-0.002,0.318-0.014,0.477-0.032
			c1.875-0.223,3.404-1.604,3.814-3.446c0.328-1.698-0.412-3.424-1.868-4.355c1.558-3.756,3.194-7.502,4.752-11.247
			c0.806,0.169,1.643,0.114,2.42-0.154c1.427-0.514,2.486-1.729,2.798-3.214c0.062-0.276,0.09-0.56,0.077-0.842
			c0.629-1.375,1.48-3.138,2.109-4.442l11.528-9.68c0.861-0.687,1.635-1.374,2.497-2.062c0.739,0.297,1.541,0.404,2.332,0.31
			c1.863-0.239,3.35-1.67,3.659-3.523C719.423,594.615,716.925,592.089,713.887,592.622"/>
		<path clip-path="url(#SVGID_4_)" fill="#F0F4F6" d="M847.427,342.546c0.104,2.511-1.863,4.633-4.401,4.743H508.068
			c-2.538-0.11-4.508-2.231-4.402-4.743V160.292c-0.105-2.512,1.864-4.633,4.402-4.743h334.957c2.538,0.11,4.506,2.231,4.401,4.743
			V342.546z"/>
		<path clip-path="url(#SVGID_4_)" fill="#28323F" d="M847.427,342.546c0.054,2.565-1.982,4.689-4.548,4.743h-0.001h-76.271
			c-2.565-0.053-4.603-2.176-4.549-4.741v-0.002V160.292c-0.055-2.566,1.981-4.69,4.547-4.743h0.002h76.271
			c2.564,0.052,4.602,2.175,4.549,4.741v0.002V342.546z"/>
		<path clip-path="url(#SVGID_4_)" fill="#FF434F" d="M837.554,239.756c-1.185-9.656-6.568-18.296-14.711-23.617l-18.487,27.972
			l24.972,22.358C835.84,259.194,838.846,249.435,837.554,239.756"/>
		<path clip-path="url(#SVGID_4_)" fill="#FFE500" d="M813.841,278.666l-9.001-32.328l-33.199,4.258
			c2.304,18.297,19.005,31.263,37.302,28.959l0.156-0.019C810.709,279.443,812.302,279.15,813.841,278.666"/>
		<path clip-path="url(#SVGID_4_)" fill="#FF434F" d="M822.843,216.139c-15.497-10.009-36.172-5.562-46.181,9.935
			c-0.029,0.044-0.058,0.087-0.086,0.131c-0.847,1.346-1.623,2.735-2.322,4.163l30.392,13.938L822.843,216.139z"/>
		<path clip-path="url(#SVGID_4_)" fill="#00C0CF" d="M771.447,248.563c-0.829-6.386,0.212-12.876,3.001-18.68l30.197,14.421
			L771.447,248.563z"/>
		<path clip-path="url(#SVGID_4_)" fill="#F0F4F6" d="M815.874,280.117c6.164-1.732,11.706-5.191,15.97-9.969l-24.972-22.358
			L815.874,280.117z"/>
		<path clip-path="url(#SVGID_4_)" fill="#FFE500" d="M712.212,230.948c0.513,1.314,1.573,2.339,2.903,2.807
			c3.074,1.346,6.669,0.283,8.519-2.517c2.806-4.839,2.032-11.809,5.032-16.842c1.213-2.048,3.093-3.62,5.323-4.452
			c2.228-0.773,4.687-0.487,6.679,0.774c3.194,2.13,4.259,6.388,4.355,10.357c-0.06,7.62-0.707,15.225-1.936,22.746
			c-0.58,3.581-1.355,7.259-3.582,10.163c-3,3.872-7.839,5.42-12.582,6.292c-11.809,2.129-24.004,0.871-35.908-0.484l-28.844-3.194
			c-2.711-0.29-10.646,0.194-12.292-2.033c-1.646-2.226-0.388-9.582,0.58-11.905c2.033-5.13,7.743-7.937,12.97-7.646
			c11.905,0.774,7.26-14.131,11.034-21.197c2.033-3.775,6.484-6.485,10.356-4.839c3.678,1.452,5.227,5.904,7.065,9.582
			c0.968,1.936,2.323,3.872,4.259,4.258c3.388,0.678,6.292-3.484,9.775-3.291c2.033,0.097,3.775,1.742,4.743,3.678
			C711.728,225.721,711.341,228.625,712.212,230.948"/>
		<path clip-path="url(#SVGID_4_)" fill="#FF434F" d="M753.639,285.634v-32.812c0-8.421,0.676-16.841,0.58-25.359
			c-0.097-3.872-1.742-5.904-5.808-4.936c-4.09,1.027-7.708,3.417-10.259,6.775c-1.743,2.226-3.098,5.033-5.808,5.904
			c-4.743,1.646-8.711-3.775-12.971-6.388c-4.794-2.895-10.897-2.428-15.196,1.161c-5.033,4.259-6.193,11.615-10.356,16.648
			c-4.916,5.552-12.847,7.309-19.647,4.355c-2.71-1.258-6.098-3.774-7.646-4.549c-6.291-3.194-25.165,2.323-26.908,13.938v24.101
			C639.619,284.569,753.831,285.828,753.639,285.634"/>
		<rect x="515.826" y="246.047" clip-path="url(#SVGID_4_)" fill="#28323F" width="31.166" height="92.435"/>
		<rect x="515.826" y="194.071" clip-path="url(#SVGID_4_)" fill="#00C0CF" width="31.166" height="71.334"/>
		<rect x="554.058" y="232.497" clip-path="url(#SVGID_4_)" fill="#28323F" width="31.167" height="106.082"/>
		<rect x="554.058" y="172.971" clip-path="url(#SVGID_4_)" fill="#00C0CF" width="31.167" height="84.788"/>
		<rect x="594.128" y="297.056" clip-path="url(#SVGID_4_)" fill="#28323F" width="31.167" height="40.941"/>
		<rect x="594.128" y="229.787" clip-path="url(#SVGID_4_)" fill="#00C0CF" width="31.167" height="71.333"/>
		<rect x="638.071" y="309.348" clip-path="url(#SVGID_4_)" fill="#00C0CF" width="11.711" height="10.55"/>
		<rect x="638.071" y="327.157" clip-path="url(#SVGID_4_)" fill="#00C0CF" width="11.711" height="10.55"/>
		<rect x="653.268" y="329.964" clip-path="url(#SVGID_4_)" fill="#28323F" width="32.424" height="4.936"/>
		<rect x="653.268" y="312.154" clip-path="url(#SVGID_4_)" fill="#28323F" width="32.424" height="4.937"/>
		<rect x="703.308" y="309.348" clip-path="url(#SVGID_4_)" fill="#00C0CF" width="11.711" height="10.55"/>
		<rect x="703.308" y="325.996" clip-path="url(#SVGID_4_)" fill="#00C0CF" width="11.711" height="10.55"/>
		<rect x="719.955" y="312.154" clip-path="url(#SVGID_4_)" fill="#28323F" width="32.424" height="4.937"/>
		<rect x="719.955" y="328.802" clip-path="url(#SVGID_4_)" fill="#28323F" width="32.424" height="4.937"/>
		<polygon clip-path="url(#SVGID_4_)" fill="#F6F6F6" points="892.144,440.304 870.85,474.374 750.057,398.297 771.351,364.228 		
			"/>
		<path clip-path="url(#SVGID_4_)" fill="#242449" d="M933.764,489.667l-0.291,0.387c-6.679,10.744-18.68,15.39-26.811,10.356
			l-92.628-56.912l24.392-40.942l92.918,58.559C939.377,466.147,940.442,478.923,933.764,489.667"/>
		<g opacity="0.2" clip-path="url(#SVGID_4_)" enable-background="new    ">
			<g>
				<defs>
					<rect id="SVGID_9_" x="758.574" y="365.776" width="58.751" height="41.814"/>
				</defs>
				<clipPath id="SVGID_10_">
					<use xlink:href="#SVGID_9_"  overflow="visible"/>
				</clipPath>
				<polygon clip-path="url(#SVGID_10_)" fill="#BBBCC0" points="758.574,403.33 764.382,407.59 817.325,393.845 773.189,365.776 
									"/>
			</g>
		</g>
		<path clip-path="url(#SVGID_4_)" fill="#242449" d="M733.989,220.011c-56.667-35.408-131.308-18.172-166.715,38.495
			c-35.406,56.667-18.173,131.309,38.496,166.716c56.667,35.406,131.308,18.172,166.713-38.495c0.011-0.016,0.02-0.029,0.028-0.044
			C807.841,329.964,790.611,255.339,733.989,220.011 M758.187,377.778c-30.443,48.775-94.663,63.637-143.438,33.194
			c-48.775-30.444-63.637-94.664-33.193-143.439c30.441-48.773,94.658-63.636,143.434-33.197
			C773.739,264.797,788.598,328.994,758.187,377.778"/>
		<g opacity="0.5" clip-path="url(#SVGID_4_)" enable-background="new    ">
			<g>
				<defs>
					<rect id="SVGID_11_" x="565.837" y="218.53" width="208.098" height="208.098"/>
				</defs>
				<clipPath id="SVGID_12_">
					<use xlink:href="#SVGID_11_"  overflow="visible"/>
				</clipPath>
				<path clip-path="url(#SVGID_12_)" fill="#C8E7F5" d="M669.886,218.53c57.464,0,104.049,46.583,104.049,104.049
					c0,57.465-46.585,104.049-104.049,104.049c-57.465,0-104.049-46.584-104.049-104.049
					C565.837,265.113,612.421,218.53,669.886,218.53"/>
			</g>
		</g>
		<g opacity="0.22" clip-path="url(#SVGID_4_)">
			<g>
				<defs>
					<rect id="SVGID_13_" x="580.363" y="228.846" width="165.015" height="96.427"/>
				</defs>
				<clipPath id="SVGID_14_">
					<use xlink:href="#SVGID_13_"  overflow="visible"/>
				</clipPath>
				<path clip-path="url(#SVGID_14_)" fill="#FFFFFF" d="M594.903,318.445c-0.484-33.198,21.1-63.203,53.04-72.398
					c31.941-9.195,66.785,4.936,83.529,33.586c4.743,8.034,17.616,1.355,12.873-6.775c-19.326-33.019-57.606-49.975-95.048-42.104
					c-36.876,7.84-64.073,39.491-68.429,76.561c-0.406,3.598-0.567,7.22-0.484,10.84C580.481,327.351,595,327.834,594.903,318.445"
					/>
			</g>
		</g>
		<g opacity="0.31" clip-path="url(#SVGID_4_)" enable-background="new    ">
			<g>
				<defs>
					<rect id="SVGID_15_" x="738.559" y="292.296" width="19.167" height="19.166"/>
				</defs>
				<clipPath id="SVGID_16_">
					<use xlink:href="#SVGID_15_"  overflow="visible"/>
				</clipPath>
				<path clip-path="url(#SVGID_16_)" fill="#FFFFFF" d="M746.886,292.38c5.247-0.694,10.062,2.998,10.756,8.244
					c0.693,5.247-2.998,10.062-8.244,10.755c-5.246,0.694-10.062-2.998-10.755-8.244C737.948,297.888,741.64,293.073,746.886,292.38
					"/>
			</g>
		</g>
		<path clip-path="url(#SVGID_4_)" fill="#2F3787" d="M815.292,442.143l23.134-39.006c0.805-1.324,0.47-3.044-0.774-3.968
			l-0.388-0.291c-1.367-1.009-3.295-0.718-4.304,0.65c-0.053,0.071-0.102,0.145-0.148,0.221l-22.843,39.297
			c-0.833,1.45-0.333,3.302,1.116,4.137l0.046,0.025h0.098c1.364,0.842,3.152,0.418,3.995-0.946
			C815.248,442.222,815.271,442.184,815.292,442.143"/>
		<path clip-path="url(#SVGID_4_)" fill="#DEDAE8" d="M771.447,323.382c0.04,51.502-38.012,95.097-89.047,102.017
			c-24.972,3.581-50.717-2.807-71.624-16.745c-47.124-32-59.383-96.144-27.381-143.267c11.215-16.514,26.979-29.418,45.384-37.149
			c52.371-21.992,112.655,2.635,134.646,55.008C768.762,295.952,771.489,309.601,771.447,323.382c0,3.582,5.517,3.582,5.517,0
			c-0.124-24.993-8.762-49.197-24.487-68.624c-37.949-46.479-106.392-53.395-152.871-15.447
			c-46.479,37.949-53.395,106.392-15.446,152.871c37.949,46.479,106.391,53.395,152.871,15.447
			c25.27-20.633,39.931-51.528,39.934-84.151C776.964,319.8,771.447,319.8,771.447,323.382"/>
		<path clip-path="url(#SVGID_4_)" fill="#F6C5B0" d="M919.438,512.509c3.872-10.26,9.582-30.585,12.873-40.458
			c-7.163-24.004-21.777-64.075-23.326-64.559c-8.904-2.613-16.842-4.937-25.746-7.453c-0.387-0.097-3,13.164-3.388,13.066
			c-0.387-0.097-0.484-2.71-0.581-5.808l-1.741-17.228c-0.052-1.428-1.037-2.648-2.42-3.001c-5.228-1.354-16.454-3.969-16.938-3.194
			c-0.193,0.291-1.161,15.294-1.936,19.552l-1.84-0.968l-2.419-27.972c0,0-19.455-4.937-19.843-3.969
			c-0.387,0.968-4.743,24.779-4.743,24.779s-7.549,56.622-8.323,60.59c-1.258,5.905-5.227,11.131-4.646,17.035
			c0.678,6.582,3.484,12.68,6.388,18.583c6.873,14.454,13.712,28.877,20.52,43.266c1.452,9.776,3.098,32.23,5.323,41.813
			c25.359-5.13,50.814-9.002,78.98-18.003C926.311,558.388,917.696,516.962,919.438,512.509"/>
		<polygon clip-path="url(#SVGID_4_)" fill="#F6F6F6" points="839.587,613.46 833.683,562.065 935.021,524.511 952.638,587.23 
			839.877,620.913 		"/>
		<path clip-path="url(#SVGID_4_)" fill="#242449" d="M956.509,554.902c0,0-104.242,59.525-125.73,65.141l-5.903,140.247H1002
			L956.509,554.902z"/>
		<path clip-path="url(#SVGID_4_)" fill="#242449" d="M855.268,582.972c-0.812,3.103-3.986,4.96-7.089,4.148
			s-4.96-3.985-4.148-7.088s3.985-4.96,7.089-4.149c0.027,0.008,0.056,0.016,0.083,0.023
			C854.236,576.785,856.032,579.907,855.268,582.972"/>
		<path clip-path="url(#SVGID_4_)" fill="#F6C5B0" d="M808.518,474.761l-13.551-21.294l-19.551-18.196c0,0-3.775-10.937,8.42-11.324
			c12.196-0.387,20.52,9.969,25.94,18.1c2.42,3.582,13.937,14.035,22.842,20.326c11.711,8.323-0.484,45.007-0.484,45.007
			S809.873,476.794,808.518,474.761"/>
		<path clip-path="url(#SVGID_4_)" fill="#28323F" d="M709.792,453.467h-77.238c-0.343,0.036-0.599,0.334-0.58,0.678v45.686
			c0,11.517,7.549,20.81,16.744,20.81h32.037l13.066,21.003c0.184,0.295,0.571,0.387,0.868,0.204c0.2-0.126,0.315-0.354,0.294-0.591
			l0.29-20.52h14.519c0.342-0.035,0.598-0.333,0.581-0.678v-65.817C710.275,453.757,710.083,453.467,709.792,453.467"/>
		<rect x="642.137" y="464.598" clip-path="url(#SVGID_4_)" fill="#F6F6F6" width="48.104" height="2.323"/>
		<rect x="642.137" y="482.02" clip-path="url(#SVGID_4_)" fill="#F6F6F6" width="57.396" height="2.324"/>
		<rect x="642.137" y="498.475" clip-path="url(#SVGID_4_)" fill="#F6F6F6" width="57.396" height="2.323"/>
		<path clip-path="url(#SVGID_4_)" fill="#EF4550" d="M729.595,582.875l-0.706,0.542c-0.321,0.273-0.385,0.746-0.146,1.094
			l2.101,2.904c0.242,0.346,0.719,0.43,1.065,0.188c0.006-0.004,0.013-0.009,0.019-0.014l0.696-0.532L729.595,582.875z"/>
		<path clip-path="url(#SVGID_4_)" fill="#BABCBE" d="M749.756,570.66c-7.878-0.319-16.009,6.369-16.009,6.369l-5.4,4.133
			l5.546,7.521l5.392-4.133C739.284,584.55,747.84,578.472,749.756,570.66"/>
		<path clip-path="url(#SVGID_4_)" fill="#EF4550" d="M733.737,577.067c0,0-3.271-2.903-7.907,0.697l-2.323,1.78l0.813,1.113
			c0,0,3.562-2.468,5.14-0.31L733.737,577.067z"/>
		<path clip-path="url(#SVGID_4_)" fill="#EF4550" d="M739.284,584.588c0,0,1.771,4.008-2.903,7.569l-2.323,1.78l-0.823-1.112
			c0,0,3.311-2.808,1.733-4.956L739.284,584.588z"/>
		<path clip-path="url(#SVGID_4_)" fill="#EF4550" d="M738.064,575.794c1.506-0.677,3.305,0.06,4.018,1.644
			c0.712,1.585,0.068,3.419-1.438,4.096s-3.306-0.059-4.018-1.645C735.914,578.305,736.559,576.471,738.064,575.794"/>
		<path clip-path="url(#SVGID_4_)" fill="#F1F6F8" d="M738.396,576.372c1.146-0.516,2.515,0.042,3.056,1.246
			c0.543,1.204,0.055,2.598-1.092,3.114c-1.146,0.515-2.513-0.042-3.056-1.246C736.762,578.282,737.25,576.888,738.396,576.372"/>
		<polygon clip-path="url(#SVGID_4_)" fill="#F7F7F7" points="736.468,586.746 730.921,579.188 731.715,578.588 737.262,586.146 		
			"/>
		<path clip-path="url(#SVGID_4_)" fill="#FF8F3B" d="M730.863,587.386l-1.055-1.442l-1.056-1.433c0,0-3.813,0.619-4.21,5.478
			C729.218,590.957,730.863,587.386,730.863,587.386"/>
		<path clip-path="url(#SVGID_4_)" fill="#FEE50D" d="M730.515,586.901l-0.705-0.968l-0.708-0.968c0,0-2.546,0.406-2.816,3.668
			C727.928,589.124,729.688,588.402,730.515,586.901"/>
		<path clip-path="url(#SVGID_4_)" fill="#EF4550" d="M745.43,578.713c2.012-2.335,3.485-5.085,4.317-8.053
			c-3.031-0.026-6.031,0.635-8.769,1.936L745.43,578.713z"/>
		<path clip-path="url(#SVGID_4_)" fill="#B8B7B5" d="M739.284,584.588L739.284,584.588c1.253-0.934,2.44-1.952,3.552-3.049
			c-6.95,2.904-11.488,1.791-13.608,0.833l4.665,6.311L739.284,584.588z"/>
		<path clip-path="url(#SVGID_4_)" fill="#DBDAD8" d="M734.009,583.397l2.459,3.349l0.794-0.609l-2.023-2.748
			C734.86,583.407,734.406,583.407,734.009,583.397"/>
		<g opacity="0.13" clip-path="url(#SVGID_4_)">
			<g>
				<defs>
					<rect id="SVGID_17_" x="741.636" y="571.07" width="7.511" height="2.639"/>
				</defs>
				<clipPath id="SVGID_18_">
					<use xlink:href="#SVGID_17_"  overflow="visible"/>
				</clipPath>
				<path clip-path="url(#SVGID_18_)" fill="#FFFFFF" d="M741.636,572.906c0,0,4.452-2.13,7.511-1.801
					c-2.439,0.463-4.781,1.344-6.92,2.604L741.636,572.906z"/>
			</g>
		</g>
		<path clip-path="url(#SVGID_4_)" fill="#F1F6F8" d="M741.403,579.777c-1.123,0.281-2.903,0.591-4.152-0.29
			c0.077,0.19,0.179,0.369,0.302,0.532c0.679,1.031,2.065,1.315,3.097,0.635c0.331-0.218,0.598-0.521,0.774-0.877H741.403z"/>
		<path clip-path="url(#SVGID_4_)" fill="#EF4550" d="M730.863,587.386c0.242,0.346,0.719,0.43,1.065,0.188
			c0.006-0.004,0.012-0.008,0.019-0.014l0.697-0.532c-1.566-0.545-2.955-1.505-4.019-2.778c0.031,0.093,0.074,0.181,0.127,0.262
			L730.863,587.386z"/>
		<path clip-path="url(#SVGID_4_)" fill="#EF4550" d="M736.419,592.157l0.455-0.368c-1.088,0.416-2.223,0.695-3.378,0.832
			c-0.07,0.072-0.145,0.141-0.223,0.204l0.822,1.112L736.419,592.157z"/>
	</g>
</g>
<g>
	<path fill="#F0F3F5" d="M489.693,340.219c0,3.76-2.793,6.876-6.125,6.876H12.201c-3.438,0-6.125-3.116-6.125-6.876V73.967
		c0-3.761,2.794-6.876,6.125-6.876h471.367c3.332,0,6.125,3.115,6.125,6.876V340.219z"/>
	<path fill="#E8DDD0" d="M413.622,238.79c0.519,0.332,1.021,0.69,1.503,1.074"/>
	<path fill="#E8DDD0" d="M408.033,230.409c0.699,1.043,1.615,1.923,2.687,2.579"/>
	<g opacity="0.75" enable-background="new    ">
		<g>
			<defs>
				<rect id="SVGID_19_" x="20.555" y="104.669" width="453.908" height="205.492"/>
			</defs>
			<clipPath id="SVGID_20_">
				<use xlink:href="#SVGID_19_"  overflow="visible"/>
			</clipPath>
			<path clip-path="url(#SVGID_20_)" fill="#FFFFFF" d="M462.079,310.026H32.938c-6.758,0.005-12.242-5.468-12.249-12.227v-0.023
				V117.052c-0.005-6.76,5.469-12.243,12.228-12.249h0.021h429.142c6.759-0.005,12.244,5.468,12.248,12.228v0.021V297.67
				C474.34,304.457,468.867,309.979,462.079,310.026"/>
			<path clip-path="url(#SVGID_20_)" fill="none" stroke="#676767" stroke-width="0.25" stroke-miterlimit="10" d="M462.079,310.026
				H32.938c-6.758,0.005-12.242-5.468-12.249-12.227v-0.023V117.052c-0.005-6.76,5.469-12.243,12.228-12.249h0.021h429.142
				c6.759-0.005,12.244,5.468,12.248,12.228v0.021V297.67C474.34,304.457,468.867,309.979,462.079,310.026z"/>
		</g>
	</g>
	<path fill="#E3E3E3" d="M151.559,90.514c0,0.107-0.215,0.107-0.429,0.107H29.07c-0.149-0.005-0.295-0.042-0.43-0.107v-7.629
		c0-0.108,0.215-0.108,0.43-0.108h122.167c0.149,0.006,0.296,0.042,0.43,0.108v7.629H151.559z"/>
	
		<line fill="none" stroke="#9C9C9E" stroke-width="0.25" stroke-miterlimit="10" x1="20.582" y1="243.625" x2="474.327" y2="243.625"/>
	
		<line fill="none" stroke="#9C9C9E" stroke-width="0.25" stroke-miterlimit="10" x1="87.414" y1="104.804" x2="87.414" y2="243.625"/>
	
		<line fill="none" stroke="#9C9C9E" stroke-width="0.25" stroke-miterlimit="10" x1="185.458" y1="104.911" x2="185.458" y2="243.732"/>
	<path fill="#FFE400" d="M80.214,118.665c-0.016,0.229-0.199,0.413-0.43,0.429H73.23c-0.229-0.016-0.414-0.2-0.43-0.429v-6.662
		c0.016-0.231,0.201-0.414,0.43-0.43h6.555c0.231,0.016,0.414,0.199,0.43,0.43V118.665z"/>
	<path fill="none" stroke="#9C9C9E" stroke-width="0.25" stroke-miterlimit="10" d="M234.4,243.625"/>
	<path fill="none" stroke="#9C9C9E" stroke-width="0.25" stroke-miterlimit="10" d="M234.4,104.804"/>
	
		<line fill="none" stroke="#9C9C9E" stroke-width="0.25" stroke-miterlimit="10" x1="87.414" y1="172.495" x2="185.458" y2="172.495"/>
	
		<line fill="none" stroke="#9C9C9E" stroke-width="0.25" stroke-miterlimit="10" x1="246.434" y1="243.625" x2="246.434" y2="308.308"/>
	
		<line fill="none" stroke="#9C9C9E" stroke-width="0.25" stroke-miterlimit="10" x1="297.256" y1="104.804" x2="297.256" y2="243.625"/>
	<path fill="#EE4752" d="M175.913,187.108c-0.016,0.23-0.199,0.414-0.43,0.429h-6.555c-0.229-0.016-0.413-0.199-0.429-0.429v-6.662
		c0.017-0.231,0.2-0.413,0.429-0.429h6.555c0.231,0.016,0.414,0.198,0.43,0.429V187.108z"/>
	<path fill="#15BDCC" d="M175.913,119.523c-0.016,0.231-0.199,0.415-0.43,0.43h-6.555c-0.229-0.015-0.413-0.199-0.429-0.43v-6.662
		c0.017-0.231,0.2-0.414,0.429-0.43h6.555c0.231,0.016,0.414,0.199,0.43,0.43V119.523z"/>
	<path fill="#FFE400" d="M287.64,119.523c-0.016,0.229-0.201,0.414-0.429,0.43h-6.555c-0.23-0.016-0.415-0.2-0.429-0.43v-6.662
		c0.014-0.231,0.199-0.414,0.429-0.43h6.555c0.229,0.016,0.414,0.199,0.429,0.43V119.523z"/>
	<path fill="#FFE400" d="M239.021,258.559c-0.017,0.231-0.2,0.415-0.43,0.43h-6.554c-0.231-0.016-0.416-0.199-0.43-0.43v-6.661
		c0.015-0.231,0.199-0.414,0.43-0.431h6.554c0.23,0.017,0.413,0.2,0.43,0.431V258.559z"/>
	<path fill="#15BDCC" d="M465.948,258.559c-0.017,0.231-0.199,0.415-0.431,0.43h-6.553c-0.231-0.016-0.415-0.199-0.43-0.43v-6.661
		c0.016-0.231,0.199-0.414,0.43-0.431h6.553c0.231,0.017,0.414,0.2,0.431,0.431V258.559z"/>
	<path fill="#EE4752" d="M391.81,187.108c-0.017,0.229-0.199,0.414-0.43,0.429h-6.554c-0.231-0.015-0.415-0.2-0.43-0.429v-6.662
		c0.016-0.231,0.199-0.414,0.43-0.43h6.554c0.231,0.016,0.414,0.198,0.43,0.43V187.108z"/>
	
		<line fill="none" stroke="#9C9C9E" stroke-width="0.25" stroke-miterlimit="10" x1="398.148" y1="104.804" x2="398.148" y2="243.625"/>
	
		<line fill="none" stroke="#9C9C9E" stroke-width="0.25" stroke-miterlimit="10" x1="297.256" y1="173.248" x2="398.149" y2="173.248"/>
	<path fill="#404F61" d="M236.625,116.3L236.625,116.3l-41.03,0.108c-0.153,0-0.153,0-0.153-0.108v-3.76
		c0-0.061,0.069-0.107,0.153-0.107h40.877c0.153,0,0.153,0,0.153,0.107V116.3z"/>
	<path fill="#404F61" d="M347.852,184.852C347.852,184.958,347.694,184.958,347.852,184.852l-41.972,0.107
		c-0.157,0-0.157,0-0.157-0.107v-3.761c0-0.06,0.071-0.107,0.157-0.107h41.814c0.158,0,0.158,0,0.158,0.107V184.852z"/>
	<path fill="#E3E3E3" d="M252.854,128.657l-0.153,0.108h-57.106c-0.153,0-0.153,0-0.153-0.108v-3.761l0.153-0.107h57.106
		c0.153,0,0.153,0,0.153,0.107V128.657z"/>
	<path fill="#F4F4F4" d="M268.891,135.533c-0.075,0.059-0.171,0.095-0.275,0.108h-73.053c-0.136,0-0.273,0-0.273-0.108v-3.761
		c0.073-0.058,0.169-0.095,0.273-0.107h73.053c0.137,0,0.275,0,0.275,0.107V135.533z"/>
	<path fill="#E3E3E3" d="M465.948,333.02c0,0.107-0.108,0.107-0.323,0.107h-79.08c-0.111-0.019-0.221-0.055-0.323-0.107v-7.629
		c0-0.108,0.108-0.108,0.323-0.108h79.187c0.113,0.02,0.223,0.056,0.323,0.108v7.629H465.948z"/>
	<path fill="#E3E3E3" d="M364.456,196.67l-0.158,0.107H305.88c-0.157,0-0.157,0-0.157-0.107v-3.761l0.157-0.108h58.417
		c0.158,0,0.158,0,0.158,0.108V196.67z"/>
	<path fill="#F4F4F4" d="M374.994,203.654c-0.069,0.058-0.161,0.096-0.258,0.108h-68.911c-0.128,0-0.257,0-0.257-0.108v-3.76
		c0.068-0.058,0.159-0.096,0.257-0.108h68.911c0.129,0,0.258,0,0.258,0.108V203.654z"/>
	<path fill="#E3E3E3" d="M297.256,266.618l-0.107,0.108h-40.078c-0.107,0-0.107,0-0.107-0.108v-3.761l0.107-0.107h40.078
		c0.107,0,0.107,0,0.107,0.107V266.618z"/>
	<path fill="#F4F4F4" d="M314.877,273.602c-0.058,0.058-0.133,0.096-0.215,0.107h-57.484c-0.107,0-0.214,0-0.214-0.107v-3.761
		c0.057-0.058,0.134-0.094,0.214-0.107h57.484c0.107,0,0.215,0,0.215,0.107V273.602z"/>
	<path fill="#404F61" d="M285.76,255.121L285.76,255.121l-28.795,0.108c-0.107,0-0.107,0-0.107-0.108v-3.76
		c0-0.06,0.048-0.108,0.107-0.108h28.688c0.108,0,0.108,0,0.108,0.108V255.121z"/>
	<path fill="#404F61" d="M57.436,255.229L57.436,255.229l-28.795,0.107c-0.107,0-0.107,0-0.107-0.107v-3.761
		c0-0.059,0.048-0.106,0.107-0.106h28.688c0.108,0,0.108,0,0.108,0.106V255.229z"/>
	<path fill="#E3E3E3" d="M68.933,267.585l-0.107,0.107H28.64c-0.107,0-0.107,0-0.107-0.107v-3.76l0.107-0.108h40.078
		c0.108,0,0.108,0,0.108,0.108v3.76H68.933z"/>
	<path fill="#F4F4F4" d="M86.447,274.569c-0.059,0.058-0.134,0.095-0.215,0.107H28.748c-0.107,0-0.214,0-0.214-0.107v-3.761
		c0.058-0.059,0.133-0.095,0.214-0.107h57.484c0.108,0,0.215,0,0.215,0.107V274.569z"/>
	<path fill="#404F61" d="M124.482,184.852L124.482,184.852l-28.795,0.107c-0.107,0-0.107,0-0.107-0.107v-3.761
		c0-0.061,0.048-0.107,0.107-0.107h28.688c0.107,0,0.107,0,0.107,0.107V184.852z"/>
	<path fill="#E3E3E3" d="M135.872,194.199l-0.107,0.107H95.687c-0.107,0-0.107,0-0.107-0.107v-3.761l0.107-0.107h40.077
		c0.107,0,0.107,0,0.107,0.107V194.199z"/>
	<path fill="#F4F4F4" d="M153.493,201.076c-0.058,0.058-0.134,0.096-0.215,0.108H95.687c-0.107,0-0.215,0-0.215-0.108v-3.761
		c0.058-0.058,0.134-0.096,0.215-0.107h57.484c0.107,0,0.214,0,0.214,0.107v3.761H153.493z"/>
	<path fill="#404F61" d="M124.482,115.978L124.482,115.978l-28.795,0.107c-0.107,0-0.107,0-0.107-0.107v-3.761
		c0-0.059,0.048-0.107,0.107-0.107h28.688c0.107,0,0.107,0,0.107,0.107V115.978z"/>
	<path fill="#E3E3E3" d="M135.872,126.293l-0.107,0.107H95.687c-0.107,0-0.107,0-0.107-0.107v-3.76l0.107-0.108h40.077
		c0.107,0,0.107,0,0.107,0.108V126.293z"/>
	<path fill="#F4F4F4" d="M153.493,134.62c-0.058,0.058-0.134,0.095-0.215,0.107H95.687c-0.107,0-0.215,0-0.215-0.107v-3.761
		c0.058-0.058,0.134-0.095,0.215-0.108h57.484c0.107,0,0.214,0,0.214,0.108v3.761H153.493z"/>
	<path fill="#404F61" d="M56.469,115.978L56.469,115.978l-27.721,0.107c-0.059,0-0.108-0.048-0.108-0.107v-3.761
		c0-0.059,0.049-0.107,0.108-0.107h27.613c0.061,0,0.108,0.048,0.108,0.107V115.978z"/>
	<path fill="#E3E3E3" d="M62.164,127.367c0,0.06-0.048,0.108-0.107,0.108H28.748c-0.108,0-0.108,0-0.108-0.108v-3.76
		c0-0.06,0.049-0.107,0.108-0.107h33.309c0.107,0,0.107,0,0.107,0.107V127.367z"/>
	<path fill="#F4F4F4" d="M73.23,135.318l-0.107,0.108H28.748c-0.108,0-0.108,0-0.108-0.108v-3.76l0.108-0.108h44.375
		c0.107,0,0.107,0,0.107,0.108V135.318z"/>
	<path fill="#404F61" d="M435.11,116.516L435.11,116.516l-28.795,0.107c-0.107,0-0.107,0-0.107-0.107v-3.761
		c0-0.059,0.049-0.107,0.107-0.107h28.687c0.108,0,0.108,0,0.108,0.107V116.516z"/>
	<path fill="#E3E3E3" d="M446.499,127.905l-0.108,0.108h-40.076c-0.108,0-0.108,0-0.108-0.108v-3.761l0.108-0.107h40.076
		c0.108,0,0.108,0,0.108,0.107V127.905z"/>
	<path fill="#F4F4F4" d="M460.252,134.781c-0.057,0.059-0.134,0.095-0.213,0.108h-53.831c-0.107,0-0.216,0-0.216-0.108v-3.76
		c0.059-0.058,0.135-0.096,0.216-0.107h53.831c0.106,0,0.213,0,0.213,0.107V134.781z"/>
	<path fill="#E3E3E3" d="M68.933,282.521l-0.107,0.107H28.64c-0.107,0-0.107,0-0.107-0.107v-3.761l0.107-0.107h40.078
		c0.108,0,0.108,0,0.108,0.107v3.761H68.933z"/>
	<path fill="#F4F4F4" d="M86.447,289.504c-0.059,0.058-0.134,0.095-0.215,0.107H28.748c-0.107,0-0.214,0-0.214-0.107v-3.76
		c0.058-0.059,0.133-0.097,0.214-0.109h57.484c0.108,0,0.215,0,0.215,0.109V289.504z"/>
	<path fill="#E3E3E3" d="M297.256,282.306l-0.107,0.108h-40.078c-0.107,0-0.107,0-0.107-0.108v-3.761l0.107-0.108h40.078
		c0.107,0,0.107,0,0.107,0.108V282.306z"/>
	<path fill="#F4F4F4" d="M314.771,289.181c-0.058,0.059-0.134,0.097-0.215,0.108h-57.484c-0.107,0-0.214,0-0.214-0.108v-3.761
		c0.057-0.057,0.133-0.094,0.214-0.107h57.484c0.107,0,0.215,0,0.215,0.107V289.181z"/>
	<path fill="#404F61" d="M347.781,117.268C347.781,117.375,347.624,117.375,347.781,117.268l-41.973,0.107
		c-0.156,0-0.156,0-0.156-0.107v-3.761c0-0.059,0.07-0.107,0.156-0.107h41.815c0.157,0,0.157,0,0.157,0.107V117.268z"/>
	<path fill="#E3E3E3" d="M364.383,129.087l-0.157,0.107h-58.418c-0.156,0-0.156,0-0.156-0.107v-3.761l0.156-0.107h58.418
		c0.157,0,0.157,0,0.157,0.107V129.087z"/>
	<path fill="#F4F4F4" d="M374.994,136.071c-0.069,0.058-0.161,0.096-0.258,0.107h-68.982c-0.128,0-0.257,0-0.257-0.107v-3.76
		c0.068-0.059,0.158-0.096,0.257-0.108h68.982c0.128,0,0.258,0,0.258,0.108V136.071z"/>
	<path fill="#15BDCC" d="M391.81,119.523c-0.016,0.231-0.199,0.415-0.43,0.43h-6.554c-0.231-0.015-0.413-0.199-0.43-0.43v-6.662
		c0.017-0.231,0.199-0.414,0.43-0.43h6.554c0.231,0.016,0.414,0.199,0.43,0.43V119.523z"/>
	<path fill="#FFE400" d="M466.163,119.523c-0.017,0.229-0.2,0.414-0.431,0.43h-6.554c-0.231-0.016-0.414-0.2-0.431-0.43v-6.662
		c0.017-0.231,0.2-0.414,0.431-0.43h6.554c0.231,0.016,0.414,0.199,0.431,0.43V119.523z"/>
</g>
</svg>
