<?xml version="1.0" encoding="utf-8"?>
<!-- Generator: Adobe Illustrator 16.0.0, SVG Export Plug-In . SVG Version: 6.00 Build 0)  -->
<!DOCTYPE svg PUBLIC "-//W3C//DTD SVG 1.1//EN" "http://www.w3.org/Graphics/SVG/1.1/DTD/svg11.dtd">
<svg version="1.1" id="Layer_1" xmlns="http://www.w3.org/2000/svg" xmlns:xlink="http://www.w3.org/1999/xlink" x="0px" y="0px"
	 width="1000px" height="1000px" viewBox="0 0 1000 1000" enable-background="new 0 0 1000 1000" xml:space="preserve">
<path fill="#FFD15C" d="M720.931,63.258H69.978c-22.877,0-41.595,18.718-41.595,41.595v852.686
	c0,22.877,18.717,41.594,41.595,41.594h650.953c22.877,0,41.596-18.717,41.596-41.594V104.853
	C762.525,81.976,743.808,63.258,720.931,63.258z"/>
<rect x="83.495" y="118.746" fill="#FFFFFF" width="621.835" height="823.571"/>
<path fill="#FF7058" d="M535.835,0.867H255.073c-24.957,0-45.754,20.797-45.754,43.674v114.384H579.51V44.541
	C581.59,21.664,560.792,0.867,535.835,0.867z"/>
<g>
	<rect x="300.826" y="254.594" fill="#40596B" width="361.872" height="47.834"/>
	<rect x="300.826" y="423.049" fill="#40596B" width="361.872" height="47.835"/>
	<rect x="300.826" y="591.508" fill="#40596B" width="361.872" height="47.834"/>
	<rect x="300.826" y="759.965" fill="#40596B" width="361.872" height="47.836"/>
</g>
<g>
	<rect x="126.13" y="726.689" fill="#CDD6E0" width="114.384" height="114.383"/>
	<rect x="126.13" y="558.232" fill="#CDD6E0" width="114.384" height="114.385"/>
	<rect x="126.13" y="389.775" fill="#CDD6E0" width="114.384" height="114.383"/>
	<rect x="126.13" y="221.317" fill="#CDD6E0" width="114.384" height="114.384"/>
</g>
<g>
	<polygon fill="#40596B" points="167.725,314.906 140.688,285.789 155.245,271.231 167.725,283.708 209.319,244.194 
		223.876,258.751 	"/>
	<polygon fill="#40596B" points="169.804,481.282 142.768,454.247 157.325,439.688 169.804,452.167 211.399,412.652 
		225.957,427.209 	"/>
</g>
<path fill="#FFD15C" d="M667.896,663.258l210.052-210.053l-93.585-95.667L572.231,567.59c-2.08,2.08-2.08,4.16-4.16,4.16
	c0,2.08-2.08,4.16-2.08,4.16l-2.08,4.16l-18.717,70.711l-12.479,49.914l49.914-12.478l72.79-18.718l4.16-2.078
	c2.08,0,4.159-2.08,4.159-2.08S665.817,663.258,667.896,663.258z"/>
<g>
	<path fill="#FF7058" d="M589.868,608.105l223.633-220.939l-31.22-29.628L572.229,567.59c-2.079,2.08-2.079,4.16-4.159,4.16
		c0,2.08-2.08,4.16-2.08,4.16l-2.08,4.16L589.868,608.105z"/>
	<path fill="#FF7058" d="M667.896,664.258L879.243,451.91l-28.33-26.822L628.383,645.54l24.957,24.957l4.16-2.078
		c2.08,0,4.16-2.08,4.16-2.08C663.738,666.338,665.817,664.258,667.896,664.258z"/>
</g>
<polygon fill="#334A5E" points="580.549,688.215 545.194,652.859 530.637,702.771 "/>
<path fill="#40596B" d="M960.137,312.782l-37.435-37.435c-16.638-16.637-43.674-16.637-58.231,0l-55.229,56.309l96.824,93.432
	l54.07-54.072C976.776,356.456,976.776,329.421,960.137,312.782z"/>
<polygon fill="#F1543F" points="589.868,608.105 812.398,385.575 851.913,425.09 629.383,645.539 "/>
<polygon fill="#FFD15C" points="811.398,328.421 907.064,424.09 877.948,453.205 782.281,357.538 "/>
</svg>
