<?xml version="1.0" encoding="utf-8"?>
<!-- Generator: Adobe Illustrator 16.0.0, SVG Export Plug-In . SVG Version: 6.00 Build 0)  -->
<!DOCTYPE svg PUBLIC "-//W3C//DTD SVG 1.1//EN" "http://www.w3.org/Graphics/SVG/1.1/DTD/svg11.dtd">
<svg version="1.1" id="Layer_1" xmlns="http://www.w3.org/2000/svg" xmlns:xlink="http://www.w3.org/1999/xlink" x="0px" y="0px"
	 width="1000px" height="1000px" viewBox="0 0 1000 1000" enable-background="new 0 0 1000 1000" xml:space="preserve">
<path fill="#40596B" d="M733.833,190.509H42.167c-22.917,0-41.667,18.75-41.667,41.667v545.833c0,22.917,18.75,41.667,41.667,41.667
	h691.666c22.917,0,41.667-18.75,41.667-41.667V232.176C775.5,209.259,756.75,190.509,733.833,190.509z"/>
<path fill="#334A5E" d="M943.25,192.593l-168.75,100v424.999l168.75,100c27.084,10.416,56.25-10.416,56.25-39.583V230.092
	C999.5,200.927,970.332,182.177,943.25,192.593z"/>
<rect x="83" y="590.51" fill="#FFD15C" width="291.667" height="166.667"/>
<g>
	<circle fill="#FF7058" cx="517.167" cy="673.844" r="27.084"/>
	<circle fill="#FF7058" cx="613" cy="673.844" r="27.084"/>
</g>
</svg>
